{"glyphs":{"0":{"ha":542,"x_min":65,"x_max":476,"o":"m 350 142 l 350 728 q 342 760 350 753 q 308 768 333 768 l 233 768 q 201 760 208 768 q 193 728 193 753 l 193 142 q 201 109 193 117 q 233 101 208 101 l 308 101 q 342 109 333 101 q 350 142 350 117 m 476 747 l 476 122 q 347 0 476 0 l 196 0 q 65 122 65 0 l 65 747 q 196 869 65 869 l 347 869 q 476 747 476 869 z "},"1":{"ha":326,"x_min":28,"x_max":254,"o":"m 254 869 l 254 0 l 128 0 l 128 768 l 28 768 l 28 869 l 254 869 z "},"2":{"ha":456,"x_min":35,"x_max":419,"o":"m 160 728 l 160 586 l 35 586 l 35 747 q 164 869 35 869 l 283 869 q 414 747 414 869 l 414 660 q 365 469 414 563 l 178 101 l 419 101 l 419 0 l 36 0 l 36 97 l 249 497 q 288 664 288 571 l 288 728 q 280 760 288 753 q 246 768 272 768 l 201 768 q 168 760 176 768 q 160 728 160 753 z "},"3":{"ha":493,"x_min":40,"x_max":428,"o":"m 165 728 l 165 597 l 40 597 l 40 747 q 169 869 40 869 l 297 869 q 428 747 428 869 l 428 528 q 372 442 428 454 q 428 361 428 429 l 428 122 q 297 0 428 0 l 169 0 q 40 122 40 0 l 40 271 l 165 271 l 165 142 q 174 109 165 117 q 207 101 182 101 l 261 101 q 294 109 286 101 q 303 142 303 117 l 303 350 q 294 383 303 375 q 261 390 286 390 l 157 390 l 157 490 l 261 490 q 294 498 286 490 q 303 531 303 506 l 303 728 q 294 760 303 753 q 261 768 286 768 l 207 768 q 174 760 182 768 q 165 728 165 753 z "},"4":{"ha":504,"x_min":8,"x_max":504,"o":"m 504 275 l 504 172 l 426 172 l 426 0 l 306 0 l 306 172 l 8 172 l 8 276 l 258 869 l 383 869 l 128 275 l 306 275 l 306 442 l 426 442 l 426 275 l 504 275 z "},"5":{"ha":497,"x_min":56,"x_max":449,"o":"m 183 543 l 318 543 q 449 421 449 543 l 449 122 q 318 0 449 0 l 185 0 q 56 122 56 0 l 56 276 l 182 276 l 182 142 q 190 109 182 117 q 224 101 199 101 l 281 101 q 314 109 306 101 q 322 142 322 117 l 322 401 q 314 435 322 426 q 281 443 306 443 l 58 443 l 58 869 l 446 869 l 446 768 l 183 768 l 183 543 z "},"6":{"ha":531,"x_min":65,"x_max":472,"o":"m 190 500 l 343 500 q 472 376 472 500 l 472 122 q 343 0 472 0 l 196 0 q 65 122 65 0 l 65 747 q 196 869 65 869 l 339 869 q 468 747 468 869 l 468 597 l 344 597 l 344 728 q 336 760 344 753 q 303 768 328 768 l 232 768 q 199 760 207 768 q 190 728 190 753 l 190 500 m 347 142 l 347 360 q 339 392 347 383 q 306 400 331 400 l 190 400 l 190 142 q 199 109 190 117 q 232 101 207 101 l 306 101 q 339 109 331 101 q 347 142 347 117 z "},"7":{"ha":404,"x_min":8,"x_max":397,"o":"m 397 869 l 397 792 l 164 0 l 36 0 l 263 765 l 8 765 l 8 869 l 397 869 z "},"8":{"ha":540,"x_min":65,"x_max":475,"o":"m 475 747 l 475 524 q 421 438 475 450 q 475 356 475 422 l 475 122 q 346 0 475 0 l 194 0 q 65 122 65 0 l 65 356 q 119 438 65 422 q 65 524 65 450 l 65 747 q 194 869 65 869 l 346 869 q 475 747 475 869 m 351 142 l 351 350 q 344 382 351 374 q 311 390 336 390 l 229 390 q 197 382 204 390 q 189 350 189 374 l 189 142 q 197 108 189 117 q 229 100 204 100 l 311 100 q 344 108 336 100 q 351 142 351 117 m 351 526 l 351 729 q 344 761 351 753 q 311 769 336 769 l 229 769 q 197 761 204 769 q 189 729 189 753 l 189 526 q 197 494 189 503 q 229 486 204 486 l 311 486 q 344 494 336 486 q 351 526 351 503 z "},"9":{"ha":525,"x_min":53,"x_max":460,"o":"m 182 869 l 329 869 q 460 747 460 869 l 460 122 q 329 0 460 0 l 186 0 q 56 122 56 0 l 56 271 l 181 271 l 181 142 q 188 109 181 117 q 222 101 196 101 l 293 101 q 326 109 318 101 q 333 142 333 117 l 333 356 l 182 356 q 53 479 53 356 l 53 747 q 182 869 53 869 m 219 454 l 333 454 l 333 728 q 326 760 333 753 q 293 768 318 768 l 219 768 q 186 760 194 768 q 178 728 178 753 l 178 494 q 186 463 178 471 q 219 454 194 454 z "},"\u0000":{"ha":0,"x_min":0,"x_max":0,"o":""},"\r":{"ha":0,"x_min":0,"x_max":0,"o":""}," ":{"ha":201,"x_min":0,"x_max":0,"o":""},"!":{"ha":290,"x_min":69,"x_max":221,"o":"m 74 0 l 74 171 l 214 171 l 214 0 l 74 0 m 69 869 l 221 869 l 197 283 l 93 283 l 69 869 z "},"\"":{"ha":406,"x_min":50,"x_max":356,"o":"m 240 869 l 356 869 l 356 560 l 240 560 l 240 869 m 50 869 l 165 869 l 165 560 l 50 560 l 50 869 z "},"#":{"ha":689,"x_min":42,"x_max":647,"o":"m 647 550 l 556 550 l 514 319 l 601 319 l 601 224 l 497 224 l 457 0 l 346 0 l 386 224 l 229 224 l 189 0 l 76 0 l 117 224 l 42 224 l 42 319 l 133 319 l 175 550 l 89 550 l 89 646 l 192 646 l 232 869 l 343 869 l 303 646 l 461 646 l 501 869 l 613 869 l 572 646 l 647 646 l 647 550 m 403 319 l 444 550 l 286 550 l 246 319 l 403 319 z "},"$":{"ha":501,"x_min":53,"x_max":450,"o":"m 221 494 l 322 494 q 450 372 450 494 l 450 122 q 319 0 450 0 l 311 0 l 311 -107 l 192 -107 l 192 0 l 185 0 q 56 122 56 0 l 56 250 l 182 250 l 182 142 q 190 109 182 117 q 224 101 199 101 l 282 101 q 315 109 307 101 q 322 142 322 117 l 322 354 q 315 387 322 379 q 282 394 307 394 l 179 394 q 53 518 53 394 l 53 747 q 182 869 53 869 l 192 869 l 192 976 l 311 976 l 311 869 l 318 869 q 447 747 447 869 l 447 619 l 321 619 l 321 728 q 313 760 321 753 q 279 768 304 768 l 221 768 q 188 760 196 768 q 179 728 179 753 l 179 535 q 188 502 179 510 q 221 494 196 494 z "},"%":{"ha":890,"x_min":40,"x_max":850,"o":"m 596 869 l 700 869 l 294 0 l 192 0 l 596 869 m 747 122 l 747 347 q 741 378 747 371 q 711 385 735 385 l 682 385 q 651 378 658 385 q 644 347 644 371 l 644 122 q 651 92 644 99 q 682 85 658 85 l 711 85 q 741 92 735 85 q 747 122 747 99 m 246 524 l 246 747 q 239 778 246 771 q 210 785 232 785 l 179 785 q 149 778 156 785 q 143 747 143 771 l 143 524 q 149 492 143 499 q 179 485 156 485 l 210 485 q 239 492 232 485 q 246 524 246 500 m 850 363 l 850 107 q 743 0 850 0 l 650 0 q 542 107 542 0 l 542 363 q 650 469 542 469 l 743 469 q 850 363 850 469 m 349 763 l 349 507 q 240 400 349 400 l 149 400 q 40 507 40 400 l 40 763 q 66 843 40 817 q 149 869 92 869 l 240 869 q 323 843 297 869 q 349 763 349 817 z "},"&":{"ha":640,"x_min":53,"x_max":714,"o":"m 471 0 l 182 0 q 53 122 53 0 l 53 267 q 71 341 53 313 q 138 400 89 369 l 179 431 q 131 493 146 472 q 100 549 115 514 q 85 614 85 583 l 85 747 q 215 869 85 869 l 350 869 q 478 747 478 869 l 478 618 q 453 506 478 547 q 372 429 428 465 l 340 408 l 500 213 l 500 319 l 601 319 l 601 122 q 599 92 601 111 l 714 -49 l 581 -49 l 532 10 q 471 0 508 0 m 210 732 l 210 606 q 268 494 210 563 l 276 501 q 338 554 321 531 q 356 618 356 578 l 356 732 q 347 765 356 757 q 314 772 339 772 l 250 772 q 217 765 225 772 q 210 732 210 757 m 217 99 l 457 99 l 250 347 l 217 325 q 184 294 193 310 q 175 246 175 278 l 175 139 q 183 106 175 114 q 217 99 192 99 z "},"'":{"ha":224,"x_min":50,"x_max":174,"o":"m 50 869 l 174 869 l 174 560 l 50 560 l 50 869 z "},"(":{"ha":367,"x_min":65,"x_max":393,"o":"m 65 521 q 142 953 65 803 q 372 1103 219 1103 l 393 1103 l 393 997 l 375 996 q 190 522 190 985 l 190 336 q 375 -137 190 -126 l 393 -139 l 393 -243 l 372 -243 q 142 -94 219 -243 q 65 339 65 56 l 65 521 z "},")":{"ha":367,"x_min":-29,"x_max":299,"o":"m 299 339 q 222 -94 299 56 q -8 -243 144 -243 l -29 -243 l -29 -139 l -11 -137 q 174 336 174 -126 l 174 522 q -11 996 174 985 l -29 997 l -29 1103 l -8 1103 q 222 953 144 1103 q 299 521 299 803 l 299 339 z "},"*":{"ha":444,"x_min":22,"x_max":424,"o":"m 171 819 l 171 869 l 275 869 l 275 819 q 265 735 275 774 q 344 769 299 756 l 390 785 l 424 685 l 375 671 q 292 653 340 658 q 350 589 319 631 l 379 549 l 294 488 l 265 529 q 224 603 236 569 q 181 526 201 557 l 151 488 l 65 549 l 96 589 q 154 653 125 629 q 22 686 117 656 l 54 785 q 181 733 149 754 q 171 819 171 772 z "},"+":{"ha":567,"x_min":32,"x_max":535,"o":"m 535 486 l 535 383 l 346 383 l 346 174 l 221 174 l 221 383 l 32 383 l 32 486 l 221 486 l 221 696 l 346 696 l 346 486 l 535 486 z "},",":{"ha":229,"x_min":44,"x_max":185,"o":"m 44 171 l 185 171 l 185 81 l 89 -194 l 44 -194 l 44 171 z "},"-":{"ha":438,"x_min":67,"x_max":369,"o":"m 67 360 l 67 457 l 369 457 l 369 360 l 67 360 z "},".":{"ha":229,"x_min":44,"x_max":185,"o":"m 44 0 l 44 171 l 185 171 l 185 0 l 44 0 z "},"/":{"ha":542,"x_min":3,"x_max":499,"o":"m 382 972 l 499 972 l 119 -167 l 3 -167 l 382 972 z "},":":{"ha":229,"x_min":44,"x_max":185,"o":"m 44 410 l 44 581 l 185 581 l 185 410 l 44 410 m 44 97 l 44 268 l 185 268 l 185 97 l 44 97 z "},";":{"ha":229,"x_min":44,"x_max":185,"o":"m 44 507 l 44 678 l 185 678 l 185 507 l 44 507 m 44 171 l 185 171 l 185 81 l 89 -194 l 44 -194 l 44 171 z "},"<":{"ha":583,"x_min":40,"x_max":543,"o":"m 543 556 l 158 436 l 543 315 l 543 203 l 40 372 l 40 500 l 543 667 l 543 556 z "},"=":{"ha":583,"x_min":40,"x_max":543,"o":"m 40 257 l 40 363 l 543 363 l 543 257 l 40 257 m 40 507 l 40 613 l 543 613 l 543 507 l 40 507 z "},">":{"ha":583,"x_min":40,"x_max":543,"o":"m 425 436 l 40 556 l 40 667 l 543 500 l 543 372 l 40 203 l 40 315 l 425 436 z "},"?":{"ha":475,"x_min":28,"x_max":419,"o":"m 157 869 l 290 869 q 419 749 419 869 l 419 496 q 290 375 419 375 l 272 375 l 267 283 l 161 283 l 150 465 l 254 465 q 285 474 278 465 q 293 507 293 483 l 293 731 q 285 763 293 754 q 254 772 278 772 l 193 772 q 162 763 169 772 q 154 731 154 754 l 154 631 l 28 631 l 28 749 q 157 869 28 869 m 143 0 l 143 171 l 283 171 l 283 0 l 143 0 z "},"@":{"ha":967,"x_min":106,"x_max":903,"o":"m 442 461 l 442 247 q 449 215 442 224 q 482 207 457 207 l 522 207 q 567 256 567 207 l 567 453 q 556 490 567 479 q 522 500 546 500 l 482 500 q 449 492 457 500 q 442 461 442 485 m 324 476 q 446 596 324 596 l 483 596 q 568 542 550 596 l 568 596 l 682 596 l 682 207 l 743 207 q 777 215 769 207 q 785 247 785 222 l 785 657 q 777 690 785 682 q 743 699 769 699 l 265 699 q 233 690 240 699 q 225 657 225 682 l 225 43 q 233 11 225 19 q 265 3 240 3 l 683 3 l 683 -97 l 231 -97 q 106 25 106 -97 l 106 676 q 231 799 106 799 l 778 799 q 903 676 903 799 l 903 235 q 776 113 903 113 l 575 113 l 575 183 q 483 113 565 113 l 446 113 q 324 232 324 113 l 324 476 z "},"A":{"ha":535,"x_min":17,"x_max":518,"o":"m 392 0 l 357 201 l 174 201 l 142 0 l 17 0 l 171 869 l 353 869 l 518 0 l 392 0 m 189 303 l 340 303 l 261 761 l 189 303 z "},"B":{"ha":568,"x_min":72,"x_max":504,"o":"m 378 532 l 378 731 q 369 763 378 756 q 336 771 361 771 l 197 771 l 197 492 l 336 492 q 369 499 361 492 q 378 532 378 507 m 378 139 l 378 353 q 369 385 378 378 q 336 393 361 393 l 197 393 l 197 99 l 336 99 q 369 106 361 99 q 378 139 378 114 m 72 869 l 374 869 q 504 747 504 869 l 504 526 q 449 440 504 453 q 504 360 504 426 l 504 122 q 374 0 504 0 l 72 0 l 72 869 z "},"C":{"ha":524,"x_min":65,"x_max":472,"o":"m 472 597 l 344 597 l 344 731 q 337 763 344 756 q 304 771 329 771 l 233 771 q 200 763 208 771 q 192 731 192 756 l 192 138 q 200 105 192 113 q 233 97 208 97 l 304 97 q 337 105 329 97 q 344 138 344 113 l 344 269 l 472 269 l 472 122 q 342 -1 472 -1 l 194 -1 q 65 122 65 -1 l 65 747 q 194 869 65 869 l 342 869 q 472 747 472 869 l 472 597 z "},"D":{"ha":572,"x_min":75,"x_max":507,"o":"m 75 869 l 378 869 q 507 747 507 869 l 507 122 q 378 0 507 0 l 75 0 l 75 869 m 381 139 l 381 731 q 372 763 381 756 q 339 771 364 771 l 201 771 l 201 99 l 339 99 q 372 106 364 99 q 381 139 381 114 z "},"E":{"ha":476,"x_min":72,"x_max":450,"o":"m 199 101 l 450 101 l 450 0 l 72 0 l 72 869 l 440 869 l 440 768 l 199 768 l 199 500 l 399 500 l 399 399 l 199 399 l 199 101 z "},"F":{"ha":461,"x_min":72,"x_max":451,"o":"m 451 768 l 199 768 l 199 482 l 399 482 l 399 383 l 199 383 l 199 0 l 72 0 l 72 869 l 451 869 l 451 768 z "},"G":{"ha":531,"x_min":65,"x_max":472,"o":"m 472 615 l 346 615 l 346 731 q 338 763 346 756 q 304 771 329 771 l 233 771 q 200 763 208 771 q 192 731 192 756 l 192 138 q 200 105 192 113 q 233 97 208 97 l 304 97 q 338 105 329 97 q 346 138 346 113 l 346 350 l 276 350 l 276 447 l 472 447 l 472 122 q 343 -1 472 -1 l 194 -1 q 65 122 65 -1 l 65 747 q 194 869 65 869 l 343 869 q 472 747 472 869 l 472 615 z "},"H":{"ha":579,"x_min":72,"x_max":507,"o":"m 382 869 l 507 869 l 507 0 l 382 0 l 382 382 l 197 382 l 197 0 l 72 0 l 72 869 l 197 869 l 197 483 l 382 483 l 382 869 z "},"I":{"ha":292,"x_min":83,"x_max":208,"o":"m 83 869 l 208 869 l 208 0 l 83 0 l 83 869 z "},"J":{"ha":464,"x_min":19,"x_max":396,"o":"m 19 286 l 146 286 l 146 142 q 154 109 146 117 q 188 101 163 101 l 228 101 q 261 109 253 101 q 269 142 269 117 l 269 869 l 396 869 l 396 122 q 267 0 396 0 l 149 0 q 19 122 19 0 l 19 286 z "},"K":{"ha":533,"x_min":72,"x_max":519,"o":"m 519 869 l 336 433 l 518 0 l 382 0 l 206 433 l 385 869 l 519 869 m 72 0 l 72 869 l 197 869 l 197 0 l 72 0 z "},"L":{"ha":418,"x_min":72,"x_max":413,"o":"m 197 101 l 413 101 l 413 0 l 72 0 l 72 869 l 197 869 l 197 101 z "},"M":{"ha":717,"x_min":72,"x_max":644,"o":"m 182 0 l 72 0 l 72 869 l 210 869 l 358 331 l 507 869 l 644 869 l 644 0 l 535 0 l 535 636 l 415 189 l 301 189 l 182 635 l 182 0 z "},"N":{"ha":569,"x_min":72,"x_max":497,"o":"m 382 869 l 497 869 l 497 0 l 371 0 l 188 628 l 188 0 l 72 0 l 72 869 l 204 869 l 382 260 l 382 869 z "},"O":{"ha":546,"x_min":65,"x_max":479,"o":"m 196 869 l 350 869 q 479 747 479 869 l 479 122 q 350 0 479 0 l 196 0 q 65 122 65 0 l 65 747 q 196 869 65 869 m 354 142 l 354 728 q 346 760 354 753 q 313 768 338 768 l 232 768 q 199 760 207 768 q 192 728 192 753 l 192 142 q 199 109 192 117 q 232 101 207 101 l 313 101 q 346 109 338 101 q 354 142 354 117 z "},"P":{"ha":525,"x_min":72,"x_max":486,"o":"m 72 869 l 357 869 q 486 747 486 869 l 486 458 q 357 336 486 336 l 197 336 l 197 0 l 72 0 l 72 869 m 361 478 l 361 728 q 353 760 361 753 q 319 768 344 768 l 197 768 l 197 436 l 319 436 q 353 444 344 436 q 361 478 361 453 z "},"Q":{"ha":546,"x_min":65,"x_max":500,"o":"m 196 0 q 65 122 65 0 l 65 747 q 196 869 65 869 l 350 869 q 479 747 479 869 l 479 122 q 401 6 479 28 l 500 -126 l 367 -126 l 275 0 l 196 0 m 192 728 l 192 142 q 199 109 192 117 q 232 101 207 101 l 313 101 q 346 109 338 101 q 354 142 354 117 l 354 728 q 346 760 354 753 q 313 768 338 768 l 232 768 q 199 760 207 768 q 192 728 192 753 z "},"R":{"ha":550,"x_min":72,"x_max":531,"o":"m 197 351 l 197 0 l 72 0 l 72 869 l 357 869 q 486 747 486 869 l 486 475 q 393 354 486 369 l 531 0 l 396 0 l 265 351 l 197 351 m 197 768 l 197 451 l 319 451 q 353 459 344 451 q 361 492 361 467 l 361 728 q 353 760 361 753 q 319 768 344 768 l 197 768 z "},"S":{"ha":501,"x_min":53,"x_max":450,"o":"m 322 142 l 322 354 q 315 387 322 379 q 282 394 307 394 l 179 394 q 53 518 53 394 l 53 747 q 182 869 53 869 l 318 869 q 447 747 447 869 l 447 619 l 321 619 l 321 728 q 313 760 321 753 q 279 768 304 768 l 221 768 q 188 760 196 768 q 179 728 179 753 l 179 535 q 188 502 179 510 q 221 494 196 494 l 322 494 q 450 372 450 494 l 450 122 q 319 0 450 0 l 185 0 q 56 122 56 0 l 56 250 l 182 250 l 182 142 q 190 109 182 117 q 224 101 199 101 l 282 101 q 315 109 307 101 q 322 142 322 117 z "},"T":{"ha":431,"x_min":7,"x_max":424,"o":"m 424 869 l 424 768 l 278 768 l 278 0 l 153 0 l 153 768 l 7 768 l 7 869 l 424 869 z "},"U":{"ha":551,"x_min":68,"x_max":483,"o":"m 357 869 l 483 869 l 483 122 q 353 0 483 0 l 199 0 q 68 122 68 0 l 68 869 l 194 869 l 194 142 q 203 109 194 117 q 236 101 211 101 l 315 101 q 349 109 342 101 q 357 142 357 117 l 357 869 z "},"V":{"ha":506,"x_min":7,"x_max":499,"o":"m 369 869 l 499 869 l 342 0 l 164 0 l 7 869 l 136 869 l 251 115 l 369 869 z "},"W":{"ha":846,"x_min":14,"x_max":832,"o":"m 706 869 l 832 869 l 693 0 l 519 0 l 422 653 l 326 0 l 153 0 l 14 869 l 143 869 l 240 114 l 353 869 l 492 869 l 604 114 l 706 869 z "},"X":{"ha":518,"x_min":6,"x_max":513,"o":"m 326 444 l 513 0 l 374 0 l 257 331 l 140 0 l 6 0 l 189 444 l 18 869 l 157 869 l 257 557 l 358 869 l 494 869 l 326 444 z "},"Y":{"ha":501,"x_min":6,"x_max":496,"o":"m 318 0 l 192 0 l 192 275 l 6 869 l 133 869 l 254 390 l 368 869 l 496 869 l 318 275 l 318 0 z "},"Z":{"ha":435,"x_min":11,"x_max":424,"o":"m 424 871 l 424 769 l 139 101 l 417 101 l 417 0 l 11 0 l 11 101 l 296 769 l 26 769 l 26 871 l 424 871 z "},"[":{"ha":432,"x_min":81,"x_max":346,"o":"m 346 986 l 207 986 l 207 -128 l 346 -128 l 346 -229 l 81 -229 l 81 1088 l 346 1088 l 346 986 z "},"\\":{"ha":542,"x_min":43,"x_max":539,"o":"m 43 972 l 160 972 l 539 -167 l 422 -167 l 43 972 z "},"]":{"ha":432,"x_min":61,"x_max":325,"o":"m 325 1088 l 325 -229 l 61 -229 l 61 -128 l 199 -128 l 199 986 l 61 986 l 61 1088 l 325 1088 z "},"^":{"ha":692,"x_min":76,"x_max":603,"o":"m 260 932 l 418 932 l 603 440 l 472 440 l 339 815 l 207 440 l 76 440 l 260 932 z "},"_":{"ha":658,"x_min":0,"x_max":658,"o":"m 0 -158 l 0 -60 l 658 -60 l 658 -158 l 0 -158 z "},"`":{"ha":585,"x_min":161,"x_max":414,"o":"m 300 904 l 414 721 l 307 721 l 161 904 l 300 904 z "},"a":{"ha":500,"x_min":53,"x_max":439,"o":"m 314 678 l 439 678 l 439 0 l 314 0 l 314 54 q 228 0 296 0 l 178 0 q 53 122 53 0 l 53 554 q 178 678 53 678 l 228 678 q 314 624 296 678 l 314 678 m 219 101 l 268 101 q 303 113 293 101 q 314 150 314 124 l 314 528 q 303 565 314 554 q 268 576 293 576 l 219 576 q 186 569 194 576 q 178 536 178 561 l 178 142 q 186 109 178 117 q 219 101 194 101 z "},"b":{"ha":500,"x_min":61,"x_max":447,"o":"m 272 679 l 321 679 q 447 556 447 679 l 447 122 q 321 0 447 0 l 272 0 q 186 54 204 0 l 186 0 l 61 0 l 61 929 l 186 929 l 186 625 q 272 679 204 679 m 322 142 l 322 538 q 314 569 322 561 q 281 578 306 578 l 232 578 q 197 567 207 578 q 186 529 186 556 l 186 150 q 197 113 186 124 q 232 101 207 101 l 281 101 q 314 109 306 101 q 322 142 322 117 z "},"c":{"ha":488,"x_min":53,"x_max":444,"o":"m 444 464 l 321 464 l 321 536 q 313 569 321 561 q 279 576 304 576 l 219 576 q 186 569 194 576 q 178 536 178 561 l 178 142 q 186 109 178 117 q 219 101 194 101 l 279 101 q 313 109 304 101 q 321 142 321 117 l 321 214 l 444 214 l 444 122 q 314 0 444 0 l 182 0 q 53 122 53 0 l 53 554 q 182 678 53 678 l 314 678 q 444 554 444 678 l 444 464 z "},"d":{"ha":500,"x_min":53,"x_max":439,"o":"m 314 929 l 439 929 l 439 0 l 314 0 l 314 54 q 228 0 296 0 l 178 0 q 53 122 53 0 l 53 556 q 178 679 53 679 l 228 679 q 314 625 296 679 l 314 929 m 219 101 l 268 101 q 303 113 293 101 q 314 150 314 124 l 314 529 q 303 567 314 556 q 268 578 293 578 l 219 578 q 186 569 194 578 q 178 538 178 561 l 178 142 q 186 109 178 117 q 219 101 194 101 z "},"e":{"ha":500,"x_min":58,"x_max":454,"o":"m 188 678 l 324 678 q 454 554 454 678 l 454 300 l 181 300 l 181 139 q 189 107 181 115 q 222 99 197 99 l 286 99 q 319 107 311 99 q 328 140 328 115 l 328 196 l 450 196 l 450 122 q 321 0 450 0 l 188 0 q 58 122 58 0 l 58 554 q 188 678 58 678 m 181 392 l 331 392 l 331 539 q 323 571 331 563 q 290 579 315 579 l 222 579 q 189 571 197 579 q 181 539 181 563 l 181 392 z "},"f":{"ha":308,"x_min":8,"x_max":301,"o":"m 301 824 l 243 824 q 210 816 218 824 q 201 783 201 808 l 201 678 l 301 678 l 301 576 l 201 576 l 201 0 l 76 0 l 76 576 l 8 576 l 8 678 l 76 678 l 76 807 q 206 929 76 929 l 301 929 l 301 824 z "},"g":{"ha":500,"x_min":53,"x_max":439,"o":"m 314 678 l 439 678 l 439 -69 q 308 -192 439 -192 l 76 -192 l 76 -93 l 272 -93 q 306 -85 297 -93 q 314 -53 314 -76 l 314 63 q 228 8 296 8 l 178 8 q 53 132 53 8 l 53 554 q 178 678 53 678 l 228 678 q 314 624 296 678 l 314 678 m 219 110 l 268 110 q 303 121 293 110 q 314 158 314 132 l 314 528 q 303 565 314 554 q 268 576 293 576 l 219 576 q 186 569 194 576 q 178 536 178 561 l 178 150 q 186 118 178 126 q 219 110 194 110 z "},"h":{"ha":507,"x_min":61,"x_max":447,"o":"m 272 678 l 321 678 q 447 554 447 678 l 447 0 l 322 0 l 322 536 q 314 569 322 561 q 281 576 306 576 l 232 576 q 197 565 207 576 q 186 528 186 554 l 186 0 l 61 0 l 61 929 l 186 929 l 186 624 q 272 678 204 678 z "},"i":{"ha":247,"x_min":58,"x_max":189,"o":"m 58 807 l 58 931 l 189 931 l 189 807 l 58 807 m 186 0 l 61 0 l 61 678 l 186 678 l 186 0 z "},"j":{"ha":247,"x_min":-6,"x_max":189,"o":"m 58 807 l 58 931 l 189 931 l 189 807 l 58 807 m 61 -53 l 61 678 l 186 678 l 186 -69 q 57 -192 186 -192 l -6 -192 l -6 -93 l 19 -93 q 53 -85 44 -93 q 61 -53 61 -76 z "},"k":{"ha":496,"x_min":61,"x_max":492,"o":"m 492 678 l 336 354 l 492 0 l 358 0 l 208 354 l 358 678 l 492 678 m 61 0 l 61 929 l 186 929 l 186 0 l 61 0 z "},"l":{"ha":247,"x_min":61,"x_max":186,"o":"m 186 0 l 61 0 l 61 929 l 186 929 l 186 0 z "},"m":{"ha":761,"x_min":61,"x_max":707,"o":"m 533 678 l 582 678 q 707 554 707 678 l 707 0 l 582 0 l 582 536 q 574 569 582 561 q 542 576 567 576 l 492 576 q 447 528 447 576 l 447 0 l 322 0 l 322 536 q 314 569 322 561 q 281 576 306 576 l 232 576 q 197 565 207 576 q 186 528 186 554 l 186 0 l 61 0 l 61 678 l 186 678 l 186 624 q 272 678 204 678 l 321 678 q 436 615 410 678 q 533 678 453 678 z "},"n":{"ha":507,"x_min":61,"x_max":447,"o":"m 272 678 l 321 678 q 447 554 447 678 l 447 0 l 322 0 l 322 536 q 314 569 322 561 q 281 576 306 576 l 232 576 q 197 565 207 576 q 186 528 186 554 l 186 0 l 61 0 l 61 678 l 186 678 l 186 624 q 272 678 204 678 z "},"o":{"ha":514,"x_min":54,"x_max":460,"o":"m 182 678 l 331 678 q 460 554 460 678 l 460 122 q 331 0 460 0 l 182 0 q 54 122 54 0 l 54 554 q 182 678 54 678 m 336 140 l 336 538 q 328 571 336 563 q 294 579 319 579 l 218 579 q 185 571 193 579 q 178 538 178 563 l 178 140 q 185 107 178 115 q 218 99 193 99 l 294 99 q 328 107 319 99 q 336 140 336 115 z "},"p":{"ha":500,"x_min":61,"x_max":447,"o":"m 272 678 l 321 678 q 447 554 447 678 l 447 122 q 321 0 447 0 l 272 0 q 186 54 204 0 l 186 -192 l 61 -192 l 61 678 l 186 678 l 186 624 q 272 678 204 678 m 322 142 l 322 536 q 314 569 322 561 q 281 576 306 576 l 232 576 q 197 565 207 576 q 186 528 186 554 l 186 150 q 197 113 186 124 q 232 101 207 101 l 281 101 q 314 109 306 101 q 322 142 322 117 z "},"q":{"ha":500,"x_min":53,"x_max":439,"o":"m 314 678 l 439 678 l 439 -192 l 314 -192 l 314 54 q 228 0 296 0 l 178 0 q 53 122 53 0 l 53 554 q 178 678 53 678 l 228 678 q 314 624 296 678 l 314 678 m 219 101 l 268 101 q 303 113 293 101 q 314 150 314 124 l 314 528 q 303 565 314 554 q 268 576 293 576 l 219 576 q 186 569 194 576 q 178 536 178 561 l 178 142 q 186 109 178 117 q 219 101 194 101 z "},"r":{"ha":331,"x_min":61,"x_max":324,"o":"m 296 679 l 324 679 l 324 571 l 274 571 q 186 468 186 571 l 186 0 l 61 0 l 61 678 l 186 678 l 186 594 q 226 655 197 631 q 296 679 254 679 z "},"s":{"ha":456,"x_min":46,"x_max":410,"o":"m 288 136 l 288 249 q 279 281 288 274 q 246 289 271 289 l 175 289 q 46 411 46 289 l 46 554 q 175 678 46 678 l 276 678 q 407 554 407 678 l 407 489 l 285 489 l 285 542 q 276 574 285 567 q 243 582 268 582 l 210 582 q 176 574 185 582 q 168 542 168 567 l 168 425 q 176 392 168 400 q 210 385 185 385 l 282 385 q 410 261 410 385 l 410 122 q 281 0 410 0 l 178 0 q 49 122 49 0 l 49 189 l 171 189 l 171 136 q 179 103 171 111 q 213 96 188 96 l 246 96 q 279 103 271 96 q 288 136 288 111 z "},"t":{"ha":304,"x_min":7,"x_max":290,"o":"m 290 576 l 197 576 l 197 147 q 205 115 197 122 q 238 107 213 107 l 290 107 l 290 0 l 201 0 q 71 122 71 0 l 71 576 l 7 576 l 7 678 l 71 678 l 71 793 l 197 793 l 197 678 l 290 678 l 290 576 z "},"u":{"ha":507,"x_min":60,"x_max":446,"o":"m 321 678 l 446 678 l 446 0 l 321 0 l 321 54 q 235 0 303 0 l 185 0 q 60 122 60 0 l 60 678 l 185 678 l 185 142 q 193 109 185 117 q 226 101 201 101 l 275 101 q 310 113 300 101 q 321 150 321 124 l 321 678 z "},"v":{"ha":440,"x_min":6,"x_max":435,"o":"m 131 678 l 219 106 l 310 678 l 435 678 l 310 0 l 131 0 l 6 678 l 131 678 z "},"w":{"ha":754,"x_min":7,"x_max":747,"o":"m 629 678 l 747 678 l 622 0 l 457 0 l 376 513 l 296 0 l 131 0 l 7 678 l 125 678 l 215 107 l 303 678 l 451 678 l 536 107 l 629 678 z "},"x":{"ha":475,"x_min":7,"x_max":469,"o":"m 300 347 l 469 0 l 338 0 l 236 235 l 138 0 l 7 0 l 174 346 l 17 678 l 150 678 l 238 456 l 324 678 l 454 678 l 300 347 z "},"y":{"ha":475,"x_min":11,"x_max":464,"o":"m 161 -192 l 78 -192 l 78 -92 l 135 -92 q 207 -46 194 -92 l 221 11 l 153 11 l 11 678 l 139 678 l 242 110 l 338 678 l 464 678 l 321 -65 q 161 -192 290 -192 z "},"z":{"ha":406,"x_min":19,"x_max":386,"o":"m 386 100 l 386 0 l 19 0 l 19 100 l 254 578 l 35 578 l 35 678 l 383 678 l 383 578 l 147 100 l 386 100 z "},"{":{"ha":393,"x_min":10,"x_max":382,"o":"m 275 947 l 275 599 q 169 431 275 446 q 275 267 275 418 l 275 -86 q 285 -119 275 -110 q 319 -129 294 -129 l 382 -129 l 382 -228 l 268 -228 q 176 -196 203 -228 q 149 -103 149 -164 l 149 232 q 121 346 149 310 q 33 382 93 382 l 10 382 l 10 479 l 33 479 q 121 516 93 479 q 149 632 149 553 l 149 963 q 268 1088 149 1088 l 382 1088 l 382 989 l 319 989 q 285 980 294 989 q 275 947 275 971 z "},"|":{"ha":274,"x_min":75,"x_max":196,"o":"m 75 1032 l 196 1032 l 196 -164 l 75 -164 l 75 1032 z "},"}":{"ha":393,"x_min":10,"x_max":381,"o":"m 117 599 l 117 947 q 107 980 117 971 q 72 989 97 989 l 10 989 l 10 1088 l 124 1088 q 215 1055 189 1088 q 242 963 242 1022 l 242 632 q 269 516 242 553 q 358 479 297 479 l 381 479 l 381 382 l 358 382 q 269 346 297 382 q 242 232 242 310 l 242 -103 q 215 -196 242 -164 q 124 -228 189 -228 l 10 -228 l 10 -129 l 72 -129 q 107 -119 97 -129 q 117 -86 117 -110 l 117 267 q 222 431 117 418 q 117 599 117 446 z "},"~":{"ha":728,"x_min":85,"x_max":643,"o":"m 478 296 q 401 313 436 296 q 347 353 367 331 q 242 408 296 408 q 208 397 217 408 q 200 363 200 386 l 200 297 l 85 297 l 85 389 q 201 501 85 501 l 253 501 q 325 484 292 501 q 378 444 358 467 q 490 389 431 389 q 521 399 514 389 q 528 436 528 410 l 528 500 l 643 500 l 643 410 q 525 296 643 296 l 478 296 z "}," ":{"ha":201,"x_min":0,"x_max":0,"o":""},"¡":{"ha":290,"x_min":69,"x_max":221,"o":"m 221 -192 l 69 -192 l 93 394 l 197 394 l 221 -192 m 74 507 l 74 678 l 214 678 l 214 507 l 74 507 z "},"¢":{"ha":488,"x_min":53,"x_max":444,"o":"m 444 464 l 321 464 l 321 536 q 313 569 321 561 q 279 576 304 576 l 219 576 q 186 569 194 576 q 178 536 178 561 l 178 142 q 186 109 178 117 q 219 101 194 101 l 279 101 q 313 109 304 101 q 321 142 321 117 l 321 214 l 444 214 l 444 122 q 314 0 444 0 l 313 0 l 313 -106 l 193 -106 l 193 0 l 182 0 q 53 122 53 0 l 53 554 q 182 678 53 678 l 193 678 l 193 785 l 313 785 l 313 678 l 314 678 q 444 554 444 678 l 444 464 z "},"£":{"ha":538,"x_min":44,"x_max":506,"o":"m 506 101 l 506 0 l 44 0 l 44 99 q 97 131 82 100 q 111 231 111 161 l 111 371 l 44 371 l 44 469 l 111 469 l 111 747 q 240 869 111 869 l 371 869 q 500 747 500 869 l 500 619 l 374 619 l 374 728 q 366 760 374 753 q 333 768 358 768 l 279 768 q 246 760 254 768 q 238 728 238 753 l 238 469 l 419 469 l 419 371 l 238 371 l 238 214 q 201 101 238 125 l 506 101 z "},"¤":{"ha":672,"x_min":81,"x_max":600,"o":"m 551 542 l 551 289 q 542 222 551 247 l 600 164 l 519 83 l 453 150 q 413 147 428 147 l 278 147 q 229 151 253 147 l 161 83 l 81 164 l 146 229 q 139 289 139 257 l 139 542 q 149 607 139 582 l 81 675 l 161 756 l 238 679 q 278 682 263 682 l 413 682 q 444 681 435 682 l 519 756 l 600 675 l 539 614 q 551 542 551 585 m 308 244 l 381 244 q 426 255 415 244 q 438 300 438 265 l 438 529 q 426 576 438 565 q 381 586 415 586 l 308 586 q 264 576 275 586 q 253 529 253 565 l 253 300 q 264 255 253 265 q 308 244 275 244 z "},"¥":{"ha":532,"x_min":18,"x_max":514,"o":"m 503 481 l 503 385 l 364 385 l 339 303 l 503 303 l 503 211 l 331 211 l 331 0 l 204 0 l 204 211 l 31 211 l 31 303 l 196 303 l 169 385 l 31 385 l 31 481 l 140 481 l 18 869 l 144 869 l 267 410 l 388 869 l 514 869 l 394 481 l 503 481 z "},"¦":{"ha":274,"x_min":72,"x_max":199,"o":"m 199 521 l 72 521 l 72 1003 l 199 1003 l 199 521 m 72 347 l 199 347 l 199 -135 l 72 -135 l 72 347 z "},"§":{"ha":582,"x_min":74,"x_max":508,"o":"m 508 742 l 383 742 l 383 790 q 375 824 383 815 q 342 832 367 832 l 286 832 q 252 824 260 832 q 244 790 244 815 l 244 678 q 252 644 244 653 q 286 636 260 636 l 378 636 q 507 514 507 636 l 507 401 q 450 279 507 303 q 464 210 464 251 l 464 67 q 333 -57 464 -57 l 203 -57 q 74 67 74 -57 l 74 129 l 199 129 l 199 81 q 207 48 199 56 q 240 40 215 40 l 297 40 q 330 48 322 40 q 338 81 338 56 l 338 194 q 330 227 338 219 q 297 235 322 235 l 204 235 q 75 358 75 235 l 75 465 q 135 590 75 567 q 119 661 119 621 l 119 806 q 249 928 119 928 l 379 928 q 508 806 508 928 l 508 742 m 344 539 l 239 539 q 206 531 214 539 q 197 499 197 522 l 197 374 q 206 341 197 349 q 239 333 214 333 l 344 333 q 377 341 369 333 q 385 374 385 349 l 385 499 q 377 531 385 522 q 344 539 369 539 z "},"¨":{"ha":585,"x_min":90,"x_max":494,"o":"m 354 751 l 354 882 l 494 882 l 494 751 l 354 751 m 90 751 l 90 882 l 232 882 l 232 751 l 90 751 z "},"©":{"ha":974,"x_min":63,"x_max":931,"o":"m 565 339 l 565 375 l 676 375 l 676 321 q 560 210 676 210 l 435 210 q 318 321 318 210 l 318 563 q 435 675 318 675 l 560 675 q 676 563 676 675 l 676 510 l 565 510 l 565 544 q 558 576 565 568 q 526 583 550 583 l 467 583 q 435 576 443 583 q 428 544 428 568 l 428 339 q 435 308 428 315 q 467 301 443 301 l 526 301 q 558 308 550 301 q 565 339 565 315 m 375 94 l 618 94 q 774 167 728 94 q 819 379 819 240 l 819 481 q 618 778 819 778 l 375 778 q 174 481 174 778 l 174 379 q 219 167 174 240 q 375 94 265 94 m 931 474 l 931 386 q 860 95 931 190 q 629 0 789 0 l 364 0 q 133 95 204 0 q 63 386 63 190 l 63 474 q 134 770 63 671 q 364 869 206 869 l 629 869 q 859 770 788 869 q 931 474 931 671 z "},"ª":{"ha":357,"x_min":35,"x_max":315,"o":"m 232 869 l 315 869 l 315 392 l 231 392 l 231 425 q 174 392 218 392 l 124 392 q 35 479 35 392 l 35 782 q 124 869 35 869 l 172 869 q 232 832 219 869 l 232 869 m 149 464 l 200 464 q 231 497 231 464 l 231 764 q 200 799 231 799 l 149 799 q 124 794 129 799 q 118 771 118 789 l 118 493 q 124 469 118 475 q 149 464 131 464 z "},"«":{"ha":681,"x_min":51,"x_max":629,"o":"m 497 144 l 333 360 l 497 575 l 629 575 l 461 358 l 629 144 l 497 144 m 217 144 l 51 360 l 217 575 l 347 575 l 181 358 l 347 144 l 217 144 z "},"¬":{"ha":639,"x_min":47,"x_max":578,"o":"m 578 556 l 578 224 l 479 224 l 479 429 l 47 429 l 47 556 l 578 556 z "},"­":{"ha":438,"x_min":67,"x_max":369,"o":"m 67 360 l 67 457 l 369 457 l 369 360 l 67 360 z "},"®":{"ha":575,"x_min":47,"x_max":528,"o":"m 311 743 l 311 818 q 303 828 311 828 l 267 828 l 267 735 l 303 735 q 311 743 311 735 m 217 868 l 314 868 q 363 824 363 868 l 363 739 q 332 694 363 700 l 378 579 l 325 579 l 281 692 l 267 692 l 267 579 l 217 579 l 217 868 m 221 535 l 356 535 q 441 574 417 535 q 465 690 465 613 l 465 746 q 356 910 465 910 l 221 910 q 110 746 110 910 l 110 690 q 135 574 110 613 q 221 535 160 535 m 528 743 l 528 694 q 488 533 528 586 q 361 481 449 481 l 214 481 q 86 533 125 481 q 47 694 47 586 l 47 743 q 87 906 47 851 q 214 961 126 961 l 361 961 q 528 743 528 961 z "},"¯":{"ha":585,"x_min":106,"x_max":478,"o":"m 106 765 l 106 860 l 478 860 l 478 765 l 106 765 z "},"°":{"ha":532,"x_min":75,"x_max":450,"o":"m 333 607 l 333 739 q 325 770 333 763 q 292 778 317 778 l 233 778 q 200 770 208 778 q 192 739 192 763 l 192 607 q 200 576 192 583 q 233 568 208 568 l 292 568 q 326 576 318 568 q 333 607 333 583 m 450 749 l 450 596 q 324 476 450 476 l 201 476 q 75 596 75 476 l 75 749 q 201 869 75 869 l 324 869 q 450 749 450 869 z "},"±":{"ha":583,"x_min":40,"x_max":543,"o":"m 354 592 l 543 592 l 543 492 l 354 492 l 354 382 l 229 382 l 229 492 l 40 492 l 40 592 l 229 592 l 229 701 l 354 701 l 354 592 m 40 238 l 40 339 l 543 339 l 543 238 l 40 238 z "},"²":{"ha":281,"x_min":19,"x_max":258,"o":"m 101 782 l 101 711 l 19 711 l 19 803 q 90 869 19 869 l 185 869 q 256 803 256 869 l 256 757 q 225 642 256 689 l 117 463 l 258 463 l 258 392 l 19 392 l 19 458 l 149 664 q 172 757 172 699 l 172 782 q 168 799 172 794 q 150 804 164 804 l 125 804 q 106 799 111 804 q 101 782 101 794 z "},"³":{"ha":297,"x_min":21,"x_max":263,"o":"m 106 782 l 106 721 l 21 721 l 21 803 q 93 869 21 869 l 192 869 q 263 803 263 869 l 263 681 q 232 633 263 639 q 263 589 263 628 l 263 458 q 192 392 263 392 l 93 392 q 21 458 21 392 l 21 540 l 106 540 l 106 481 q 110 463 106 467 q 128 458 114 458 l 157 458 q 175 463 171 458 q 179 481 179 467 l 179 578 q 175 596 179 592 q 157 600 171 600 l 114 600 l 114 665 l 157 665 q 175 670 171 665 q 179 688 179 675 l 179 782 q 175 799 179 794 q 157 804 171 804 l 128 804 q 110 799 114 804 q 106 782 106 794 z "},"´":{"ha":585,"x_min":164,"x_max":417,"o":"m 164 721 l 278 904 l 417 904 l 271 721 l 164 721 z "},"µ":{"ha":515,"x_min":56,"x_max":442,"o":"m 317 678 l 442 678 l 442 0 l 317 0 l 317 54 q 231 0 299 0 l 181 0 l 181 -192 l 56 -192 l 56 678 l 181 678 l 181 142 q 189 109 181 117 q 222 101 197 101 l 271 101 q 306 113 296 101 q 317 150 317 124 l 317 678 z "},"¶":{"ha":704,"x_min":68,"x_max":618,"o":"m 504 869 l 618 869 l 618 -192 l 504 -192 l 504 869 m 399 869 l 399 -192 l 285 -192 l 285 314 l 197 314 q 68 436 68 314 l 68 747 q 197 869 68 869 l 399 869 z "},"·":{"ha":301,"x_min":47,"x_max":188,"o":"m 47 360 l 47 528 l 188 528 l 188 360 l 47 360 z "},"¸":{"ha":585,"x_min":185,"x_max":404,"o":"m 286 -117 l 286 -69 l 404 -69 l 404 -126 q 264 -260 404 -260 l 185 -260 l 185 -162 l 240 -162 q 286 -117 286 -162 z "},"¹":{"ha":201,"x_min":15,"x_max":154,"o":"m 154 869 l 154 392 l 69 392 l 69 804 l 15 804 l 15 869 l 154 869 z "},"º":{"ha":344,"x_min":36,"x_max":308,"o":"m 126 869 l 218 869 q 308 782 308 869 l 308 479 q 218 392 308 392 l 126 392 q 36 479 36 392 l 36 782 q 126 869 36 869 m 225 486 l 225 775 q 219 799 225 793 q 194 804 213 804 l 149 804 q 125 799 131 804 q 119 775 119 793 l 119 486 q 125 464 119 469 q 149 458 131 458 l 194 458 q 219 464 213 458 q 225 486 225 469 z "},"»":{"ha":681,"x_min":51,"x_max":629,"o":"m 629 360 l 464 144 l 333 144 l 500 358 l 333 575 l 464 575 l 629 360 m 347 360 l 182 144 l 51 144 l 219 358 l 51 575 l 182 575 l 347 360 z "},"¿":{"ha":475,"x_min":28,"x_max":419,"o":"m 293 47 l 419 47 l 419 -71 q 290 -192 419 -192 l 157 -192 q 28 -71 28 -192 l 28 182 q 157 303 28 303 l 175 303 l 181 394 l 286 394 l 297 213 l 193 213 q 162 203 169 213 q 154 171 154 194 l 154 -53 q 162 -85 154 -76 q 193 -94 169 -94 l 254 -94 q 285 -85 278 -94 q 293 -53 293 -76 l 293 47 m 304 678 l 304 507 l 164 507 l 164 678 l 304 678 z "},"À":{"ha":535,"x_min":17,"x_max":518,"o":"m 392 0 l 357 201 l 174 201 l 142 0 l 17 0 l 171 869 l 353 869 l 518 0 l 392 0 m 189 303 l 340 303 l 261 761 l 189 303 m 306 913 l 199 913 l 53 1096 l 192 1096 l 306 913 z "},"Á":{"ha":535,"x_min":17,"x_max":518,"o":"m 392 0 l 357 201 l 174 201 l 142 0 l 17 0 l 171 869 l 353 869 l 518 0 l 392 0 m 189 303 l 340 303 l 261 761 l 189 303 m 463 1096 l 317 913 l 210 913 l 324 1096 l 463 1096 z "},"Â":{"ha":535,"x_min":17,"x_max":518,"o":"m 392 0 l 357 201 l 174 201 l 142 0 l 17 0 l 171 869 l 353 869 l 518 0 l 392 0 m 189 303 l 340 303 l 261 761 l 189 303 m 261 1025 l 189 913 l 58 913 l 192 1096 l 332 1096 l 464 913 l 335 913 l 261 1025 z "},"Ã":{"ha":535,"x_min":17,"x_max":518,"o":"m 392 0 l 357 201 l 174 201 l 142 0 l 17 0 l 171 869 l 353 869 l 518 0 l 392 0 m 189 303 l 340 303 l 261 761 l 189 303 m 171 935 l 171 914 l 63 914 l 63 944 q 88 1028 63 1000 q 171 1056 113 1056 l 183 1056 q 262 1029 218 1056 q 319 1003 306 1003 q 339 1009 333 1003 q 344 1036 344 1015 l 344 1056 l 451 1056 l 451 1024 q 428 942 451 969 q 344 914 404 914 l 335 914 q 253 940 299 914 q 194 967 207 967 q 171 935 171 967 z "},"Ä":{"ha":535,"x_min":17,"x_max":518,"o":"m 392 0 l 357 201 l 174 201 l 142 0 l 17 0 l 171 869 l 353 869 l 518 0 l 392 0 m 189 303 l 340 303 l 261 761 l 189 303 m 201 1043 l 201 913 l 60 913 l 60 1043 l 201 1043 m 464 1043 l 464 913 l 324 913 l 324 1043 l 464 1043 z "},"Å":{"ha":535,"x_min":17,"x_max":518,"o":"m 392 0 l 357 201 l 174 201 l 142 0 l 17 0 l 171 869 l 353 869 l 518 0 l 392 0 m 189 303 l 340 303 l 261 761 l 189 303 m 307 914 l 217 914 q 115 1011 115 914 l 115 1035 q 217 1132 115 1132 l 307 1132 q 408 1035 408 1132 l 408 1011 q 307 914 408 914 m 203 1028 l 203 1018 q 209 990 203 997 q 239 983 215 983 l 285 983 q 315 990 308 983 q 321 1018 321 997 l 321 1028 q 315 1056 321 1049 q 285 1063 308 1063 l 239 1063 q 209 1056 215 1063 q 203 1028 203 1049 z "},"Æ":{"ha":804,"x_min":15,"x_max":772,"o":"m 521 101 l 772 101 l 772 0 l 397 0 l 397 207 l 215 207 l 142 0 l 15 0 l 338 869 l 763 869 l 763 768 l 521 768 l 521 500 l 721 500 l 721 399 l 521 399 l 521 101 m 397 307 l 397 714 l 251 307 l 397 307 z "},"Ç":{"ha":524,"x_min":65,"x_max":472,"o":"m 472 597 l 344 597 l 344 731 q 337 763 344 756 q 304 771 329 771 l 233 771 q 200 763 208 771 q 192 731 192 756 l 192 138 q 200 105 192 113 q 233 97 208 97 l 304 97 q 337 105 329 97 q 344 138 344 113 l 344 269 l 472 269 l 472 122 q 342 -1 472 -1 l 194 -1 q 65 122 65 -1 l 65 747 q 194 869 65 869 l 342 869 q 472 747 472 869 l 472 597 m 213 -117 l 213 -69 l 331 -69 l 331 -126 q 190 -260 331 -260 l 111 -260 l 111 -162 l 167 -162 q 213 -117 213 -162 z "},"È":{"ha":476,"x_min":57,"x_max":450,"o":"m 199 101 l 450 101 l 450 0 l 72 0 l 72 869 l 440 869 l 440 768 l 199 768 l 199 500 l 399 500 l 399 399 l 199 399 l 199 101 m 310 913 l 203 913 l 57 1096 l 196 1096 l 310 913 z "},"É":{"ha":476,"x_min":72,"x_max":451,"o":"m 199 399 l 199 101 l 450 101 l 450 0 l 72 0 l 72 869 l 440 869 l 440 768 l 199 768 l 199 500 l 399 500 l 399 399 l 199 399 m 451 1096 l 306 913 l 199 913 l 313 1096 l 451 1096 z "},"Ê":{"ha":476,"x_min":56,"x_max":461,"o":"m 199 399 l 199 101 l 450 101 l 450 0 l 72 0 l 72 869 l 440 869 l 440 768 l 199 768 l 199 500 l 399 500 l 399 399 l 199 399 m 258 1025 l 186 913 l 56 913 l 189 1096 l 329 1096 l 461 913 l 332 913 l 258 1025 z "},"Ë":{"ha":492,"x_min":51,"x_max":456,"o":"m 315 1043 l 456 1043 l 456 913 l 315 913 l 315 1043 m 199 399 l 199 101 l 450 101 l 450 0 l 72 0 l 72 869 l 440 869 l 440 768 l 199 768 l 199 500 l 399 500 l 399 399 l 199 399 m 193 1043 l 193 913 l 51 913 l 51 1043 l 193 1043 z "},"Ì":{"ha":292,"x_min":-54,"x_max":208,"o":"m 85 1096 l 199 913 l 92 913 l -54 1096 l 85 1096 m 83 869 l 208 869 l 208 0 l 83 0 l 83 869 z "},"Í":{"ha":292,"x_min":83,"x_max":349,"o":"m 96 913 l 210 1096 l 349 1096 l 203 913 l 96 913 m 83 869 l 208 869 l 208 0 l 83 0 l 83 869 z "},"Î":{"ha":292,"x_min":-56,"x_max":350,"o":"m -56 913 l 78 1096 l 218 1096 l 350 913 l 221 913 l 147 1025 l 75 913 l -56 913 m 83 869 l 208 869 l 208 0 l 83 0 l 83 869 z "},"Ï":{"ha":292,"x_min":-58,"x_max":346,"o":"m 83 869 l 208 869 l 208 0 l 83 0 l 83 869 m 206 913 l 206 1043 l 346 1043 l 346 913 l 206 913 m -58 913 l -58 1043 l 83 1043 l 83 913 l -58 913 z "},"Ð":{"ha":572,"x_min":4,"x_max":507,"o":"m 75 869 l 378 869 q 507 747 507 869 l 507 122 q 378 0 507 0 l 75 0 l 75 389 l 4 389 l 4 488 l 75 488 l 75 869 m 381 139 l 381 731 q 372 763 381 756 q 339 771 364 771 l 201 771 l 201 488 l 306 488 l 306 389 l 201 389 l 201 99 l 339 99 q 372 106 364 99 q 381 139 381 114 z "},"Ñ":{"ha":569,"x_min":72,"x_max":497,"o":"m 363 914 q 281 940 326 914 q 222 967 235 967 q 199 935 199 967 l 199 914 l 90 914 l 90 944 q 115 1028 90 1000 q 199 1056 140 1056 l 211 1056 q 290 1029 246 1056 q 347 1003 333 1003 q 367 1009 361 1003 q 372 1036 372 1015 l 372 1056 l 479 1056 l 479 1024 q 456 942 479 969 q 372 914 432 914 l 363 914 m 382 869 l 497 869 l 497 0 l 371 0 l 188 628 l 188 0 l 72 0 l 72 869 l 204 869 l 382 260 l 382 869 z "},"Ò":{"ha":546,"x_min":60,"x_max":479,"o":"m 196 869 l 350 869 q 479 747 479 869 l 479 122 q 350 0 479 0 l 196 0 q 65 122 65 0 l 65 747 q 196 869 65 869 m 354 142 l 354 728 q 346 760 354 753 q 313 768 338 768 l 232 768 q 199 760 207 768 q 192 728 192 753 l 192 142 q 199 109 192 117 q 232 101 207 101 l 313 101 q 346 109 338 101 q 354 142 354 117 m 313 913 l 206 913 l 60 1096 l 199 1096 l 313 913 z "},"Ó":{"ha":546,"x_min":65,"x_max":479,"o":"m 196 869 l 350 869 q 479 747 479 869 l 479 122 q 350 0 479 0 l 196 0 q 65 122 65 0 l 65 747 q 196 869 65 869 m 354 142 l 354 728 q 346 760 354 753 q 313 768 338 768 l 232 768 q 199 760 207 768 q 192 728 192 753 l 192 142 q 199 109 192 117 q 232 101 207 101 l 313 101 q 346 109 338 101 q 354 142 354 117 m 464 1096 l 318 913 l 211 913 l 325 1096 l 464 1096 z "},"Ô":{"ha":546,"x_min":65,"x_max":479,"o":"m 196 869 l 350 869 q 479 747 479 869 l 479 122 q 350 0 479 0 l 196 0 q 65 122 65 0 l 65 747 q 196 869 65 869 m 354 142 l 354 728 q 346 760 354 753 q 313 768 338 768 l 232 768 q 199 760 207 768 q 192 728 192 753 l 192 142 q 199 109 192 117 q 232 101 207 101 l 313 101 q 346 109 338 101 q 354 142 354 117 m 271 1025 l 199 913 l 68 913 l 201 1096 l 342 1096 l 474 913 l 344 913 l 271 1025 z "},"Õ":{"ha":546,"x_min":65,"x_max":479,"o":"m 196 869 l 350 869 q 479 747 479 869 l 479 122 q 350 0 479 0 l 196 0 q 65 122 65 0 l 65 747 q 196 869 65 869 m 354 142 l 354 728 q 346 760 354 753 q 313 768 338 768 l 232 768 q 199 760 207 768 q 192 728 192 753 l 192 142 q 199 109 192 117 q 232 101 207 101 l 313 101 q 346 109 338 101 q 354 142 354 117 m 185 935 l 185 914 l 76 914 l 76 944 q 101 1028 76 1000 q 185 1056 126 1056 l 197 1056 q 276 1029 232 1056 q 333 1003 319 1003 q 353 1009 347 1003 q 358 1036 358 1015 l 358 1056 l 465 1056 l 465 1024 q 442 942 465 969 q 358 914 418 914 l 349 914 q 267 940 313 914 q 208 967 221 967 q 185 935 185 967 z "},"Ö":{"ha":540,"x_min":65,"x_max":479,"o":"m 196 869 l 350 869 q 479 747 479 869 l 479 122 q 350 0 479 0 l 196 0 q 65 122 65 0 l 65 747 q 196 869 65 869 m 354 142 l 354 728 q 346 760 354 753 q 313 768 338 768 l 232 768 q 199 760 207 768 q 192 728 192 753 l 192 142 q 199 109 192 117 q 232 101 207 101 l 313 101 q 346 109 338 101 q 354 142 354 117 m 213 1043 l 213 913 l 71 913 l 71 1043 l 213 1043 m 475 1043 l 475 913 l 335 913 l 335 1043 l 475 1043 z "},"×":{"ha":525,"x_min":33,"x_max":492,"o":"m 492 583 l 340 432 l 492 281 l 414 203 l 263 354 l 111 203 l 33 281 l 185 432 l 33 583 l 111 661 l 263 510 l 414 661 l 492 583 z "},"Ø":{"ha":557,"x_min":69,"x_max":489,"o":"m 485 747 l 485 122 q 356 0 485 0 l 201 0 q 156 4 176 0 l 143 -28 l 69 -28 l 94 40 q 71 122 71 71 l 71 747 q 201 869 71 869 l 356 869 q 403 864 385 869 l 415 897 l 489 897 l 463 828 q 485 747 485 800 m 193 735 l 193 303 l 363 754 q 321 775 357 775 l 235 775 q 201 767 208 775 q 193 735 193 758 m 364 136 l 364 563 l 196 113 q 235 94 201 94 l 321 94 q 356 103 347 94 q 364 136 364 111 z "},"Ù":{"ha":551,"x_min":68,"x_max":483,"o":"m 357 869 l 483 869 l 483 122 q 353 0 483 0 l 199 0 q 68 122 68 0 l 68 869 l 194 869 l 194 142 q 203 109 194 117 q 236 101 211 101 l 315 101 q 349 109 342 101 q 357 142 357 117 l 357 869 m 329 913 l 222 913 l 76 1096 l 215 1096 l 329 913 z "},"Ú":{"ha":551,"x_min":68,"x_max":483,"o":"m 357 869 l 483 869 l 483 122 q 353 0 483 0 l 199 0 q 68 122 68 0 l 68 869 l 194 869 l 194 142 q 203 109 194 117 q 236 101 211 101 l 315 101 q 349 109 342 101 q 357 142 357 117 l 357 869 m 472 1096 l 326 913 l 219 913 l 333 1096 l 472 1096 z "},"Û":{"ha":551,"x_min":68,"x_max":483,"o":"m 357 869 l 483 869 l 483 122 q 353 0 483 0 l 199 0 q 68 122 68 0 l 68 869 l 194 869 l 194 142 q 203 109 194 117 q 236 101 211 101 l 315 101 q 349 109 342 101 q 357 142 357 117 l 357 869 m 275 1025 l 203 913 l 72 913 l 206 1096 l 346 1096 l 478 913 l 349 913 l 275 1025 z "},"Ü":{"ha":551,"x_min":68,"x_max":483,"o":"m 357 869 l 483 869 l 483 122 q 353 0 483 0 l 199 0 q 68 122 68 0 l 68 869 l 194 869 l 194 142 q 203 109 194 117 q 236 101 211 101 l 315 101 q 349 109 342 101 q 357 142 357 117 l 357 869 m 215 1043 l 215 913 l 74 913 l 74 1043 l 215 1043 m 478 1043 l 478 913 l 338 913 l 338 1043 l 478 1043 z "},"Ý":{"ha":501,"x_min":6,"x_max":496,"o":"m 318 0 l 192 0 l 192 275 l 6 869 l 133 869 l 254 390 l 368 869 l 496 869 l 318 275 l 318 0 m 451 1096 l 306 913 l 199 913 l 313 1096 l 451 1096 z "},"Þ":{"ha":535,"x_min":74,"x_max":485,"o":"m 199 699 l 356 699 q 485 576 485 699 l 485 293 q 356 171 485 171 l 199 171 l 199 0 l 74 0 l 74 869 l 199 869 l 199 699 m 360 311 l 360 558 q 351 591 360 583 q 318 599 343 599 l 199 599 l 199 271 l 318 271 q 351 278 343 271 q 360 311 360 286 z "},"ß":{"ha":663,"x_min":63,"x_max":621,"o":"m 278 210 l 401 210 l 401 138 q 409 106 401 114 q 442 97 417 97 l 457 97 q 490 105 482 97 q 497 138 497 113 l 497 250 q 490 283 497 275 q 457 290 482 290 l 404 290 q 278 414 278 290 l 278 492 q 400 611 278 611 q 441 617 432 611 q 450 644 450 622 l 450 688 q 442 721 450 713 q 410 729 435 729 l 231 729 q 197 721 206 729 q 188 688 188 713 l 188 0 l 63 0 l 63 711 q 189 833 63 833 l 450 833 q 576 713 576 833 l 576 619 q 465 518 576 518 l 440 518 q 407 510 415 518 q 399 478 399 503 l 399 426 q 407 394 399 401 q 440 386 415 386 l 492 386 q 621 264 621 386 l 621 122 q 494 0 621 0 l 406 0 q 278 122 278 0 l 278 210 z "},"à":{"ha":500,"x_min":53,"x_max":439,"o":"m 314 678 l 439 678 l 439 0 l 314 0 l 314 54 q 228 0 296 0 l 178 0 q 53 122 53 0 l 53 554 q 178 678 53 678 l 228 678 q 314 624 296 678 l 314 678 m 219 101 l 268 101 q 303 113 293 101 q 314 150 314 124 l 314 528 q 303 565 314 554 q 268 576 293 576 l 219 576 q 186 569 194 576 q 178 536 178 561 l 178 142 q 186 109 178 117 q 219 101 194 101 m 340 721 l 233 721 l 88 904 l 226 904 l 340 721 z "},"á":{"ha":500,"x_min":53,"x_max":456,"o":"m 314 678 l 439 678 l 439 0 l 314 0 l 314 54 q 228 0 296 0 l 178 0 q 53 122 53 0 l 53 554 q 178 678 53 678 l 228 678 q 314 624 296 678 l 314 678 m 219 101 l 268 101 q 303 113 293 101 q 314 150 314 124 l 314 528 q 303 565 314 554 q 268 576 293 576 l 219 576 q 186 569 194 576 q 178 536 178 561 l 178 142 q 186 109 178 117 q 219 101 194 101 m 456 904 l 310 721 l 203 721 l 317 904 l 456 904 z "},"â":{"ha":500,"x_min":50,"x_max":456,"o":"m 314 678 l 439 678 l 439 0 l 314 0 l 314 54 q 228 0 296 0 l 178 0 q 53 122 53 0 l 53 554 q 178 678 53 678 l 228 678 q 314 624 296 678 l 314 678 m 219 101 l 268 101 q 303 113 293 101 q 314 150 314 124 l 314 528 q 303 565 314 554 q 268 576 293 576 l 219 576 q 186 569 194 576 q 178 536 178 561 l 178 142 q 186 109 178 117 q 219 101 194 101 m 253 833 l 181 721 l 50 721 l 183 904 l 324 904 l 456 721 l 326 721 l 253 833 z "},"ã":{"ha":500,"x_min":49,"x_max":439,"o":"m 314 678 l 439 678 l 439 0 l 314 0 l 314 54 q 228 0 296 0 l 178 0 q 53 122 53 0 l 53 554 q 178 678 53 678 l 228 678 q 314 624 296 678 l 314 678 m 219 101 l 268 101 q 303 113 293 101 q 314 150 314 124 l 314 528 q 303 565 314 554 q 268 576 293 576 l 219 576 q 186 569 194 576 q 178 536 178 561 l 178 142 q 186 109 178 117 q 219 101 194 101 m 157 763 l 157 742 l 49 742 l 49 772 q 74 856 49 828 q 157 883 99 883 l 169 883 q 248 857 204 883 q 306 831 292 831 q 325 837 319 831 q 331 864 331 843 l 331 883 l 438 883 l 438 851 q 414 769 438 797 q 331 742 390 742 l 321 742 q 239 768 285 742 q 181 794 193 794 q 157 763 157 794 z "},"ä":{"ha":500,"x_min":46,"x_max":450,"o":"m 310 882 l 450 882 l 450 751 l 310 751 l 310 882 m 314 678 l 439 678 l 439 0 l 314 0 l 314 54 q 228 0 296 0 l 178 0 q 53 122 53 0 l 53 554 q 178 678 53 678 l 228 678 q 314 624 296 678 l 314 678 m 219 101 l 268 101 q 303 113 293 101 q 314 150 314 124 l 314 528 q 303 565 314 554 q 268 576 293 576 l 219 576 q 186 569 194 576 q 178 536 178 561 l 178 142 q 186 109 178 117 q 219 101 194 101 m 188 882 l 188 751 l 46 751 l 46 882 l 188 882 z "},"å":{"ha":500,"x_min":53,"x_max":439,"o":"m 314 678 l 439 678 l 439 0 l 314 0 l 314 54 q 228 0 296 0 l 178 0 q 53 122 53 0 l 53 554 q 178 678 53 678 l 228 678 q 314 624 296 678 l 314 678 m 219 101 l 268 101 q 303 113 293 101 q 314 150 314 124 l 314 528 q 303 565 314 554 q 268 576 293 576 l 219 576 q 186 569 194 576 q 178 536 178 561 l 178 142 q 186 109 178 117 q 219 101 194 101 m 300 733 l 210 733 q 108 831 108 733 l 108 854 q 210 951 108 951 l 300 951 q 401 854 401 951 l 401 831 q 300 733 401 733 m 196 847 l 196 838 q 202 810 196 817 q 232 803 208 803 l 278 803 q 308 810 301 803 q 314 838 314 817 l 314 847 q 308 875 314 868 q 278 882 301 882 l 232 882 q 202 875 208 882 q 196 847 196 868 z "},"æ":{"ha":774,"x_min":60,"x_max":715,"o":"m 701 299 l 444 299 l 444 140 q 452 108 444 115 q 485 100 460 100 l 547 100 q 581 108 572 100 q 589 140 589 115 l 589 196 l 713 196 l 713 122 q 583 0 713 0 l 476 0 q 414 17 440 0 q 378 58 388 33 q 344 17 369 33 q 282 0 318 0 l 185 0 q 60 122 60 0 l 60 281 l 321 388 l 321 535 q 275 576 317 576 l 226 576 q 193 569 201 576 q 185 536 185 561 l 185 432 l 60 432 l 60 554 q 185 678 60 678 l 283 678 q 344 660 318 678 q 379 619 371 643 q 414 661 388 644 q 478 678 440 678 l 586 678 q 715 554 715 678 l 715 306 l 701 306 l 701 299 m 551 578 l 485 578 q 452 570 460 578 q 444 538 444 563 l 444 393 l 592 393 l 592 538 q 584 570 592 563 q 551 578 576 578 m 226 101 l 275 101 q 308 110 297 101 q 321 143 319 119 l 321 288 l 185 233 l 185 142 q 193 109 185 117 q 226 101 201 101 z "},"ç":{"ha":488,"x_min":53,"x_max":444,"o":"m 444 464 l 321 464 l 321 536 q 313 569 321 561 q 279 576 304 576 l 219 576 q 186 569 194 576 q 178 536 178 561 l 178 142 q 186 109 178 117 q 219 101 194 101 l 279 101 q 313 109 304 101 q 321 142 321 117 l 321 214 l 444 214 l 444 122 q 314 0 444 0 l 182 0 q 53 122 53 0 l 53 554 q 182 678 53 678 l 314 678 q 444 554 444 678 l 444 464 m 194 -117 l 194 -69 l 313 -69 l 313 -126 q 172 -260 313 -260 l 93 -260 l 93 -162 l 149 -162 q 194 -117 194 -162 z "},"è":{"ha":500,"x_min":49,"x_max":454,"o":"m 188 678 l 324 678 q 454 554 454 678 l 454 300 l 181 300 l 181 139 q 189 107 181 115 q 222 99 197 99 l 286 99 q 319 107 311 99 q 328 140 328 115 l 328 196 l 450 196 l 450 122 q 321 0 450 0 l 188 0 q 58 122 58 0 l 58 554 q 188 678 58 678 m 181 392 l 331 392 l 331 539 q 323 571 331 563 q 290 579 315 579 l 222 579 q 189 571 197 579 q 181 539 181 563 l 181 392 m 301 721 l 194 721 l 49 904 l 188 904 l 301 721 z "},"é":{"ha":500,"x_min":58,"x_max":454,"o":"m 188 678 l 324 678 q 454 554 454 678 l 454 300 l 181 300 l 181 139 q 189 107 181 115 q 222 99 197 99 l 286 99 q 319 107 311 99 q 328 140 328 115 l 328 196 l 450 196 l 450 122 q 321 0 450 0 l 188 0 q 58 122 58 0 l 58 554 q 188 678 58 678 m 181 392 l 331 392 l 331 539 q 323 571 331 563 q 290 579 315 579 l 222 579 q 189 571 197 579 q 181 539 181 563 l 181 392 m 454 904 l 308 721 l 201 721 l 315 904 l 454 904 z "},"ê":{"ha":497,"x_min":56,"x_max":461,"o":"m 188 678 l 324 678 q 454 554 454 678 l 454 300 l 181 300 l 181 139 q 189 107 181 115 q 222 99 197 99 l 286 99 q 319 107 311 99 q 328 140 328 115 l 328 196 l 450 196 l 450 122 q 321 0 450 0 l 188 0 q 58 122 58 0 l 58 554 q 188 678 58 678 m 181 392 l 331 392 l 331 539 q 323 571 331 563 q 290 579 315 579 l 222 579 q 189 571 197 579 q 181 539 181 563 l 181 392 m 258 833 l 186 721 l 56 721 l 189 904 l 329 904 l 461 721 l 332 721 l 258 833 z "},"ë":{"ha":497,"x_min":47,"x_max":454,"o":"m 188 678 l 324 678 q 454 554 454 678 l 454 300 l 181 300 l 181 139 q 189 107 181 115 q 222 99 197 99 l 286 99 q 319 107 311 99 q 328 140 328 115 l 328 196 l 450 196 l 450 122 q 321 0 450 0 l 188 0 q 58 122 58 0 l 58 554 q 188 678 58 678 m 181 392 l 331 392 l 331 539 q 323 571 331 563 q 290 579 315 579 l 222 579 q 189 571 197 579 q 181 539 181 563 l 181 392 m 189 882 l 189 751 l 47 751 l 47 882 l 189 882 m 451 882 l 451 751 l 311 751 l 311 882 l 451 882 z "},"ì":{"ha":247,"x_min":-75,"x_max":186,"o":"m 64 904 l 178 721 l 71 721 l -75 904 l 64 904 m 186 0 l 61 0 l 61 678 l 186 678 l 186 0 z "},"í":{"ha":247,"x_min":61,"x_max":318,"o":"m 65 721 l 179 904 l 318 904 l 172 721 l 65 721 m 186 0 l 61 0 l 61 678 l 186 678 l 186 0 z "},"î":{"ha":247,"x_min":-79,"x_max":326,"o":"m -79 721 l 54 904 l 194 904 l 326 721 l 197 721 l 124 833 l 51 721 l -79 721 m 186 0 l 61 0 l 61 678 l 186 678 l 186 0 z "},"ï":{"ha":247,"x_min":-79,"x_max":325,"o":"m 185 751 l 185 882 l 325 882 l 325 751 l 185 751 m -79 751 l -79 882 l 63 882 l 63 751 l -79 751 m 186 0 l 61 0 l 61 678 l 186 678 l 186 0 z "},"ð":{"ha":525,"x_min":53,"x_max":460,"o":"m 460 429 l 460 122 q 329 0 460 0 l 182 0 q 53 122 53 0 l 53 454 q 182 578 53 578 l 308 578 q 242 714 285 647 l 110 667 l 110 743 l 196 774 q 97 869 150 828 l 271 869 q 318 818 303 838 l 442 863 l 442 786 l 363 757 q 460 429 460 607 m 335 142 l 335 417 q 331 479 335 447 l 219 479 q 186 472 194 479 q 178 439 178 464 l 178 142 q 186 109 178 117 q 219 101 194 101 l 293 101 q 326 109 318 101 q 335 142 335 117 z "},"ñ":{"ha":507,"x_min":47,"x_max":447,"o":"m 272 678 l 321 678 q 447 554 447 678 l 447 0 l 322 0 l 322 536 q 314 569 322 561 q 281 576 306 576 l 232 576 q 197 565 207 576 q 186 528 186 554 l 186 0 l 61 0 l 61 678 l 186 678 l 186 624 q 272 678 204 678 m 156 763 l 156 742 l 47 742 l 47 772 q 72 856 47 828 q 156 883 97 883 l 168 883 q 247 857 203 883 q 304 831 290 831 q 324 837 318 831 q 329 864 329 843 l 329 883 l 436 883 l 436 851 q 413 769 436 797 q 329 742 389 742 l 319 742 q 238 768 283 742 q 179 794 192 794 q 156 763 156 794 z "},"ò":{"ha":514,"x_min":53,"x_max":460,"o":"m 182 678 l 331 678 q 460 554 460 678 l 460 122 q 331 0 460 0 l 182 0 q 54 122 54 0 l 54 554 q 182 678 54 678 m 336 140 l 336 538 q 328 571 336 563 q 294 579 319 579 l 218 579 q 185 571 193 579 q 178 538 178 563 l 178 140 q 185 107 178 115 q 218 99 193 99 l 294 99 q 328 107 319 99 q 336 140 336 115 m 306 721 l 199 721 l 53 904 l 192 904 l 306 721 z "},"ó":{"ha":514,"x_min":54,"x_max":460,"o":"m 182 678 l 331 678 q 460 554 460 678 l 460 122 q 331 0 460 0 l 182 0 q 54 122 54 0 l 54 554 q 182 678 54 678 m 336 140 l 336 538 q 328 571 336 563 q 294 579 319 579 l 218 579 q 185 571 193 579 q 178 538 178 563 l 178 140 q 185 107 178 115 q 218 99 193 99 l 294 99 q 328 107 319 99 q 336 140 336 115 m 453 904 l 307 721 l 200 721 l 314 904 l 453 904 z "},"ô":{"ha":514,"x_min":51,"x_max":460,"o":"m 182 678 l 331 678 q 460 554 460 678 l 460 122 q 331 0 460 0 l 182 0 q 54 122 54 0 l 54 554 q 182 678 54 678 m 336 140 l 336 538 q 328 571 336 563 q 294 579 319 579 l 218 579 q 185 571 193 579 q 178 538 178 563 l 178 140 q 185 107 178 115 q 218 99 193 99 l 294 99 q 328 107 319 99 q 336 140 336 115 m 254 833 l 182 721 l 51 721 l 185 904 l 325 904 l 457 721 l 328 721 l 254 833 z "},"õ":{"ha":514,"x_min":53,"x_max":460,"o":"m 182 678 l 331 678 q 460 554 460 678 l 460 122 q 331 0 460 0 l 182 0 q 54 122 54 0 l 54 554 q 182 678 54 678 m 336 140 l 336 538 q 328 571 336 563 q 294 579 319 579 l 218 579 q 185 571 193 579 q 178 538 178 563 l 178 140 q 185 107 178 115 q 218 99 193 99 l 294 99 q 328 107 319 99 q 336 140 336 115 m 161 763 l 161 742 l 53 742 l 53 772 q 78 856 53 828 q 161 883 103 883 l 174 883 q 252 857 208 883 q 310 831 296 831 q 329 837 324 831 q 335 864 335 843 l 335 883 l 442 883 l 442 851 q 418 769 442 797 q 335 742 394 742 l 325 742 q 243 768 289 742 q 185 794 197 794 q 161 763 161 794 z "},"ö":{"ha":514,"x_min":54,"x_max":460,"o":"m 182 678 l 331 678 q 460 554 460 678 l 460 122 q 331 0 460 0 l 182 0 q 54 122 54 0 l 54 554 q 182 678 54 678 m 336 140 l 336 538 q 328 571 336 563 q 294 579 319 579 l 218 579 q 185 571 193 579 q 178 538 178 563 l 178 140 q 185 107 178 115 q 218 99 193 99 l 294 99 q 328 107 319 99 q 336 140 336 115 m 196 882 l 196 751 l 54 751 l 54 882 l 196 882 m 458 882 l 458 751 l 318 751 l 318 882 l 458 882 z "},"÷":{"ha":572,"x_min":35,"x_max":538,"o":"m 224 294 l 349 294 l 349 174 l 224 174 l 224 294 m 224 696 l 349 696 l 349 574 l 224 574 l 224 696 m 35 383 l 35 486 l 538 486 l 538 383 l 35 383 z "},"ø":{"ha":525,"x_min":57,"x_max":468,"o":"m 465 554 l 465 122 q 336 0 465 0 l 188 0 q 146 4 164 0 l 131 -28 l 57 -28 l 86 36 q 60 122 60 67 l 60 554 q 188 678 60 678 l 336 678 q 379 674 358 678 l 393 706 l 468 706 l 439 642 q 465 554 465 611 m 179 544 l 179 239 l 335 579 q 303 586 328 586 l 222 586 q 188 578 196 586 q 179 544 179 571 m 344 133 l 344 438 l 189 99 q 222 92 197 92 l 303 92 q 337 99 329 92 q 344 133 344 107 z "},"ù":{"ha":507,"x_min":57,"x_max":446,"o":"m 321 678 l 446 678 l 446 0 l 321 0 l 321 54 q 235 0 303 0 l 185 0 q 60 122 60 0 l 60 678 l 185 678 l 185 142 q 193 109 185 117 q 226 101 201 101 l 275 101 q 310 113 300 101 q 321 150 321 124 l 321 678 m 310 721 l 203 721 l 57 904 l 196 904 l 310 721 z "},"ú":{"ha":507,"x_min":60,"x_max":451,"o":"m 321 678 l 446 678 l 446 0 l 321 0 l 321 54 q 235 0 303 0 l 185 0 q 60 122 60 0 l 60 678 l 185 678 l 185 142 q 193 109 185 117 q 226 101 201 101 l 275 101 q 310 113 300 101 q 321 150 321 124 l 321 678 m 451 904 l 306 721 l 199 721 l 313 904 l 451 904 z "},"û":{"ha":501,"x_min":44,"x_max":450,"o":"m 321 678 l 446 678 l 446 0 l 321 0 l 321 54 q 235 0 303 0 l 185 0 q 60 122 60 0 l 60 678 l 185 678 l 185 142 q 193 109 185 117 q 226 101 201 101 l 275 101 q 310 113 300 101 q 321 150 321 124 l 321 678 m 247 833 l 175 721 l 44 721 l 178 904 l 318 904 l 450 721 l 321 721 l 247 833 z "},"ü":{"ha":506,"x_min":44,"x_max":449,"o":"m 308 882 l 449 882 l 449 751 l 308 751 l 308 882 m 321 678 l 446 678 l 446 0 l 321 0 l 321 54 q 235 0 303 0 l 185 0 q 60 122 60 0 l 60 678 l 185 678 l 185 142 q 193 109 185 117 q 226 101 201 101 l 275 101 q 310 113 300 101 q 321 150 321 124 l 321 678 m 186 882 l 186 751 l 44 751 l 44 882 l 186 882 z "},"ý":{"ha":475,"x_min":11,"x_max":464,"o":"m 189 721 l 303 904 l 442 904 l 296 721 l 189 721 m 161 -192 l 78 -192 l 78 -92 l 135 -92 q 207 -46 194 -92 l 221 11 l 153 11 l 11 678 l 139 678 l 242 110 l 338 678 l 464 678 l 321 -65 q 161 -192 290 -192 z "},"þ":{"ha":503,"x_min":60,"x_max":446,"o":"m 271 678 l 319 678 q 446 554 446 678 l 446 122 q 319 0 446 0 l 271 0 q 185 50 203 0 l 185 -192 l 60 -192 l 60 929 l 183 929 l 183 624 q 271 678 201 678 m 319 142 l 319 536 q 312 569 319 561 q 279 576 304 576 l 229 576 q 185 528 185 576 l 185 150 q 229 101 185 101 l 279 101 q 312 109 304 101 q 319 142 319 117 z "},"ÿ":{"ha":485,"x_min":11,"x_max":464,"o":"m 161 -192 l 78 -192 l 78 -92 l 135 -92 q 207 -46 194 -92 l 221 11 l 153 11 l 11 678 l 139 678 l 242 110 l 338 678 l 464 678 l 321 -65 q 161 -192 290 -192 m 299 751 l 299 882 l 439 882 l 439 751 l 299 751 m 35 751 l 35 882 l 176 882 l 176 751 l 35 751 z "},"Ā":{"ha":535,"x_min":17,"x_max":518,"o":"m 392 0 l 357 201 l 174 201 l 142 0 l 17 0 l 171 869 l 353 869 l 518 0 l 392 0 m 189 303 l 340 303 l 261 761 l 189 303 m 447 1008 l 447 914 l 75 914 l 75 1008 l 447 1008 z "},"ā":{"ha":500,"x_min":53,"x_max":439,"o":"m 314 678 l 439 678 l 439 0 l 314 0 l 314 54 q 228 0 296 0 l 178 0 q 53 122 53 0 l 53 554 q 178 678 53 678 l 228 678 q 314 624 296 678 l 314 678 m 219 101 l 268 101 q 303 113 293 101 q 314 150 314 124 l 314 528 q 303 565 314 554 q 268 576 293 576 l 219 576 q 186 569 194 576 q 178 536 178 561 l 178 142 q 186 109 178 117 q 219 101 194 101 m 431 860 l 431 765 l 58 765 l 58 860 l 431 860 z "},"Ă":{"ha":535,"x_min":17,"x_max":518,"o":"m 392 0 l 357 201 l 174 201 l 142 0 l 17 0 l 171 869 l 353 869 l 518 0 l 392 0 m 189 303 l 340 303 l 261 761 l 189 303 m 332 913 l 192 913 q 61 1036 61 913 l 61 1096 l 178 1096 l 178 1043 q 186 1010 178 1018 q 219 1003 194 1003 l 304 1003 q 338 1010 329 1003 q 346 1043 346 1018 l 346 1096 l 463 1096 l 463 1036 q 332 913 463 913 z "},"ă":{"ha":500,"x_min":53,"x_max":454,"o":"m 338 904 l 454 904 l 454 844 q 324 721 454 721 l 183 721 q 53 844 53 721 l 53 904 l 169 904 l 169 851 q 178 819 169 826 q 211 811 186 811 l 296 811 q 329 819 321 811 q 338 851 338 826 l 338 904 m 314 678 l 439 678 l 439 0 l 314 0 l 314 54 q 228 0 296 0 l 178 0 q 53 122 53 0 l 53 554 q 178 678 53 678 l 228 678 q 314 624 296 678 l 314 678 m 219 101 l 268 101 q 303 113 293 101 q 314 150 314 124 l 314 528 q 303 565 314 554 q 268 576 293 576 l 219 576 q 186 569 194 576 q 178 536 178 561 l 178 142 q 186 109 178 117 q 219 101 194 101 z "},"Ą":{"ha":535,"x_min":17,"x_max":543,"o":"m 431 -225 l 543 -225 l 543 -312 l 408 -312 q 289 -196 289 -312 l 289 -150 q 408 -32 289 -32 l 419 -32 l 419 0 l 392 0 l 357 201 l 174 201 l 142 0 l 17 0 l 171 869 l 353 869 l 515 15 l 518 15 l 518 -119 l 431 -119 q 398 -126 406 -119 q 390 -157 390 -133 l 390 -187 q 398 -218 390 -211 q 431 -225 406 -225 m 189 303 l 340 303 l 261 761 l 189 303 z "},"ą":{"ha":500,"x_min":53,"x_max":464,"o":"m 351 -225 l 464 -225 l 464 -312 l 329 -312 q 210 -196 210 -312 l 210 -150 q 329 -32 210 -32 l 340 -32 l 340 0 l 314 0 l 314 54 q 228 0 296 0 l 178 0 q 53 122 53 0 l 53 554 q 178 678 53 678 l 228 678 q 314 624 296 678 l 314 678 l 439 678 l 439 -119 l 351 -119 q 319 -126 326 -119 q 311 -157 311 -133 l 311 -187 q 319 -218 311 -211 q 351 -225 326 -225 m 219 101 l 268 101 q 303 113 293 101 q 314 150 314 124 l 314 528 q 303 565 314 554 q 268 576 293 576 l 219 576 q 186 569 194 576 q 178 536 178 561 l 178 142 q 186 109 178 117 q 219 101 194 101 z "},"Ć":{"ha":524,"x_min":65,"x_max":472,"o":"m 472 597 l 344 597 l 344 731 q 337 763 344 756 q 304 771 329 771 l 233 771 q 200 763 208 771 q 192 731 192 756 l 192 138 q 200 105 192 113 q 233 97 208 97 l 304 97 q 337 105 329 97 q 344 138 344 113 l 344 269 l 472 269 l 472 122 q 342 -1 472 -1 l 194 -1 q 65 122 65 -1 l 65 747 q 194 869 65 869 l 342 869 q 472 747 472 869 l 472 597 m 467 1096 l 321 913 l 214 913 l 328 1096 l 467 1096 z "},"ć":{"ha":488,"x_min":53,"x_max":446,"o":"m 182 678 l 314 678 q 444 554 444 678 l 444 464 l 321 464 l 321 536 q 313 569 321 561 q 279 576 304 576 l 219 576 q 186 569 194 576 q 178 536 178 561 l 178 142 q 186 109 178 117 q 219 101 194 101 l 279 101 q 313 109 304 101 q 321 142 321 117 l 321 214 l 444 214 l 444 122 q 314 0 444 0 l 182 0 q 53 122 53 0 l 53 554 q 182 678 53 678 m 446 904 l 300 721 l 193 721 l 307 904 l 446 904 z "},"Č":{"ha":524,"x_min":65,"x_max":472,"o":"m 472 597 l 344 597 l 344 731 q 337 763 344 756 q 304 771 329 771 l 233 771 q 200 763 208 771 q 192 731 192 756 l 192 138 q 200 105 192 113 q 233 97 208 97 l 304 97 q 337 105 329 97 q 344 138 344 113 l 344 269 l 472 269 l 472 122 q 342 -1 472 -1 l 194 -1 q 65 122 65 -1 l 65 747 q 194 869 65 869 l 342 869 q 472 747 472 869 l 472 597 m 339 913 l 199 913 l 65 1096 l 196 1096 l 268 983 l 342 1096 l 471 1096 l 339 913 z "},"č":{"ha":488,"x_min":46,"x_max":451,"o":"m 182 678 l 314 678 q 444 554 444 678 l 444 464 l 321 464 l 321 536 q 313 569 321 561 q 279 576 304 576 l 219 576 q 186 569 194 576 q 178 536 178 561 l 178 142 q 186 109 178 117 q 219 101 194 101 l 279 101 q 313 109 304 101 q 321 142 321 117 l 321 214 l 444 214 l 444 122 q 314 0 444 0 l 182 0 q 53 122 53 0 l 53 554 q 182 678 53 678 m 319 721 l 179 721 l 46 904 l 176 904 l 249 792 l 322 904 l 451 904 l 319 721 z "},"Ď":{"ha":572,"x_min":75,"x_max":507,"o":"m 75 869 l 378 869 q 507 747 507 869 l 507 122 q 378 0 507 0 l 75 0 l 75 869 m 381 139 l 381 731 q 372 763 381 756 q 339 771 364 771 l 201 771 l 201 99 l 339 99 q 372 106 364 99 q 381 139 381 114 m 353 913 l 213 913 l 79 1096 l 210 1096 l 282 983 l 356 1096 l 485 1096 l 353 913 z "},"ď":{"ha":540,"x_min":53,"x_max":601,"o":"m 500 929 l 601 929 l 601 864 l 540 692 l 500 692 l 500 929 m 314 929 l 439 929 l 439 0 l 314 0 l 314 54 q 228 0 296 0 l 178 0 q 53 122 53 0 l 53 556 q 178 679 53 679 l 228 679 q 314 625 296 679 l 314 929 m 219 101 l 268 101 q 303 113 293 101 q 314 150 314 124 l 314 529 q 303 567 314 556 q 268 578 293 578 l 219 578 q 186 569 194 578 q 178 538 178 561 l 178 142 q 186 109 178 117 q 219 101 194 101 z "},"Đ":{"ha":575,"x_min":4,"x_max":507,"o":"m 75 869 l 378 869 q 507 747 507 869 l 507 122 q 378 0 507 0 l 75 0 l 75 389 l 4 389 l 4 488 l 75 488 l 75 869 m 381 142 l 381 728 q 372 760 381 753 q 339 768 364 768 l 201 768 l 201 488 l 306 488 l 306 389 l 201 389 l 201 101 l 339 101 q 372 109 364 101 q 381 142 381 117 z "},"đ":{"ha":507,"x_min":60,"x_max":510,"o":"m 510 843 l 510 757 l 446 757 l 446 0 l 321 0 l 321 54 q 235 0 303 0 l 185 0 q 60 122 60 0 l 60 554 q 185 678 60 678 l 235 678 q 321 624 303 678 l 321 757 l 210 757 l 210 843 l 321 843 l 321 929 l 446 929 l 446 843 l 510 843 m 226 101 l 275 101 q 310 113 300 101 q 321 150 321 124 l 321 528 q 310 565 321 554 q 275 576 300 576 l 226 576 q 193 569 201 576 q 185 536 185 561 l 185 142 q 193 109 185 117 q 226 101 201 101 z "},"Ē":{"ha":476,"x_min":68,"x_max":450,"o":"m 199 101 l 450 101 l 450 0 l 72 0 l 72 869 l 440 869 l 440 768 l 199 768 l 199 500 l 399 500 l 399 399 l 199 399 l 199 101 m 440 1026 l 440 932 l 68 932 l 68 1026 l 440 1026 z "},"ē":{"ha":500,"x_min":58,"x_max":454,"o":"m 188 678 l 324 678 q 454 554 454 678 l 454 300 l 181 300 l 181 139 q 189 107 181 115 q 222 99 197 99 l 286 99 q 319 107 311 99 q 328 140 328 115 l 328 196 l 450 196 l 450 122 q 321 0 450 0 l 188 0 q 58 122 58 0 l 58 554 q 188 678 58 678 m 181 392 l 331 392 l 331 539 q 323 571 331 563 q 290 579 315 579 l 222 579 q 189 571 197 579 q 181 539 181 563 l 181 392 m 435 860 l 435 765 l 63 765 l 63 860 l 435 860 z "},"Ė":{"ha":476,"x_min":72,"x_max":450,"o":"m 199 101 l 450 101 l 450 0 l 72 0 l 72 869 l 440 869 l 440 768 l 199 768 l 199 500 l 399 500 l 399 399 l 199 399 l 199 101 m 342 1046 l 342 913 l 193 913 l 193 1046 l 342 1046 z "},"ė":{"ha":500,"x_min":58,"x_max":454,"o":"m 188 678 l 324 678 q 454 554 454 678 l 454 300 l 181 300 l 181 139 q 189 107 181 115 q 222 99 197 99 l 286 99 q 319 107 311 99 q 328 140 328 115 l 328 196 l 450 196 l 450 122 q 321 0 450 0 l 188 0 q 58 122 58 0 l 58 554 q 188 678 58 678 m 181 392 l 331 392 l 331 539 q 323 571 331 563 q 290 579 315 579 l 222 579 q 189 571 197 579 q 181 539 181 563 l 181 392 m 335 879 l 335 746 l 186 746 l 186 879 l 335 879 z "},"Ę":{"ha":476,"x_min":72,"x_max":475,"o":"m 363 -225 l 475 -225 l 475 -312 l 340 -312 q 221 -196 221 -312 l 221 -150 q 340 -32 221 -32 l 351 -32 l 351 0 l 72 0 l 72 869 l 440 869 l 440 768 l 199 768 l 199 500 l 399 500 l 399 399 l 199 399 l 199 101 l 450 101 l 450 -119 l 363 -119 q 330 -126 338 -119 q 322 -157 322 -133 l 322 -187 q 330 -218 322 -211 q 363 -225 338 -225 z "},"ę":{"ha":500,"x_min":58,"x_max":454,"o":"m 188 678 l 324 678 q 454 554 454 678 l 454 300 l 181 300 l 181 139 q 189 107 181 115 q 222 99 197 99 l 286 99 q 319 107 311 99 q 328 140 328 115 l 328 196 l 450 196 l 450 122 q 321 0 450 0 l 314 0 l 314 -119 l 226 -119 q 194 -126 201 -119 q 186 -157 186 -133 l 186 -187 q 194 -218 186 -211 q 226 -225 201 -225 l 339 -225 l 339 -312 l 204 -312 q 85 -196 85 -312 l 85 -150 q 204 -32 85 -32 l 215 -32 l 215 0 l 188 0 q 58 122 58 0 l 58 554 q 188 678 58 678 m 181 392 l 331 392 l 331 539 q 323 571 331 563 q 290 579 315 579 l 222 579 q 189 571 197 579 q 181 539 181 563 l 181 392 z "},"Ě":{"ha":476,"x_min":53,"x_max":458,"o":"m 199 399 l 199 101 l 450 101 l 450 0 l 72 0 l 72 869 l 440 869 l 440 768 l 199 768 l 199 500 l 399 500 l 399 399 l 199 399 m 326 913 l 186 913 l 53 1096 l 183 1096 l 256 983 l 329 1096 l 458 1096 l 326 913 z "},"ě":{"ha":500,"x_min":53,"x_max":458,"o":"m 188 678 l 324 678 q 454 554 454 678 l 454 300 l 181 300 l 181 139 q 189 107 181 115 q 222 99 197 99 l 286 99 q 319 107 311 99 q 328 140 328 115 l 328 196 l 450 196 l 450 122 q 321 0 450 0 l 188 0 q 58 122 58 0 l 58 554 q 188 678 58 678 m 181 392 l 331 392 l 331 539 q 323 571 331 563 q 290 579 315 579 l 222 579 q 189 571 197 579 q 181 539 181 563 l 181 392 m 326 721 l 186 721 l 53 904 l 183 904 l 256 792 l 329 904 l 458 904 l 326 721 z "},"Ğ":{"ha":531,"x_min":65,"x_max":472,"o":"m 472 615 l 346 615 l 346 731 q 338 763 346 756 q 304 771 329 771 l 233 771 q 200 763 208 771 q 192 731 192 756 l 192 138 q 200 105 192 113 q 233 97 208 97 l 304 97 q 338 105 329 97 q 346 138 346 113 l 346 350 l 276 350 l 276 447 l 472 447 l 472 122 q 343 -1 472 -1 l 194 -1 q 65 122 65 -1 l 65 747 q 194 869 65 869 l 343 869 q 472 747 472 869 l 472 615 m 339 913 l 199 913 q 68 1036 68 913 l 68 1096 l 185 1096 l 185 1043 q 193 1010 185 1018 q 226 1003 201 1003 l 311 1003 q 344 1010 336 1003 q 353 1043 353 1018 l 353 1096 l 469 1096 l 469 1036 q 339 913 469 913 z "},"ğ":{"ha":500,"x_min":49,"x_max":450,"o":"m 333 904 l 450 904 l 450 844 q 319 721 450 721 l 179 721 q 49 844 49 721 l 49 904 l 165 904 l 165 851 q 174 819 165 826 q 207 811 182 811 l 292 811 q 325 819 317 811 q 333 851 333 826 l 333 904 m 314 678 l 439 678 l 439 -69 q 308 -192 439 -192 l 76 -192 l 76 -93 l 272 -93 q 306 -85 297 -93 q 314 -53 314 -76 l 314 63 q 228 8 296 8 l 178 8 q 53 132 53 8 l 53 554 q 178 678 53 678 l 228 678 q 314 624 296 678 l 314 678 m 219 110 l 268 110 q 303 121 293 110 q 314 158 314 132 l 314 528 q 303 565 314 554 q 268 576 293 576 l 219 576 q 186 569 194 576 q 178 536 178 561 l 178 150 q 186 118 178 126 q 219 110 194 110 z "},"Ģ":{"ha":531,"x_min":65,"x_max":472,"o":"m 472 615 l 346 615 l 346 731 q 338 763 346 756 q 304 771 329 771 l 233 771 q 200 763 208 771 q 192 731 192 756 l 192 138 q 200 105 192 113 q 233 97 208 97 l 304 97 q 338 105 329 97 q 346 138 346 113 l 346 350 l 276 350 l 276 447 l 472 447 l 472 122 q 343 -1 472 -1 l 194 -1 q 65 122 65 -1 l 65 747 q 194 869 65 869 l 343 869 q 472 747 472 869 l 472 615 m 206 -318 l 206 -69 l 343 -69 l 343 -137 l 251 -318 l 206 -318 z "},"ģ":{"ha":500,"x_min":53,"x_max":439,"o":"m 314 678 l 439 678 l 439 -69 q 308 -192 439 -192 l 76 -192 l 76 -93 l 272 -93 q 306 -85 297 -93 q 314 -53 314 -76 l 314 63 q 228 8 296 8 l 178 8 q 53 132 53 8 l 53 554 q 178 678 53 678 l 228 678 q 314 624 296 678 l 314 678 m 219 110 l 268 110 q 303 121 293 110 q 314 158 314 132 l 314 528 q 303 565 314 554 q 268 576 293 576 l 219 576 q 186 569 194 576 q 178 536 178 561 l 178 150 q 186 118 178 126 q 219 110 194 110 m 328 971 l 328 721 l 192 721 l 192 789 l 283 971 l 328 971 z "},"Ī":{"ha":292,"x_min":-42,"x_max":331,"o":"m -42 932 l -42 1026 l 331 1026 l 331 932 l -42 932 m 83 869 l 208 869 l 208 0 l 83 0 l 83 869 z "},"ī":{"ha":247,"x_min":-62,"x_max":310,"o":"m -62 765 l -62 860 l 310 860 l 310 765 l -62 765 m 186 0 l 61 0 l 61 678 l 186 678 l 186 0 z "},"Į":{"ha":292,"x_min":-21,"x_max":233,"o":"m 121 -225 l 233 -225 l 233 -312 l 99 -312 q -21 -196 -21 -312 l -21 -150 q 99 -32 -21 -32 l 110 -32 l 110 0 l 83 0 l 83 869 l 208 869 l 208 -119 l 121 -119 q 88 -126 96 -119 q 81 -157 81 -133 l 81 -187 q 88 -218 81 -211 q 121 -225 96 -225 z "},"į":{"ha":247,"x_min":-43,"x_max":211,"o":"m 99 -225 l 211 -225 l 211 -312 l 76 -312 q -43 -196 -43 -312 l -43 -150 q 76 -32 -43 -32 l 88 -32 l 88 0 l 61 0 l 61 678 l 186 678 l 186 -119 l 99 -119 q 66 -126 74 -119 q 58 -157 58 -133 l 58 -187 q 66 -218 58 -211 q 99 -225 74 -225 m 189 931 l 189 807 l 58 807 l 58 931 l 189 931 z "},"İ":{"ha":292,"x_min":71,"x_max":219,"o":"m 71 931 l 71 1064 l 219 1064 l 219 931 l 71 931 m 83 869 l 208 869 l 208 0 l 83 0 l 83 869 z "},"ı":{"ha":247,"x_min":61,"x_max":186,"o":"m 186 0 l 61 0 l 61 678 l 186 678 l 186 0 z "},"Ķ":{"ha":533,"x_min":72,"x_max":519,"o":"m 519 869 l 336 433 l 518 0 l 382 0 l 206 433 l 385 869 l 519 869 m 206 -318 l 206 -69 l 342 -69 l 342 -137 l 250 -318 l 206 -318 m 72 0 l 72 869 l 197 869 l 197 0 l 72 0 z "},"ķ":{"ha":496,"x_min":61,"x_max":492,"o":"m 492 678 l 336 354 l 492 0 l 358 0 l 208 354 l 358 678 l 492 678 m 190 -318 l 190 -69 l 326 -69 l 326 -137 l 235 -318 l 190 -318 m 61 0 l 61 929 l 186 929 l 186 0 l 61 0 z "},"Ĺ":{"ha":418,"x_min":72,"x_max":413,"o":"m 197 101 l 413 101 l 413 0 l 72 0 l 72 869 l 197 869 l 197 101 m 335 1096 l 189 913 l 82 913 l 196 1096 l 335 1096 z "},"ĺ":{"ha":247,"x_min":61,"x_max":322,"o":"m 186 0 l 61 0 l 61 929 l 186 929 l 186 0 m 69 972 l 183 1156 l 322 1156 l 176 972 l 69 972 z "},"Ļ":{"ha":418,"x_min":72,"x_max":413,"o":"m 197 101 l 413 101 l 413 0 l 72 0 l 72 869 l 197 869 l 197 101 m 172 -318 l 172 -69 l 308 -69 l 308 -137 l 217 -318 l 172 -318 z "},"ļ":{"ha":247,"x_min":56,"x_max":192,"o":"m 56 -69 l 192 -69 l 192 -137 l 100 -318 l 56 -318 l 56 -69 m 186 0 l 61 0 l 61 929 l 186 929 l 186 0 z "},"Ľ":{"ha":418,"x_min":-71,"x_max":413,"o":"m 197 101 l 413 101 l 413 0 l 72 0 l 72 869 l 197 869 l 197 101 m 335 1103 l 203 919 l 63 919 l -71 1103 l 60 1103 l 132 990 l 206 1103 l 335 1103 z "},"ľ":{"ha":292,"x_min":61,"x_max":349,"o":"m 186 0 l 61 0 l 61 929 l 186 929 l 186 0 m 247 929 l 349 929 l 349 864 l 289 692 l 247 692 l 247 929 z "},"Ł":{"ha":429,"x_min":-31,"x_max":415,"o":"m 200 101 l 415 101 l 415 0 l 75 0 l 75 351 l -31 301 l -31 400 l 75 449 l 75 869 l 200 869 l 200 507 l 339 572 l 339 475 l 200 410 l 200 101 z "},"ł":{"ha":261,"x_min":-47,"x_max":324,"o":"m 193 0 l 68 0 l 68 422 l -47 368 l -47 467 l 68 521 l 68 929 l 193 929 l 193 578 l 324 639 l 324 542 l 193 481 l 193 0 z "},"Ń":{"ha":569,"x_min":72,"x_max":497,"o":"m 382 869 l 497 869 l 497 0 l 371 0 l 188 628 l 188 0 l 72 0 l 72 869 l 204 869 l 382 260 l 382 869 m 232 913 l 346 1096 l 485 1096 l 339 913 l 232 913 z "},"ń":{"ha":507,"x_min":61,"x_max":449,"o":"m 272 678 l 321 678 q 447 554 447 678 l 447 0 l 322 0 l 322 536 q 314 569 322 561 q 281 576 306 576 l 232 576 q 197 565 207 576 q 186 528 186 554 l 186 0 l 61 0 l 61 678 l 186 678 l 186 624 q 272 678 204 678 m 449 904 l 303 721 l 196 721 l 310 904 l 449 904 z "},"Ņ":{"ha":569,"x_min":72,"x_max":497,"o":"m 204 -69 l 340 -69 l 340 -137 l 249 -318 l 204 -318 l 204 -69 m 382 869 l 497 869 l 497 0 l 371 0 l 188 628 l 188 0 l 72 0 l 72 869 l 204 869 l 382 260 l 382 869 z "},"ņ":{"ha":507,"x_min":61,"x_max":447,"o":"m 272 678 l 321 678 q 447 554 447 678 l 447 0 l 322 0 l 322 536 q 314 569 322 561 q 281 576 306 576 l 232 576 q 197 565 207 576 q 186 528 186 554 l 186 0 l 61 0 l 61 678 l 186 678 l 186 624 q 272 678 204 678 m 181 -318 l 181 -69 l 318 -69 l 318 -137 l 226 -318 l 181 -318 z "},"Ň":{"ha":569,"x_min":72,"x_max":497,"o":"m 382 869 l 497 869 l 497 0 l 371 0 l 188 628 l 188 0 l 72 0 l 72 869 l 204 869 l 382 260 l 382 869 m 218 913 l 85 1096 l 215 1096 l 288 983 l 361 1096 l 490 1096 l 358 913 l 218 913 z "},"ň":{"ha":507,"x_min":40,"x_max":447,"o":"m 272 678 l 321 678 q 447 554 447 678 l 447 0 l 322 0 l 322 536 q 314 569 322 561 q 281 576 306 576 l 232 576 q 197 565 207 576 q 186 528 186 554 l 186 0 l 61 0 l 61 678 l 186 678 l 186 624 q 272 678 204 678 m 314 721 l 174 721 l 40 904 l 171 904 l 243 792 l 317 904 l 446 904 l 314 721 z "},"Ō":{"ha":546,"x_min":65,"x_max":479,"o":"m 196 869 l 350 869 q 479 747 479 869 l 479 122 q 350 0 479 0 l 196 0 q 65 122 65 0 l 65 747 q 196 869 65 869 m 354 142 l 354 728 q 346 760 354 753 q 313 768 338 768 l 232 768 q 199 760 207 768 q 192 728 192 753 l 192 142 q 199 109 192 117 q 232 101 207 101 l 313 101 q 346 109 338 101 q 354 142 354 117 m 458 1008 l 458 914 l 86 914 l 86 1008 l 458 1008 z "},"ō":{"ha":514,"x_min":54,"x_max":460,"o":"m 182 678 l 331 678 q 460 554 460 678 l 460 122 q 331 0 460 0 l 182 0 q 54 122 54 0 l 54 554 q 182 678 54 678 m 336 140 l 336 538 q 328 571 336 563 q 294 579 319 579 l 218 579 q 185 571 193 579 q 178 538 178 563 l 178 140 q 185 107 178 115 q 218 99 193 99 l 294 99 q 328 107 319 99 q 336 140 336 115 m 439 860 l 439 765 l 67 765 l 67 860 l 439 860 z "},"Ő":{"ha":540,"x_min":65,"x_max":547,"o":"m 196 869 l 350 869 q 479 747 479 869 l 479 122 q 350 0 479 0 l 196 0 q 65 122 65 0 l 65 747 q 196 869 65 869 m 354 142 l 354 728 q 346 760 354 753 q 313 768 338 768 l 232 768 q 199 760 207 768 q 192 728 192 753 l 192 142 q 199 109 192 117 q 232 101 207 101 l 313 101 q 346 109 338 101 q 354 142 354 117 m 382 1096 l 235 913 l 143 913 l 257 1096 l 382 1096 m 400 913 l 308 913 l 422 1096 l 547 1096 l 400 913 z "},"ő":{"ha":514,"x_min":54,"x_max":531,"o":"m 182 678 l 331 678 q 460 554 460 678 l 460 122 q 331 0 460 0 l 182 0 q 54 122 54 0 l 54 554 q 182 678 54 678 m 336 140 l 336 538 q 328 571 336 563 q 294 579 319 579 l 218 579 q 185 571 193 579 q 178 538 178 563 l 178 140 q 185 107 178 115 q 218 99 193 99 l 294 99 q 328 107 319 99 q 336 140 336 115 m 365 904 l 218 721 l 126 721 l 240 904 l 365 904 m 383 721 l 292 721 l 406 904 l 531 904 l 383 721 z "},"Œ":{"ha":783,"x_min":74,"x_max":746,"o":"m 494 99 l 746 99 l 746 0 l 393 0 l 393 26 q 311 0 364 0 l 203 0 q 74 122 74 0 l 74 747 q 203 869 74 869 l 310 869 q 393 843 363 869 l 393 869 l 736 869 l 736 771 l 494 771 l 494 499 l 694 499 l 694 400 l 494 400 l 494 99 m 363 139 l 363 731 q 354 763 363 756 q 321 771 346 771 l 240 771 q 208 763 215 771 q 200 731 200 756 l 200 139 q 208 106 200 114 q 240 99 215 99 l 321 99 q 354 106 346 99 q 363 139 363 114 z "},"œ":{"ha":811,"x_min":60,"x_max":715,"o":"m 478 678 l 586 678 q 715 554 715 678 l 715 299 l 444 299 l 444 140 q 452 108 444 115 q 485 100 460 100 l 547 100 q 581 108 572 100 q 589 140 589 115 l 589 196 l 713 196 l 713 122 q 583 0 713 0 l 476 0 q 414 17 440 0 q 378 58 388 33 q 344 17 369 33 q 282 0 318 0 l 185 0 q 60 122 60 0 l 60 554 q 185 678 60 678 l 283 678 q 344 660 318 678 q 379 619 371 643 q 414 661 388 644 q 478 678 440 678 m 275 576 l 226 576 q 193 569 201 576 q 185 536 185 561 l 185 142 q 193 109 185 117 q 226 101 201 101 l 275 101 q 308 110 297 101 q 321 143 319 119 l 321 535 q 275 576 317 576 m 444 393 l 592 393 l 592 538 q 584 570 592 563 q 551 578 576 578 l 485 578 q 452 570 460 578 q 444 538 444 563 l 444 393 z "},"Ŕ":{"ha":550,"x_min":72,"x_max":531,"o":"m 197 351 l 197 0 l 72 0 l 72 869 l 357 869 q 486 747 486 869 l 486 475 q 393 354 486 369 l 531 0 l 396 0 l 265 351 l 197 351 m 197 768 l 197 451 l 319 451 q 353 459 344 451 q 361 492 361 467 l 361 728 q 353 760 361 753 q 319 768 344 768 l 197 768 m 467 1096 l 321 913 l 214 913 l 328 1096 l 467 1096 z "},"ŕ":{"ha":331,"x_min":61,"x_max":396,"o":"m 186 678 l 186 594 q 226 655 197 631 q 296 679 254 679 l 324 679 l 324 571 l 274 571 q 186 468 186 571 l 186 0 l 61 0 l 61 678 l 186 678 m 396 904 l 250 721 l 143 721 l 257 904 l 396 904 z "},"Ŗ":{"ha":550,"x_min":72,"x_max":531,"o":"m 197 351 l 197 0 l 72 0 l 72 869 l 357 869 q 486 747 486 869 l 486 475 q 393 354 486 369 l 531 0 l 396 0 l 265 351 l 197 351 m 197 768 l 197 451 l 319 451 q 353 459 344 451 q 361 492 361 467 l 361 728 q 353 760 361 753 q 319 768 344 768 l 197 768 m 210 -318 l 210 -69 l 347 -69 l 347 -137 l 256 -318 l 210 -318 z "},"ŗ":{"ha":331,"x_min":58,"x_max":324,"o":"m 296 679 l 324 679 l 324 571 l 274 571 q 186 468 186 571 l 186 0 l 61 0 l 61 678 l 186 678 l 186 594 q 226 655 197 631 q 296 679 254 679 m 58 -318 l 58 -69 l 194 -69 l 194 -137 l 103 -318 l 58 -318 z "},"Ř":{"ha":550,"x_min":69,"x_max":531,"o":"m 197 351 l 197 0 l 72 0 l 72 869 l 357 869 q 486 747 486 869 l 486 475 q 393 354 486 369 l 531 0 l 396 0 l 265 351 l 197 351 m 197 768 l 197 451 l 319 451 q 353 459 344 451 q 361 492 361 467 l 361 728 q 353 760 361 753 q 319 768 344 768 l 197 768 m 343 913 l 203 913 l 69 1096 l 200 1096 l 272 983 l 346 1096 l 475 1096 l 343 913 z "},"ř":{"ha":331,"x_min":-11,"x_max":394,"o":"m 186 678 l 186 594 q 226 655 197 631 q 296 679 254 679 l 324 679 l 324 571 l 274 571 q 186 468 186 571 l 186 0 l 61 0 l 61 678 l 186 678 m 263 721 l 122 721 l -11 904 l 119 904 l 192 792 l 265 904 l 394 904 l 263 721 z "},"Ś":{"ha":501,"x_min":53,"x_max":450,"o":"m 322 142 l 322 354 q 315 387 322 379 q 282 394 307 394 l 179 394 q 53 518 53 394 l 53 747 q 182 869 53 869 l 318 869 q 447 747 447 869 l 447 619 l 321 619 l 321 728 q 313 760 321 753 q 279 768 304 768 l 221 768 q 188 760 196 768 q 179 728 179 753 l 179 535 q 188 502 179 510 q 221 494 196 494 l 322 494 q 450 372 450 494 l 450 122 q 319 0 450 0 l 185 0 q 56 122 56 0 l 56 250 l 182 250 l 182 142 q 190 109 182 117 q 224 101 199 101 l 282 101 q 315 109 307 101 q 322 142 322 117 m 197 913 l 311 1096 l 450 1096 l 304 913 l 197 913 z "},"ś":{"ha":456,"x_min":46,"x_max":438,"o":"m 288 136 l 288 249 q 279 281 288 274 q 246 289 271 289 l 175 289 q 46 411 46 289 l 46 554 q 175 678 46 678 l 276 678 q 407 554 407 678 l 407 489 l 285 489 l 285 542 q 276 574 285 567 q 243 582 268 582 l 210 582 q 176 574 185 582 q 168 542 168 567 l 168 425 q 176 392 168 400 q 210 385 185 385 l 282 385 q 410 261 410 385 l 410 122 q 281 0 410 0 l 178 0 q 49 122 49 0 l 49 189 l 171 189 l 171 136 q 179 103 171 111 q 213 96 188 96 l 246 96 q 279 103 271 96 q 288 136 288 111 m 185 721 l 299 904 l 438 904 l 292 721 l 185 721 z "},"Ş":{"ha":501,"x_min":53,"x_max":450,"o":"m 185 -69 l 321 -69 l 321 -137 l 229 -318 l 185 -318 l 185 -69 m 322 142 l 322 354 q 315 387 322 379 q 282 394 307 394 l 179 394 q 53 518 53 394 l 53 747 q 182 869 53 869 l 318 869 q 447 747 447 869 l 447 619 l 321 619 l 321 728 q 313 760 321 753 q 279 768 304 768 l 221 768 q 188 760 196 768 q 179 728 179 753 l 179 535 q 188 502 179 510 q 221 494 196 494 l 322 494 q 450 372 450 494 l 450 122 q 319 0 450 0 l 185 0 q 56 122 56 0 l 56 250 l 182 250 l 182 142 q 190 109 182 117 q 224 101 199 101 l 282 101 q 315 109 307 101 q 322 142 322 117 z "},"ş":{"ha":456,"x_min":46,"x_max":410,"o":"m 158 -69 l 296 -69 l 296 -137 l 204 -318 l 158 -318 l 158 -69 m 288 136 l 288 249 q 279 281 288 274 q 246 289 271 289 l 175 289 q 46 411 46 289 l 46 554 q 175 678 46 678 l 276 678 q 407 554 407 678 l 407 489 l 285 489 l 285 542 q 276 574 285 567 q 243 582 268 582 l 210 582 q 176 574 185 582 q 168 542 168 567 l 168 425 q 176 392 168 400 q 210 385 185 385 l 282 385 q 410 261 410 385 l 410 122 q 281 0 410 0 l 178 0 q 49 122 49 0 l 49 189 l 171 189 l 171 136 q 179 103 171 111 q 213 96 188 96 l 246 96 q 279 103 271 96 q 288 136 288 111 z "},"Š":{"ha":501,"x_min":49,"x_max":454,"o":"m 322 142 l 322 354 q 315 387 322 379 q 282 394 307 394 l 179 394 q 53 518 53 394 l 53 747 q 182 869 53 869 l 318 869 q 447 747 447 869 l 447 619 l 321 619 l 321 728 q 313 760 321 753 q 279 768 304 768 l 221 768 q 188 760 196 768 q 179 728 179 753 l 179 535 q 188 502 179 510 q 221 494 196 494 l 322 494 q 450 372 450 494 l 450 122 q 319 0 450 0 l 185 0 q 56 122 56 0 l 56 250 l 182 250 l 182 142 q 190 109 182 117 q 224 101 199 101 l 282 101 q 315 109 307 101 q 322 142 322 117 m 182 913 l 49 1096 l 179 1096 l 251 983 l 325 1096 l 454 1096 l 322 913 l 182 913 z "},"š":{"ha":456,"x_min":22,"x_max":428,"o":"m 288 136 l 288 249 q 279 281 288 274 q 246 289 271 289 l 175 289 q 46 411 46 289 l 46 554 q 175 678 46 678 l 276 678 q 407 554 407 678 l 407 489 l 285 489 l 285 542 q 276 574 285 567 q 243 582 268 582 l 210 582 q 176 574 185 582 q 168 542 168 567 l 168 425 q 176 392 168 400 q 210 385 185 385 l 282 385 q 410 261 410 385 l 410 122 q 281 0 410 0 l 178 0 q 49 122 49 0 l 49 189 l 171 189 l 171 136 q 179 103 171 111 q 213 96 188 96 l 246 96 q 279 103 271 96 q 288 136 288 111 m 156 721 l 22 904 l 153 904 l 225 792 l 299 904 l 428 904 l 296 721 l 156 721 z "},"Ţ":{"ha":431,"x_min":7,"x_max":424,"o":"m 7 869 l 424 869 l 424 768 l 278 768 l 278 0 l 153 0 l 153 768 l 7 768 l 7 869 m 146 -318 l 146 -69 l 282 -69 l 282 -137 l 190 -318 l 146 -318 z "},"ţ":{"ha":431,"x_min":7,"x_max":424,"o":"m 7 869 l 424 869 l 424 768 l 278 768 l 278 0 l 153 0 l 153 768 l 7 768 l 7 869 m 149 -318 l 149 -69 l 285 -69 l 285 -137 l 193 -318 l 149 -318 z "},"Ť":{"ha":431,"x_min":7,"x_max":424,"o":"m 424 869 l 424 768 l 278 768 l 278 0 l 153 0 l 153 768 l 7 768 l 7 869 l 424 869 m 286 913 l 146 913 l 13 1096 l 143 1096 l 215 983 l 289 1096 l 418 1096 l 286 913 z "},"ť":{"ha":304,"x_min":7,"x_max":374,"o":"m 256 929 l 374 929 l 374 864 l 296 719 l 256 719 l 256 929 m 197 793 l 197 678 l 290 678 l 290 576 l 197 576 l 197 147 q 205 115 197 122 q 238 107 213 107 l 290 107 l 290 0 l 201 0 q 71 122 71 0 l 71 576 l 7 576 l 7 678 l 71 678 l 71 793 l 197 793 z "},"Ū":{"ha":551,"x_min":68,"x_max":483,"o":"m 357 869 l 483 869 l 483 122 q 353 0 483 0 l 199 0 q 68 122 68 0 l 68 869 l 194 869 l 194 142 q 203 109 194 117 q 236 101 211 101 l 315 101 q 349 109 342 101 q 357 142 357 117 l 357 869 m 463 1008 l 463 914 l 90 914 l 90 1008 l 463 1008 z "},"ū":{"ha":507,"x_min":60,"x_max":446,"o":"m 321 678 l 446 678 l 446 0 l 321 0 l 321 54 q 235 0 303 0 l 185 0 q 60 122 60 0 l 60 678 l 185 678 l 185 142 q 193 109 185 117 q 226 101 201 101 l 275 101 q 310 113 300 101 q 321 150 321 124 l 321 678 m 436 860 l 436 765 l 64 765 l 64 860 l 436 860 z "},"Ů":{"ha":551,"x_min":68,"x_max":483,"o":"m 357 869 l 483 869 l 483 122 q 353 0 483 0 l 199 0 q 68 122 68 0 l 68 869 l 194 869 l 194 142 q 203 109 194 117 q 236 101 211 101 l 315 101 q 349 109 342 101 q 357 142 357 117 l 357 869 m 319 914 l 229 914 q 128 1011 128 914 l 128 1035 q 229 1132 128 1132 l 319 1132 q 421 1035 421 1132 l 421 1011 q 319 914 421 914 m 215 1028 l 215 1018 q 222 990 215 997 q 251 983 228 983 l 297 983 q 327 990 321 983 q 333 1018 333 997 l 333 1028 q 327 1056 333 1049 q 297 1063 321 1063 l 251 1063 q 222 1056 228 1063 q 215 1028 215 1049 z "},"ů":{"ha":507,"x_min":60,"x_max":446,"o":"m 321 678 l 446 678 l 446 0 l 321 0 l 321 54 q 235 0 303 0 l 185 0 q 60 122 60 0 l 60 678 l 185 678 l 185 142 q 193 109 185 117 q 226 101 201 101 l 275 101 q 310 113 300 101 q 321 150 321 124 l 321 678 m 301 731 l 211 731 q 110 828 110 731 l 110 851 q 211 949 110 949 l 301 949 q 403 851 403 949 l 403 828 q 301 731 403 731 m 197 844 l 197 835 q 203 807 197 814 q 233 800 210 800 l 279 800 q 309 807 303 800 q 315 835 315 814 l 315 844 q 309 872 315 865 q 279 879 303 879 l 233 879 q 203 872 210 879 q 197 844 197 865 z "},"Ű":{"ha":546,"x_min":68,"x_max":544,"o":"m 357 142 l 357 869 l 483 869 l 483 122 q 353 0 483 0 l 199 0 q 68 122 68 0 l 68 869 l 194 869 l 194 142 q 203 109 194 117 q 236 101 211 101 l 315 101 q 349 109 342 101 q 357 142 357 117 m 379 1096 l 232 913 l 140 913 l 254 1096 l 379 1096 m 397 913 l 306 913 l 419 1096 l 544 1096 l 397 913 z "},"ű":{"ha":507,"x_min":60,"x_max":511,"o":"m 321 678 l 446 678 l 446 0 l 321 0 l 321 54 q 235 0 303 0 l 185 0 q 60 122 60 0 l 60 678 l 185 678 l 185 142 q 193 109 185 117 q 226 101 201 101 l 275 101 q 310 113 300 101 q 321 150 321 124 l 321 678 m 346 904 l 199 721 l 107 721 l 221 904 l 346 904 m 364 721 l 272 721 l 386 904 l 511 904 l 364 721 z "},"Ų":{"ha":551,"x_min":68,"x_max":483,"o":"m 357 869 l 483 869 l 483 122 q 353 0 483 0 l 336 0 l 336 -119 l 249 -119 q 216 -126 224 -119 q 208 -157 208 -133 l 208 -187 q 216 -218 208 -211 q 249 -225 224 -225 l 361 -225 l 361 -312 l 226 -312 q 107 -196 107 -312 l 107 -150 q 226 -32 107 -32 l 238 -32 l 238 0 l 199 0 q 68 122 68 0 l 68 869 l 194 869 l 194 142 q 203 109 194 117 q 236 101 211 101 l 315 101 q 349 109 342 101 q 357 142 357 117 l 357 869 z "},"ų":{"ha":507,"x_min":60,"x_max":471,"o":"m 358 -225 l 471 -225 l 471 -312 l 336 -312 q 217 -196 217 -312 l 217 -150 q 336 -32 217 -32 l 347 -32 l 347 0 l 321 0 l 321 54 q 235 0 303 0 l 185 0 q 60 122 60 0 l 60 678 l 185 678 l 185 142 q 193 109 185 117 q 226 101 201 101 l 275 101 q 310 113 300 101 q 321 150 321 124 l 321 678 l 446 678 l 446 -119 l 358 -119 q 326 -126 333 -119 q 318 -157 318 -133 l 318 -187 q 326 -218 318 -211 q 358 -225 333 -225 z "},"Ÿ":{"ha":496,"x_min":6,"x_max":496,"o":"m 318 0 l 192 0 l 192 275 l 6 869 l 133 869 l 254 390 l 368 869 l 496 869 l 318 275 l 318 0 m 192 1049 l 192 918 l 50 918 l 50 1049 l 192 1049 m 454 1049 l 454 918 l 314 918 l 314 1049 l 454 1049 z "},"Ź":{"ha":435,"x_min":11,"x_max":429,"o":"m 26 769 l 26 871 l 424 871 l 424 769 l 139 101 l 417 101 l 417 0 l 11 0 l 11 101 l 296 769 l 26 769 m 429 1096 l 283 913 l 176 913 l 290 1096 l 429 1096 z "},"ź":{"ha":406,"x_min":19,"x_max":418,"o":"m 386 100 l 386 0 l 19 0 l 19 100 l 254 578 l 35 578 l 35 678 l 383 678 l 383 578 l 147 100 l 386 100 m 418 904 l 272 721 l 165 721 l 279 904 l 418 904 z "},"Ż":{"ha":435,"x_min":11,"x_max":424,"o":"m 424 871 l 424 769 l 139 101 l 417 101 l 417 0 l 11 0 l 11 101 l 296 769 l 26 769 l 26 871 l 424 871 m 303 1046 l 303 913 l 154 913 l 154 1046 l 303 1046 z "},"ż":{"ha":406,"x_min":19,"x_max":386,"o":"m 386 100 l 386 0 l 19 0 l 19 100 l 254 578 l 35 578 l 35 678 l 383 678 l 383 578 l 147 100 l 386 100 m 288 879 l 288 746 l 139 746 l 139 879 l 288 879 z "},"Ž":{"ha":435,"x_min":11,"x_max":428,"o":"m 26 769 l 26 871 l 424 871 l 424 769 l 139 101 l 417 101 l 417 0 l 11 0 l 11 101 l 296 769 l 26 769 m 296 913 l 156 913 l 22 1096 l 153 1096 l 225 983 l 299 1096 l 428 1096 l 296 913 z "},"ž":{"ha":406,"x_min":6,"x_max":411,"o":"m 386 100 l 386 0 l 19 0 l 19 100 l 254 578 l 35 578 l 35 678 l 383 678 l 383 578 l 147 100 l 386 100 m 279 721 l 139 721 l 6 904 l 136 904 l 208 792 l 282 904 l 411 904 l 279 721 z "},"ƒ":{"ha":490,"x_min":-24,"x_max":426,"o":"m 426 822 l 361 822 q 329 815 336 822 q 319 782 322 808 l 306 678 l 426 678 l 426 576 l 293 576 l 208 -75 q 172 -167 200 -137 q 79 -197 143 -197 l -24 -197 l -24 -90 l 42 -90 q 74 -83 67 -90 q 83 -50 81 -76 l 164 576 l 74 576 l 74 678 l 178 678 l 194 807 q 231 899 203 869 q 324 929 260 929 l 426 929 l 426 822 z "},"Ș":{"ha":501,"x_min":53,"x_max":450,"o":"m 185 -69 l 321 -69 l 321 -137 l 229 -318 l 185 -318 l 185 -69 m 322 142 l 322 354 q 315 387 322 379 q 282 394 307 394 l 179 394 q 53 518 53 394 l 53 747 q 182 869 53 869 l 318 869 q 447 747 447 869 l 447 619 l 321 619 l 321 728 q 313 760 321 753 q 279 768 304 768 l 221 768 q 188 760 196 768 q 179 728 179 753 l 179 535 q 188 502 179 510 q 221 494 196 494 l 322 494 q 450 372 450 494 l 450 122 q 319 0 450 0 l 185 0 q 56 122 56 0 l 56 250 l 182 250 l 182 142 q 190 109 182 117 q 224 101 199 101 l 282 101 q 315 109 307 101 q 322 142 322 117 z "},"ș":{"ha":456,"x_min":46,"x_max":410,"o":"m 175 -69 l 311 -69 l 311 -137 l 219 -318 l 175 -318 l 175 -69 m 288 136 l 288 249 q 279 281 288 274 q 246 289 271 289 l 175 289 q 46 411 46 289 l 46 554 q 175 678 46 678 l 276 678 q 407 554 407 678 l 407 489 l 285 489 l 285 542 q 276 574 285 567 q 243 582 268 582 l 210 582 q 176 574 185 582 q 168 542 168 567 l 168 425 q 176 392 168 400 q 210 385 185 385 l 282 385 q 410 261 410 385 l 410 122 q 281 0 410 0 l 178 0 q 49 122 49 0 l 49 189 l 171 189 l 171 136 q 179 103 171 111 q 213 96 188 96 l 246 96 q 279 103 271 96 q 288 136 288 111 z "},"Ț":{"ha":431,"x_min":7,"x_max":424,"o":"m 7 869 l 424 869 l 424 768 l 278 768 l 278 0 l 153 0 l 153 768 l 7 768 l 7 869 m 149 -318 l 149 -69 l 286 -69 l 286 -137 l 194 -318 l 149 -318 z "},"ț":{"ha":304,"x_min":7,"x_max":290,"o":"m 290 576 l 197 576 l 197 147 q 205 115 197 122 q 238 107 213 107 l 290 107 l 290 0 l 201 0 q 71 122 71 0 l 71 576 l 7 576 l 7 678 l 71 678 l 71 793 l 197 793 l 197 678 l 290 678 l 290 576 m 110 -318 l 110 -69 l 246 -69 l 246 -137 l 154 -318 l 110 -318 z "},"ˆ":{"ha":585,"x_min":89,"x_max":494,"o":"m 89 721 l 222 904 l 363 904 l 494 721 l 365 721 l 292 833 l 219 721 l 89 721 z "},"ˇ":{"ha":585,"x_min":89,"x_max":494,"o":"m 222 721 l 89 904 l 219 904 l 292 792 l 365 904 l 494 904 l 363 721 l 222 721 z "},"ˉ":{"ha":585,"x_min":106,"x_max":478,"o":"m 106 765 l 106 860 l 478 860 l 478 765 l 106 765 z "},"˘":{"ha":585,"x_min":92,"x_max":493,"o":"m 376 904 l 493 904 l 493 844 q 363 721 493 721 l 222 721 q 92 844 92 721 l 92 904 l 208 904 l 208 851 q 217 819 208 826 q 250 811 225 811 l 335 811 q 368 819 360 811 q 376 851 376 826 l 376 904 z "},"˙":{"ha":585,"x_min":218,"x_max":367,"o":"m 218 746 l 218 879 l 367 879 l 367 746 l 218 746 z "},"˚":{"ha":585,"x_min":146,"x_max":439,"o":"m 351 808 l 351 818 q 345 846 351 839 q 315 853 339 853 l 269 853 q 240 846 246 853 q 233 818 233 839 l 233 808 q 240 781 233 788 q 269 774 246 774 l 315 774 q 345 781 339 774 q 351 808 351 788 m 439 825 l 439 801 q 338 704 439 704 l 247 704 q 146 801 146 704 l 146 825 q 247 922 146 922 l 338 922 q 439 825 439 922 z "},"˛":{"ha":585,"x_min":167,"x_max":421,"o":"m 308 -225 l 421 -225 l 421 -312 l 286 -312 q 167 -196 167 -312 l 167 -150 q 286 -32 167 -32 l 297 -32 l 297 15 l 396 15 l 396 -119 l 308 -119 q 276 -126 283 -119 q 268 -157 268 -133 l 268 -187 q 276 -218 268 -211 q 308 -225 283 -225 z "},"˜":{"ha":585,"x_min":97,"x_max":486,"o":"m 369 742 q 288 768 333 742 q 229 794 242 794 q 206 763 206 794 l 206 742 l 97 742 l 97 772 q 122 856 97 828 q 206 883 147 883 l 218 883 q 297 857 253 883 q 354 831 340 831 q 374 837 368 831 q 379 864 379 843 l 379 883 l 486 883 l 486 851 q 463 769 486 797 q 379 742 439 742 l 369 742 z "},"˝":{"ha":585,"x_min":90,"x_max":494,"o":"m 90 721 l 204 904 l 329 904 l 182 721 l 90 721 m 256 721 l 369 904 l 494 904 l 347 721 l 256 721 z "},"π":{"ha":606,"x_min":3,"x_max":603,"o":"m 603 678 l 603 579 l 504 579 l 504 0 l 379 0 l 379 579 l 218 579 l 218 122 q 89 0 218 0 l 3 0 l 3 107 l 51 107 q 85 115 78 107 q 93 147 93 122 l 93 678 l 603 678 z "},"ँ":{"ha":0,"x_min":-347,"x_max":81,"o":"m -189 1190 l -79 1190 l -79 1076 l -189 1076 l -189 1190 m -347 1126 l -236 1126 l -236 1061 q -228 1028 -236 1036 q -194 1019 -221 1019 l -72 1019 q -37 1028 -46 1019 q -29 1061 -29 1036 l -29 1126 l 81 1126 l 81 1049 q -50 933 81 933 l -217 933 q -347 1049 -347 933 l -347 1126 z "},"ं":{"ha":0,"x_min":-196,"x_max":-79,"o":"m -196 1142 l -79 1142 l -79 1010 l -196 1010 l -196 1142 z "},"ः":{"ha":244,"x_min":64,"x_max":181,"o":"m 64 689 l 181 689 l 181 557 l 64 557 l 64 689 m 64 218 l 181 218 l 181 86 l 64 86 l 64 218 z "},"अ":{"ha":761,"x_min":47,"x_max":789,"o":"m 789 869 l 789 772 l 689 772 l 689 0 l 565 0 l 565 392 l 429 392 l 429 229 q 301 108 429 108 l 175 108 q 47 229 47 108 l 47 358 l 174 358 l 174 246 q 181 213 174 221 q 214 206 189 206 l 264 206 q 296 213 288 206 q 304 246 304 221 l 304 394 q 294 428 304 419 q 260 438 285 438 l 176 438 l 176 536 l 260 536 q 294 545 285 536 q 304 581 304 554 l 304 733 q 296 766 304 758 q 264 774 288 774 l 214 774 q 181 766 189 774 q 174 733 174 758 l 174 624 l 47 624 l 47 750 q 175 871 47 871 l 301 871 q 429 750 429 871 l 429 557 q 375 489 429 496 l 375 488 l 565 488 l 565 869 l 789 869 z "},"आ":{"ha":1032,"x_min":47,"x_max":1058,"o":"m 1058 869 l 1058 772 l 958 772 l 958 0 l 835 0 l 835 772 l 689 772 l 689 0 l 565 0 l 565 392 l 429 392 l 429 229 q 301 108 429 108 l 175 108 q 47 229 47 108 l 47 358 l 174 358 l 174 246 q 181 213 174 221 q 214 206 189 206 l 264 206 q 296 213 288 206 q 304 246 304 221 l 304 394 q 294 428 304 419 q 260 438 285 438 l 176 438 l 176 536 l 260 536 q 294 545 285 536 q 304 581 304 554 l 304 733 q 296 766 304 758 q 264 774 288 774 l 214 774 q 181 766 189 774 q 174 733 174 758 l 174 624 l 47 624 l 47 750 q 175 871 47 871 l 301 871 q 429 750 429 871 l 429 557 q 375 489 429 496 l 375 488 l 565 488 l 565 869 l 1058 869 z "},"इ":{"ha":508,"x_min":-28,"x_max":536,"o":"m 432 575 l 213 575 q 181 567 189 575 q 172 535 172 560 l 172 485 q 181 452 172 460 q 213 444 189 444 l 322 444 q 419 415 389 444 q 450 326 450 386 l 450 204 q 419 115 450 143 q 322 86 389 86 l 186 86 l 186 -18 l 61 -18 l 61 257 l 186 257 l 186 181 l 283 181 q 317 188 308 181 q 325 221 325 196 l 325 310 q 317 342 325 335 q 283 350 308 350 l 175 350 q 78 378 108 350 q 47 468 47 407 l 47 551 q 78 641 47 613 q 175 669 108 669 l 307 669 l 307 772 l -28 772 l -28 869 l 536 869 l 536 772 l 432 772 l 432 575 z "},"ई":{"ha":508,"x_min":-28,"x_max":536,"o":"m 432 575 l 213 575 q 181 567 189 575 q 172 535 172 560 l 172 485 q 181 452 172 460 q 213 444 189 444 l 322 444 q 419 415 389 444 q 450 326 450 386 l 450 204 q 419 115 450 143 q 322 86 389 86 l 186 86 l 186 -18 l 61 -18 l 61 257 l 186 257 l 186 181 l 283 181 q 317 188 308 181 q 325 221 325 196 l 325 310 q 317 342 325 335 q 283 350 308 350 l 175 350 q 78 378 108 350 q 47 468 47 407 l 47 551 q 78 641 47 613 q 175 669 108 669 l 307 669 l 307 772 l -28 772 l -28 869 l 307 869 l 307 968 q 338 1056 307 1028 q 435 1085 368 1085 l 526 1085 l 526 990 l 474 990 q 440 983 449 990 q 432 951 432 976 l 432 869 l 536 869 l 536 772 l 432 772 l 432 575 z "},"उ":{"ha":493,"x_min":-28,"x_max":518,"o":"m 518 869 l 518 772 l 407 772 q 418 735 418 758 l 418 564 q 364 496 418 500 l 364 492 q 418 425 418 488 l 418 118 q 388 29 418 58 q 290 0 357 0 l 161 0 q 64 29 94 0 q 33 118 33 58 l 33 292 l 158 292 l 158 135 q 166 102 158 110 q 197 94 174 94 l 253 94 q 285 102 276 94 q 293 135 293 110 l 293 401 q 285 434 293 426 q 253 442 276 442 l 146 442 l 146 540 l 253 540 q 285 548 276 540 q 293 581 293 556 l 293 726 q 283 765 293 757 q 232 772 274 772 l -28 772 l -28 869 l 518 869 z "},"ऊ":{"ha":697,"x_min":-28,"x_max":725,"o":"m 725 869 l 725 772 l 407 772 q 418 735 418 758 l 418 564 q 364 496 418 500 l 364 492 l 535 492 q 660 368 660 492 l 660 118 q 532 0 660 0 l 465 0 l 465 97 l 493 97 q 526 105 518 97 q 533 138 533 113 l 533 353 q 526 387 533 379 q 493 394 518 394 l 418 394 l 418 118 q 388 29 418 58 q 290 0 357 0 l 161 0 q 64 29 94 0 q 33 118 33 58 l 33 292 l 158 292 l 158 135 q 166 102 158 110 q 197 94 174 94 l 253 94 q 285 102 276 94 q 293 135 293 110 l 293 401 q 285 434 293 426 q 253 442 276 442 l 146 442 l 146 540 l 253 540 q 285 548 276 540 q 293 581 293 556 l 293 726 q 283 765 293 757 q 232 772 274 772 l -28 772 l -28 869 l 725 869 z "},"ऋ":{"ha":981,"x_min":-28,"x_max":1008,"o":"m 497 772 l 497 371 l 611 371 q 590 443 590 392 l 590 547 q 622 639 590 608 q 725 669 654 669 l 796 669 q 898 639 867 669 q 929 547 929 608 l 929 446 q 918 369 929 393 q 881 339 907 346 l 881 332 q 929 253 929 314 l 929 117 q 801 0 929 0 l 714 0 q 596 117 596 0 l 596 193 l 721 193 l 721 136 q 728 103 721 113 q 757 94 735 94 l 767 94 q 796 103 789 94 q 803 136 803 113 l 803 240 q 796 269 803 263 q 767 275 789 275 l 497 275 l 497 0 l 374 0 l 374 275 l 342 275 l 154 0 l 13 0 l 242 336 l 160 493 q 117 552 138 536 q 54 568 96 568 l 10 568 l 10 668 l 81 668 q 189 649 154 668 q 253 574 224 629 l 361 371 l 374 371 l 374 772 l -28 772 l -28 869 l 1008 869 l 1008 772 l 497 772 m 715 535 l 715 411 q 749 371 715 371 l 774 371 q 806 411 806 371 l 806 535 q 798 567 806 558 q 767 575 790 575 l 754 575 q 723 567 731 575 q 715 535 715 558 z "},"ऌ":{"ha":751,"x_min":-28,"x_max":779,"o":"m 688 51 l 597 51 q 565 44 572 51 q 557 11 557 36 l 557 -39 q 565 -70 557 -62 q 597 -78 572 -78 l 750 -78 l 750 -176 l 558 -176 q 431 -58 431 -176 l 431 28 q 556 146 431 146 l 561 146 l 561 572 l 478 572 q 444 564 451 572 q 436 531 436 556 l 436 268 l 311 268 l 311 531 q 303 564 311 556 q 271 572 296 572 l 226 572 q 194 564 203 572 q 186 531 186 556 l 186 140 q 194 109 186 117 q 226 101 203 101 l 297 101 l 297 0 l 189 0 q 92 29 122 0 q 61 118 61 58 l 61 546 q 186 669 61 669 l 306 669 q 374 615 369 669 l 378 615 q 444 669 382 669 l 561 669 l 561 772 l -28 772 l -28 869 l 779 869 l 779 772 l 688 772 l 688 51 z "},"ऍ":{"ha":563,"x_min":-28,"x_max":590,"o":"m 590 869 l 590 772 l 501 772 l 501 508 q 472 419 501 447 q 375 390 442 390 l 279 390 l 279 488 l 336 488 q 369 495 361 488 q 376 528 376 503 l 376 772 l 197 772 l 197 135 q 206 102 197 110 q 238 94 214 94 l 335 94 q 366 102 358 94 q 374 135 374 110 l 374 281 l 499 281 l 499 118 q 468 29 499 58 q 371 0 438 0 l 200 0 q 103 29 133 0 q 72 118 72 58 l 72 772 l -28 772 l -28 869 l 590 869 m 371 928 l 204 928 q 74 1043 74 928 l 74 1121 l 185 1121 l 185 1056 q 192 1022 185 1031 q 226 1014 200 1014 l 349 1014 q 383 1022 375 1014 q 390 1056 390 1031 l 390 1121 l 501 1121 l 501 1043 q 371 928 501 928 z "},"ऎ":{"ha":563,"x_min":-28,"x_max":590,"o":"m 590 869 l 590 772 l 501 772 l 501 508 q 472 419 501 447 q 375 390 442 390 l 279 390 l 279 488 l 336 488 q 369 495 361 488 q 376 528 376 503 l 376 772 l 197 772 l 197 135 q 206 102 197 110 q 238 94 214 94 l 335 94 q 366 102 358 94 q 374 135 374 110 l 374 281 l 499 281 l 499 118 q 468 29 499 58 q 371 0 438 0 l 200 0 q 103 29 133 0 q 72 118 72 58 l 72 772 l -28 772 l -28 869 l 376 869 l 376 913 q 368 949 376 940 q 332 957 360 957 l 222 957 q 108 1071 108 957 l 108 1140 l 233 1140 l 233 1100 q 242 1064 233 1072 q 279 1056 250 1056 l 388 1056 q 501 942 501 1056 l 501 869 l 590 869 z "},"ए":{"ha":563,"x_min":-28,"x_max":590,"o":"m 590 869 l 590 772 l 501 772 l 501 508 q 472 419 501 447 q 375 390 442 390 l 279 390 l 279 488 l 336 488 q 369 495 361 488 q 376 528 376 503 l 376 772 l 197 772 l 197 135 q 206 102 197 110 q 238 94 214 94 l 335 94 q 366 102 358 94 q 374 135 374 110 l 374 281 l 499 281 l 499 118 q 468 29 499 58 q 371 0 438 0 l 200 0 q 103 29 133 0 q 72 118 72 58 l 72 772 l -28 772 l -28 869 l 590 869 z "},"ऐ":{"ha":563,"x_min":-28,"x_max":590,"o":"m 590 869 l 590 772 l 501 772 l 501 508 q 472 419 501 447 q 375 390 442 390 l 279 390 l 279 488 l 336 488 q 369 495 361 488 q 376 528 376 503 l 376 772 l 197 772 l 197 135 q 206 102 197 110 q 238 94 214 94 l 335 94 q 366 102 358 94 q 374 135 374 110 l 374 281 l 499 281 l 499 118 q 468 29 499 58 q 371 0 438 0 l 200 0 q 103 29 133 0 q 72 118 72 58 l 72 772 l -28 772 l -28 869 l 360 869 q 243 1011 315 914 l 151 1138 l 301 1138 l 489 869 l 590 869 z "},"ऑ":{"ha":1032,"x_min":47,"x_max":1111,"o":"m 1000 1126 l 1111 1126 l 1111 1049 q 981 933 1111 933 l 814 933 q 683 1049 683 933 l 683 1126 l 794 1126 l 794 1061 q 802 1028 794 1036 q 836 1019 810 1019 l 958 1019 q 992 1028 985 1019 q 1000 1061 1000 1036 l 1000 1126 m 1058 869 l 1058 772 l 958 772 l 958 0 l 835 0 l 835 772 l 689 772 l 689 0 l 565 0 l 565 392 l 429 392 l 429 229 q 301 108 429 108 l 175 108 q 47 229 47 108 l 47 358 l 174 358 l 174 246 q 181 213 174 221 q 214 206 189 206 l 264 206 q 296 213 288 206 q 304 246 304 221 l 304 394 q 294 428 304 419 q 260 438 285 438 l 176 438 l 176 536 l 260 536 q 294 545 285 536 q 304 581 304 554 l 304 733 q 296 766 304 758 q 264 774 288 774 l 214 774 q 181 766 189 774 q 174 733 174 758 l 174 624 l 47 624 l 47 750 q 175 871 47 871 l 301 871 q 429 750 429 871 l 429 557 q 375 489 429 496 l 375 488 l 565 488 l 565 869 l 1058 869 z "},"ऒ":{"ha":1031,"x_min":47,"x_max":1058,"o":"m 1058 869 l 1058 772 l 958 772 l 958 0 l 835 0 l 835 772 l 689 772 l 689 0 l 565 0 l 565 392 l 429 392 l 429 229 q 301 108 429 108 l 175 108 q 47 229 47 108 l 47 358 l 174 358 l 174 246 q 181 213 174 221 q 214 206 189 206 l 264 206 q 296 213 288 206 q 304 246 304 221 l 304 394 q 294 428 304 419 q 260 438 285 438 l 176 438 l 176 536 l 260 536 q 294 545 285 536 q 304 581 304 554 l 304 733 q 296 766 304 758 q 264 774 288 774 l 214 774 q 181 766 189 774 q 174 733 174 758 l 174 624 l 47 624 l 47 750 q 175 871 47 871 l 301 871 q 429 750 429 871 l 429 557 q 375 489 429 496 l 375 488 l 565 488 l 565 869 l 833 869 l 833 913 q 825 949 833 940 q 789 957 817 957 l 679 957 q 565 1071 565 957 l 565 1140 l 690 1140 l 690 1100 q 699 1064 690 1072 q 736 1056 707 1056 l 844 1056 q 958 942 958 1056 l 958 869 l 1058 869 z "},"ओ":{"ha":1031,"x_min":47,"x_max":1058,"o":"m 1058 869 l 1058 772 l 958 772 l 958 0 l 835 0 l 835 772 l 689 772 l 689 0 l 565 0 l 565 392 l 429 392 l 429 229 q 301 108 429 108 l 175 108 q 47 229 47 108 l 47 358 l 174 358 l 174 246 q 181 213 174 221 q 214 206 189 206 l 264 206 q 296 213 288 206 q 304 246 304 221 l 304 394 q 294 428 304 419 q 260 438 285 438 l 176 438 l 176 536 l 260 536 q 294 545 285 536 q 304 581 304 554 l 304 733 q 296 766 304 758 q 264 774 288 774 l 214 774 q 181 766 189 774 q 174 733 174 758 l 174 624 l 47 624 l 47 750 q 175 871 47 871 l 301 871 q 429 750 429 871 l 429 557 q 375 489 429 496 l 375 488 l 565 488 l 565 869 l 829 869 q 713 1011 785 914 l 621 1138 l 771 1138 l 958 869 l 1058 869 z "},"औ":{"ha":1032,"x_min":47,"x_max":1058,"o":"m 1058 869 l 1058 772 l 958 772 l 958 0 l 835 0 l 835 772 l 689 772 l 689 0 l 565 0 l 565 392 l 429 392 l 429 229 q 301 108 429 108 l 175 108 q 47 229 47 108 l 47 358 l 174 358 l 174 246 q 181 213 174 221 q 214 206 189 206 l 264 206 q 296 213 288 206 q 304 246 304 221 l 304 394 q 294 428 304 419 q 260 438 285 438 l 176 438 l 176 536 l 260 536 q 294 545 285 536 q 304 581 304 554 l 304 733 q 296 766 304 758 q 264 774 288 774 l 214 774 q 181 766 189 774 q 174 733 174 758 l 174 624 l 47 624 l 47 750 q 175 871 47 871 l 301 871 q 429 750 429 871 l 429 557 q 375 489 429 496 l 375 488 l 565 488 l 565 869 l 819 869 q 704 964 763 911 l 517 1138 l 675 1138 l 733 1071 q 886 874 835 958 l 892 874 q 844 975 869 915 q 776 1138 844 975 l 901 1138 l 956 869 l 1058 869 z "},"क":{"ha":761,"x_min":-28,"x_max":789,"o":"m 789 772 l 443 772 l 443 656 q 493 669 458 669 l 581 669 q 706 546 706 669 l 706 226 q 675 138 706 167 q 578 108 644 108 l 499 108 l 499 203 l 539 203 q 572 210 564 203 q 581 243 581 218 l 581 531 q 572 565 581 557 q 539 572 564 572 l 488 572 q 453 563 463 572 q 443 528 443 554 l 443 0 l 318 0 l 318 124 q 267 108 303 108 l 181 108 q 56 232 56 108 l 56 551 q 86 641 56 613 q 183 669 117 669 l 261 669 l 261 575 l 221 575 q 189 567 197 575 q 181 535 181 560 l 181 247 q 189 214 181 222 q 221 206 197 206 l 274 206 q 308 215 299 206 q 318 250 318 225 l 318 772 l -28 772 l -28 869 l 789 869 l 789 772 z "},"ख":{"ha":913,"x_min":-28,"x_max":940,"o":"m 940 869 l 940 772 l 840 772 l 840 0 l 719 0 l 719 174 q 664 153 706 153 l 589 153 q 464 276 464 153 l 464 536 q 494 626 464 597 q 592 654 525 654 l 675 654 l 675 560 l 625 560 q 592 552 600 560 q 585 519 585 544 l 585 292 q 592 259 585 267 q 625 251 600 251 l 668 251 q 708 263 696 251 q 719 301 719 274 l 719 772 l 392 772 q 403 736 403 761 l 403 457 q 275 338 403 338 l 190 338 l 190 144 q 198 109 190 117 q 233 101 206 101 l 540 101 l 540 0 l 204 0 q 98 29 132 0 q 64 121 64 58 l 64 654 l 190 654 l 190 435 l 233 435 q 269 444 261 435 q 278 479 278 453 l 278 728 q 269 764 278 756 q 233 772 261 772 l -28 772 l -28 869 l 940 869 z "},"ग":{"ha":774,"x_min":-28,"x_max":801,"o":"m 801 869 l 801 772 l 701 772 l 701 0 l 576 0 l 576 772 l 439 772 l 439 232 q 407 138 439 168 q 306 108 375 108 l 181 108 q 79 138 111 108 q 47 232 47 168 l 47 485 q 186 606 47 606 l 314 606 l 314 772 l -28 772 l -28 869 l 801 869 m 213 206 l 272 206 q 306 213 297 206 q 314 247 314 221 l 314 507 l 215 507 q 181 499 189 507 q 172 464 172 492 l 172 247 q 181 214 172 222 q 213 206 189 206 z "},"घ":{"ha":611,"x_min":-28,"x_max":639,"o":"m 639 869 l 639 772 l 540 772 l 540 0 l 414 0 l 414 124 q 365 108 399 108 l 199 108 q 64 232 64 108 l 64 418 q 118 485 64 481 l 118 489 q 64 557 64 493 l 64 731 q 79 772 64 760 l -28 772 l -28 869 l 639 869 m 414 253 l 414 772 l 251 772 q 201 765 211 772 q 190 728 190 758 l 190 578 q 198 545 190 553 q 231 538 206 538 l 315 538 l 315 439 l 231 439 q 198 431 206 439 q 190 399 190 424 l 190 247 q 198 213 190 221 q 231 206 206 206 l 367 206 q 404 215 394 206 q 414 253 414 225 z "},"ङ":{"ha":547,"x_min":-28,"x_max":575,"o":"m -28 869 l 575 869 l 575 772 l 426 772 l 426 575 l 242 575 q 209 567 217 575 q 201 535 201 560 l 201 451 q 209 420 201 428 q 242 413 217 413 l 317 413 q 414 383 383 413 q 444 294 444 354 l 444 118 q 414 29 444 58 q 317 0 383 0 l 189 0 q 92 29 122 0 q 61 118 61 58 l 61 228 l 186 228 l 186 135 q 194 102 186 110 q 225 94 201 94 l 279 94 q 311 102 303 94 q 319 135 319 110 l 319 278 q 311 309 319 301 q 279 317 303 317 l 203 317 q 107 346 138 317 q 76 435 76 375 l 76 551 q 106 641 76 613 q 203 669 136 669 l 301 669 l 301 772 l -28 772 l -28 869 m 426 421 l 426 553 l 542 553 l 542 421 l 426 421 z "},"च":{"ha":569,"x_min":-28,"x_max":597,"o":"m 597 869 l 597 772 l 497 772 l 497 0 l 372 0 l 372 124 q 321 108 357 108 l 213 108 q 88 232 88 108 l 88 528 q 101 572 88 558 l 1 572 l 1 669 l 306 669 l 306 572 l 271 572 q 223 565 233 572 q 213 531 213 558 l 213 247 q 220 214 213 222 q 253 206 228 206 l 328 206 q 363 215 353 206 q 372 250 372 225 l 372 772 l -28 772 l -28 869 l 597 869 z "},"छ":{"ha":754,"x_min":-28,"x_max":782,"o":"m 782 772 l 582 772 l 582 668 q 690 551 690 661 l 690 124 q 556 0 690 0 l 204 0 q 71 124 71 0 l 71 361 q 125 428 71 421 l 125 431 q 71 499 71 438 l 71 736 q 81 772 71 758 l -28 772 l -28 869 l 782 869 l 782 772 m 465 772 l 263 772 l 272 771 q 208 767 221 774 q 196 728 196 761 l 196 521 q 203 487 196 494 q 236 479 211 479 l 286 479 l 286 382 l 236 382 q 203 374 211 382 q 196 340 196 367 l 196 139 q 203 106 196 114 q 236 99 211 99 l 529 99 q 562 106 554 99 q 569 139 569 114 l 569 538 q 562 570 569 563 q 529 578 554 578 l 503 578 q 470 570 478 578 q 463 538 463 563 l 463 382 q 470 349 463 357 q 503 342 478 342 l 528 342 l 528 250 l 476 250 q 354 368 354 250 l 354 551 q 465 669 354 661 l 465 772 z "},"ज":{"ha":750,"x_min":-28,"x_max":778,"o":"m 778 869 l 778 772 l 678 772 l 678 0 l 553 0 l 553 572 l 436 572 l 436 232 q 404 138 436 168 q 303 108 372 108 l 194 108 q 93 138 125 108 q 61 232 61 168 l 61 669 l 186 669 l 186 247 q 194 213 186 221 q 228 206 203 206 l 271 206 q 303 214 294 206 q 311 247 311 222 l 311 669 l 553 669 l 553 772 l -28 772 l -28 869 l 778 869 z "},"झ":{"ha":792,"x_min":-33,"x_max":819,"o":"m 819 869 l 819 772 l 719 772 l 719 0 l 594 0 l 594 350 l 453 350 q 456 321 456 331 l 456 204 q 425 115 456 143 q 328 86 394 86 l 186 86 l 186 -18 l 61 -18 l 61 257 l 186 257 l 186 181 l 289 181 q 322 188 314 181 q 331 221 331 196 l 331 310 q 322 342 331 335 q 289 350 314 350 l 186 350 q 90 378 119 350 q 60 468 60 407 l 60 551 q 90 641 60 613 q 186 669 119 669 l 315 669 l 315 772 l -33 772 l -33 869 l 819 869 m 594 444 l 594 772 l 442 772 l 442 575 l 225 575 q 192 567 200 575 q 185 535 185 560 l 185 485 q 192 452 185 460 q 225 444 200 444 l 594 444 z "},"ञ":{"ha":740,"x_min":-28,"x_max":768,"o":"m 768 869 l 768 772 l 668 772 l 668 0 l 543 0 l 543 364 l 408 364 l 408 232 q 376 138 408 168 q 275 108 344 108 l 172 108 q 71 138 103 108 q 39 232 39 168 l 39 360 l 164 360 l 164 247 q 172 213 164 221 q 206 206 181 206 l 243 206 q 275 214 267 206 q 283 247 283 222 l 283 532 q 276 565 283 557 q 243 572 268 572 l 119 572 l 119 669 l 282 669 q 408 549 408 669 l 408 463 l 543 463 l 543 772 l -28 772 l -28 869 l 768 869 z "},"ट":{"ha":508,"x_min":-28,"x_max":536,"o":"m 440 572 l 239 572 q 206 565 214 572 q 197 531 197 557 l 197 139 q 206 105 197 113 q 239 97 214 97 l 281 97 q 314 105 306 97 q 322 139 322 113 l 322 282 l 447 282 l 447 124 q 415 30 447 60 q 314 0 383 0 l 206 0 q 104 30 136 0 q 72 124 72 60 l 72 551 q 103 641 72 613 q 200 669 133 669 l 315 669 l 315 772 l -28 772 l -28 869 l 536 869 l 536 772 l 440 772 l 440 572 z "},"ठ":{"ha":546,"x_min":-28,"x_max":574,"o":"m 574 772 l 339 772 l 339 669 l 349 669 q 450 640 418 669 q 482 546 482 611 l 482 124 q 450 30 482 60 q 349 0 418 0 l 206 0 q 104 30 136 0 q 72 124 72 60 l 72 546 q 104 640 72 611 q 206 669 136 669 l 214 669 l 214 772 l -28 772 l -28 869 l 574 869 l 574 772 m 357 139 l 357 531 q 349 565 357 557 q 315 572 340 572 l 239 572 q 206 565 214 572 q 197 531 197 557 l 197 139 q 206 105 197 113 q 239 97 214 97 l 315 97 q 349 105 340 97 q 357 139 357 113 z "},"ड":{"ha":522,"x_min":-28,"x_max":550,"o":"m 426 575 l 242 575 q 209 567 217 575 q 201 535 201 560 l 201 451 q 209 420 201 428 q 242 413 217 413 l 317 413 q 414 383 383 413 q 444 294 444 354 l 444 118 q 414 29 444 58 q 317 0 383 0 l 189 0 q 92 29 122 0 q 61 118 61 58 l 61 228 l 186 228 l 186 135 q 194 102 186 110 q 225 94 201 94 l 279 94 q 311 102 303 94 q 319 135 319 110 l 319 278 q 311 309 319 301 q 279 317 303 317 l 203 317 q 107 346 138 317 q 76 435 76 375 l 76 551 q 106 641 76 613 q 203 669 136 669 l 301 669 l 301 772 l -28 772 l -28 869 l 550 869 l 550 772 l 426 772 l 426 575 z "},"ढ":{"ha":564,"x_min":-28,"x_max":592,"o":"m 440 572 l 239 572 q 206 565 214 572 q 197 531 197 557 l 197 139 q 206 105 197 113 q 239 97 214 97 l 329 97 q 361 106 353 97 q 369 139 369 114 l 369 261 q 361 294 369 286 q 329 301 353 301 l 271 301 l 271 399 l 361 399 q 464 369 432 399 q 496 275 496 340 l 496 124 q 464 30 496 60 q 361 0 432 0 l 206 0 q 104 30 136 0 q 72 124 72 60 l 72 551 q 103 641 72 613 q 200 669 133 669 l 315 669 l 315 772 l -28 772 l -28 869 l 592 869 l 592 772 l 440 772 l 440 572 z "},"ण":{"ha":753,"x_min":-28,"x_max":781,"o":"m 781 869 l 781 772 l 681 772 l 681 0 l 556 0 l 556 772 l 436 772 l 436 232 q 404 138 436 168 q 303 108 372 108 l 194 108 q 93 138 125 108 q 61 232 61 168 l 61 772 l -28 772 l -28 869 l 781 869 m 311 247 l 311 772 l 186 772 l 186 247 q 194 213 186 221 q 228 206 203 206 l 271 206 q 303 214 294 206 q 311 247 311 222 z "},"त":{"ha":553,"x_min":-28,"x_max":581,"o":"m 581 869 l 581 772 l 481 772 l 481 0 l 356 0 l 356 572 l 226 572 q 194 565 203 572 q 186 532 186 557 l 186 140 q 194 109 186 117 q 226 101 203 101 l 268 101 l 268 0 l 189 0 q 92 29 122 0 q 61 118 61 58 l 61 551 q 92 641 61 613 q 189 669 122 669 l 356 669 l 356 772 l -28 772 l -28 869 l 581 869 z "},"थ":{"ha":661,"x_min":65,"x_max":689,"o":"m 689 869 l 689 772 l 590 772 l 590 0 l 464 0 l 464 124 q 415 108 449 108 l 199 108 q 65 232 65 108 l 65 504 l 207 504 q 240 512 232 504 q 249 543 249 519 l 249 739 q 240 772 249 764 q 207 779 232 779 l 200 779 q 167 772 175 779 q 158 739 158 764 l 158 679 l 75 679 l 75 760 q 197 876 75 876 l 249 876 q 374 760 374 876 l 374 526 q 246 406 374 406 l 190 406 l 190 247 q 198 214 190 222 q 231 206 206 206 l 417 206 q 454 215 444 206 q 464 253 464 225 l 464 869 l 689 869 z "},"द":{"ha":519,"x_min":-32,"x_max":547,"o":"m 447 572 l 235 572 q 201 565 210 572 q 193 531 193 557 l 193 247 q 201 214 193 222 q 233 206 208 206 l 285 206 q 319 215 310 206 q 329 250 329 225 l 329 376 l 454 376 l 454 0 l 329 0 l 329 124 q 279 108 314 108 l 201 108 q 100 138 132 108 q 68 232 68 168 l 68 551 q 99 641 68 613 q 196 669 129 669 l 322 669 l 322 772 l -32 772 l -32 869 l 547 869 l 547 772 l 447 772 l 447 572 z "},"ध":{"ha":664,"x_min":93,"x_max":693,"o":"m 693 869 l 693 772 l 594 772 l 594 0 l 468 0 l 468 124 q 419 108 453 108 l 218 108 q 93 226 93 108 l 93 408 q 147 475 93 468 l 147 478 q 93 546 93 485 l 93 760 q 218 876 93 876 l 272 876 q 397 760 397 876 l 397 679 l 314 679 l 314 739 q 306 772 314 764 q 272 779 297 779 l 260 779 q 227 772 235 779 q 219 739 219 764 l 219 568 q 227 534 219 542 q 260 526 235 526 l 354 526 l 354 429 l 260 429 q 227 422 235 429 q 219 388 219 414 l 219 247 q 227 213 219 221 q 260 206 235 206 l 421 206 q 458 215 447 206 q 468 253 468 225 l 468 869 l 693 869 z "},"न":{"ha":729,"x_min":-28,"x_max":757,"o":"m 757 869 l 757 772 l 657 772 l 657 0 l 532 0 l 532 572 l 418 572 l 418 232 q 385 138 418 168 q 283 108 353 108 l 181 108 q 79 138 111 108 q 47 232 47 168 l 47 551 q 78 641 47 613 q 175 669 108 669 l 532 669 l 532 772 l -28 772 l -28 869 l 757 869 m 292 247 l 292 572 l 213 572 q 181 565 189 572 q 172 532 172 557 l 172 247 q 181 213 172 221 q 214 206 189 206 l 251 206 q 283 214 275 206 q 292 247 292 222 z "},"ऩ":{"ha":729,"x_min":-28,"x_max":757,"o":"m 757 869 l 757 772 l 657 772 l 657 0 l 532 0 l 532 572 l 418 572 l 418 232 q 385 138 418 168 q 283 108 353 108 l 181 108 q 79 138 111 108 q 47 232 47 168 l 47 551 q 78 641 47 613 q 175 669 108 669 l 532 669 l 532 772 l -28 772 l -28 869 l 757 869 m 292 247 l 292 572 l 213 572 q 181 565 189 572 q 172 532 172 557 l 172 247 q 181 213 172 221 q 214 206 189 206 l 251 206 q 283 214 275 206 q 292 247 292 222 m 303 -140 l 303 -8 l 418 -8 l 418 -140 l 303 -140 z "},"प":{"ha":532,"x_min":-28,"x_max":560,"o":"m 560 869 l 560 772 l 460 772 l 460 0 l 335 0 l 335 124 q 283 108 319 108 l 197 108 q 72 232 72 108 l 72 772 l -28 772 l -28 869 l 560 869 m 335 250 l 335 772 l 197 772 l 197 247 q 206 214 197 222 q 238 206 214 206 l 290 206 q 325 215 315 206 q 335 250 335 225 z "},"फ":{"ha":769,"x_min":-28,"x_max":797,"o":"m 797 772 l 451 772 l 451 654 q 503 669 467 669 l 589 669 q 714 546 714 669 l 714 226 q 683 138 714 167 q 588 108 653 108 l 508 108 l 508 203 l 549 203 q 581 210 574 203 q 589 243 589 218 l 589 531 q 581 565 589 557 q 549 572 574 572 l 496 572 q 461 563 471 572 q 451 528 451 554 l 451 0 l 326 0 l 326 124 q 276 108 311 108 l 189 108 q 64 232 64 108 l 64 772 l -28 772 l -28 869 l 797 869 l 797 772 m 326 250 l 326 772 l 190 772 l 190 247 q 198 213 190 221 q 231 206 206 206 l 283 206 q 317 215 307 206 q 326 250 326 225 z "},"ब":{"ha":590,"x_min":-28,"x_max":618,"o":"m 618 869 l 618 772 l 518 772 l 518 0 l 392 0 l 392 118 q 347 108 376 108 l 189 108 q 64 232 64 108 l 64 551 q 94 641 64 613 q 192 669 125 669 l 336 669 l 336 575 l 232 575 l 328 407 l 400 274 q 392 451 392 328 l 392 772 l -28 772 l -28 869 l 618 869 m 229 206 l 353 206 q 369 207 365 206 l 263 390 q 219 474 246 422 q 189 531 192 526 l 189 247 q 197 214 189 222 q 229 206 206 206 z "},"भ":{"ha":794,"x_min":61,"x_max":822,"o":"m 822 869 l 822 772 l 724 772 l 724 0 l 597 0 l 597 471 l 451 471 l 451 232 q 419 138 451 168 q 318 108 388 108 l 194 108 q 93 138 125 108 q 61 232 61 168 l 61 450 q 92 540 61 511 q 189 568 122 568 l 326 568 l 326 733 q 318 766 326 758 q 285 774 310 774 l 239 774 q 206 766 214 774 q 197 733 197 758 l 197 665 l 72 665 l 72 750 q 200 871 72 871 l 324 871 q 451 750 451 871 l 451 568 l 597 568 l 597 869 l 822 869 m 326 247 l 326 471 l 226 471 q 194 463 203 471 q 186 431 186 456 l 186 247 q 194 213 186 221 q 228 206 203 206 l 285 206 q 318 213 310 206 q 326 247 326 221 z "},"म":{"ha":781,"x_min":-28,"x_max":808,"o":"m 808 869 l 808 772 l 710 772 l 710 0 l 583 0 l 583 503 l 438 503 l 438 265 q 406 171 438 200 q 304 142 374 142 l 181 142 q 79 171 111 142 q 47 265 47 200 l 47 482 q 78 571 47 542 q 175 600 108 600 l 313 600 l 313 772 l -28 772 l -28 869 l 808 869 m 313 281 l 313 503 l 208 503 q 175 495 183 503 q 167 463 167 488 l 167 281 q 175 247 167 254 q 208 239 183 239 l 271 239 q 304 247 296 239 q 313 281 313 254 m 583 600 l 583 772 l 438 772 l 438 600 l 583 600 z "},"य":{"ha":653,"x_min":-50,"x_max":681,"o":"m 681 869 l 681 772 l 581 772 l 581 0 l 456 0 l 456 124 q 406 108 440 108 l 183 108 q 50 232 50 108 l 50 525 l 175 525 q 207 533 199 525 q 215 564 215 540 l 215 726 q 206 765 215 757 q 154 772 196 772 l -50 772 l -50 869 l 681 869 m 456 253 l 456 772 l 325 772 q 338 729 338 758 l 338 547 q 213 426 338 426 l 175 426 l 175 247 q 183 213 175 221 q 217 206 192 206 l 408 206 q 446 215 436 206 q 456 253 456 225 z "},"र":{"ha":501,"x_min":-28,"x_max":529,"o":"m 529 869 l 529 772 l 435 772 q 446 736 446 761 l 446 506 q 307 386 446 386 l 186 386 l 186 135 q 194 102 186 110 q 226 94 203 94 l 279 94 q 310 102 303 94 q 318 135 318 110 l 318 292 l 443 292 l 443 118 q 413 29 443 58 q 315 0 382 0 l 189 0 q 92 29 122 0 q 61 118 61 58 l 61 626 l 186 626 l 186 483 l 276 483 q 312 492 303 483 q 321 528 321 500 l 321 728 q 312 764 321 756 q 276 772 303 772 l -28 772 l -28 869 l 529 869 z "},"ऱ":{"ha":501,"x_min":-28,"x_max":529,"o":"m 529 869 l 529 772 l 435 772 q 446 736 446 761 l 446 506 q 307 386 446 386 l 186 386 l 186 135 q 194 102 186 110 q 226 94 203 94 l 279 94 q 310 102 303 94 q 318 135 318 110 l 318 292 l 443 292 l 443 118 q 413 29 443 58 q 315 0 382 0 l 189 0 q 92 29 122 0 q 61 118 61 58 l 61 626 l 186 626 l 186 483 l 276 483 q 312 492 303 483 q 321 528 321 500 l 321 728 q 312 764 321 756 q 276 772 303 772 l -28 772 l -28 869 l 529 869 m 182 -229 l 182 -97 l 297 -97 l 297 -229 l 182 -229 z "},"ल":{"ha":754,"x_min":-28,"x_max":782,"o":"m 782 869 l 782 772 l 689 772 l 689 0 l 564 0 l 564 572 l 481 572 q 448 564 456 572 q 440 531 440 556 l 440 257 l 315 257 l 315 531 q 308 564 315 556 q 275 572 300 572 l 231 572 q 198 564 206 572 q 190 531 190 556 l 190 140 q 199 109 190 117 q 231 101 207 101 l 313 101 l 313 0 l 192 0 q 96 29 126 0 q 65 118 65 58 l 65 546 q 190 669 65 669 l 310 669 q 378 615 374 669 l 382 615 q 449 669 386 669 l 564 669 l 564 772 l -28 772 l -28 869 l 782 869 z "},"ळ":{"ha":786,"x_min":-50,"x_max":836,"o":"m 836 772 l 603 772 l 603 669 l 613 669 q 736 546 736 669 l 736 232 q 613 108 736 108 l 469 108 q 397 163 401 108 l 393 163 q 319 108 389 108 l 175 108 q 50 232 50 108 l 50 546 q 175 669 50 669 l 319 669 q 393 615 389 669 l 397 615 q 469 669 401 669 l 478 669 l 478 772 l -50 772 l -50 869 l 836 869 l 836 772 m 332 247 l 332 531 q 324 564 332 556 q 292 572 317 572 l 217 572 q 183 565 192 572 q 175 531 175 557 l 175 247 q 183 213 175 221 q 217 206 192 206 l 292 206 q 324 214 317 206 q 332 247 332 222 m 611 247 l 611 531 q 603 565 611 557 q 571 572 596 572 l 496 572 q 462 564 469 572 q 454 531 454 556 l 454 247 q 462 214 454 222 q 496 206 469 206 l 571 206 q 603 213 596 206 q 611 247 611 221 z "},"ऴ":{"ha":786,"x_min":-50,"x_max":836,"o":"m 836 772 l 603 772 l 603 669 l 613 669 q 736 546 736 669 l 736 232 q 613 108 736 108 l 469 108 q 397 163 401 108 l 393 163 q 319 108 389 108 l 175 108 q 50 232 50 108 l 50 546 q 175 669 50 669 l 319 669 q 393 615 389 669 l 397 615 q 469 669 401 669 l 478 669 l 478 772 l -50 772 l -50 869 l 836 869 l 836 772 m 332 247 l 332 531 q 324 564 332 556 q 292 572 317 572 l 217 572 q 183 565 192 572 q 175 531 175 557 l 175 247 q 183 213 175 221 q 217 206 192 206 l 292 206 q 324 214 317 206 q 332 247 332 222 m 611 247 l 611 531 q 603 565 611 557 q 571 572 596 572 l 496 572 q 462 564 469 572 q 454 531 454 556 l 454 247 q 462 214 454 222 q 496 206 469 206 l 571 206 q 603 213 596 206 q 611 247 611 221 m 104 -118 l 104 14 l 219 14 l 219 -118 l 104 -118 z "},"व":{"ha":524,"x_min":-28,"x_max":551,"o":"m 551 869 l 551 772 l 451 772 l 451 0 l 326 0 l 326 124 q 276 108 311 108 l 189 108 q 64 232 64 108 l 64 551 q 94 641 64 613 q 192 669 125 669 l 271 669 l 271 572 l 231 572 q 198 565 206 572 q 190 532 190 557 l 190 247 q 198 213 190 221 q 231 206 206 206 l 283 206 q 317 215 307 206 q 326 250 326 225 l 326 772 l -28 772 l -28 869 l 551 869 z "},"श":{"ha":760,"x_min":67,"x_max":788,"o":"m 563 869 l 788 869 l 788 772 l 688 772 l 688 0 l 563 0 l 563 869 m 197 872 l 324 872 q 451 751 451 872 l 451 482 q 313 363 451 363 l 192 363 l 192 135 q 200 102 192 110 q 233 94 208 94 l 285 94 q 316 102 308 94 q 324 135 324 110 l 324 268 l 449 268 l 449 118 q 418 29 449 58 q 322 0 388 0 l 194 0 q 97 29 128 0 q 67 118 67 58 l 67 529 l 192 529 l 192 460 l 282 460 q 317 469 308 460 q 326 504 326 478 l 326 735 q 318 767 326 760 q 285 775 310 775 l 233 775 q 202 767 210 775 q 194 735 194 760 l 194 628 l 69 628 l 69 751 q 197 872 69 872 z "},"ष":{"ha":589,"x_min":-28,"x_max":617,"o":"m 617 869 l 617 772 l 517 772 l 517 0 l 392 0 l 392 124 q 342 108 376 108 l 197 108 q 72 232 72 108 l 72 772 l -28 772 l -28 869 l 617 869 m 238 206 l 347 206 q 389 226 382 206 l 253 501 l 185 653 q 197 485 197 583 l 197 247 q 206 214 197 222 q 238 206 214 206 m 392 526 l 392 772 l 196 772 q 403 336 372 419 q 392 526 392 414 z "},"स":{"ha":764,"x_min":-28,"x_max":792,"o":"m 792 869 l 792 772 l 692 772 l 692 0 l 568 0 l 568 386 l 186 386 l 186 135 q 194 102 186 110 q 226 94 203 94 l 279 94 q 310 102 303 94 q 318 135 318 110 l 318 292 l 443 292 l 443 118 q 413 29 443 58 q 315 0 382 0 l 189 0 q 92 29 122 0 q 61 118 61 58 l 61 626 l 186 626 l 186 483 l 276 483 q 312 492 303 483 q 321 528 321 500 l 321 728 q 312 764 321 756 q 276 772 303 772 l -28 772 l -28 869 l 792 869 m 568 483 l 568 772 l 435 772 q 446 736 446 761 l 446 557 q 425 483 446 504 l 568 483 z "},"ह":{"ha":540,"x_min":-28,"x_max":579,"o":"m 468 572 l 238 572 q 206 565 214 572 q 197 533 197 557 l 197 476 q 206 445 197 453 q 238 438 214 438 l 346 438 q 447 408 415 438 q 479 314 479 379 l 479 238 l 354 238 l 354 299 q 346 333 354 325 q 313 340 338 340 l 238 340 q 206 333 214 340 q 197 299 197 325 l 197 139 q 206 106 197 114 q 238 97 214 97 l 479 97 l 479 0 l 206 0 q 72 124 72 0 l 72 318 q 126 386 72 379 l 126 389 q 72 457 72 396 l 72 551 q 103 641 72 613 q 200 669 133 669 l 343 669 l 343 772 l -28 772 l -28 869 l 579 869 l 579 772 l 468 772 l 468 572 z "},"़":{"ha":0,"x_min":-190,"x_max":-75,"o":"m -190 -86 l -75 -86 l -75 -218 l -190 -218 l -190 -86 z "},"ऽ":{"ha":511,"x_min":64,"x_max":447,"o":"m 422 775 l 244 775 q 212 767 219 775 q 204 735 204 760 l 204 560 q 212 528 204 536 q 244 521 219 521 l 319 521 q 417 492 386 521 q 447 403 447 463 l 447 118 q 417 29 447 58 q 319 0 386 0 l 192 0 q 94 29 125 0 q 64 118 64 58 l 64 228 l 189 228 l 189 135 q 197 102 189 110 q 228 94 204 94 l 282 94 q 314 102 306 94 q 322 135 322 110 l 322 386 q 314 417 322 410 q 282 425 306 425 l 206 425 q 110 454 140 425 q 79 543 79 483 l 79 751 q 109 841 79 813 q 206 869 139 869 l 422 869 l 422 775 z "},"ा":{"ha":271,"x_min":-26,"x_max":297,"o":"m 297 869 l 297 772 l 197 772 l 197 0 l 74 0 l 74 772 l -26 772 l -26 869 l 297 869 z "},"ि":{"ha":269,"x_min":-28,"x_max":713,"o":"m 194 1142 l 590 1142 q 713 1024 713 1142 l 713 929 l 586 929 l 586 1000 q 578 1037 586 1029 q 542 1044 571 1044 l 242 1044 q 206 1036 214 1044 q 197 1000 197 1028 l 197 869 l 297 869 l 297 772 l 197 772 l 197 0 l 72 0 l 72 772 l -28 772 l -28 869 l 72 869 l 72 1024 q 194 1142 72 1142 z "},"ी":{"ha":269,"x_min":-206,"x_max":297,"o":"m 297 869 l 297 772 l 197 772 l 197 0 l 72 0 l 72 772 l -28 772 l -28 869 l 72 869 l 72 1000 q 64 1036 72 1028 q 28 1044 56 1044 l -36 1044 q -73 1037 -65 1044 q -81 1000 -81 1029 l -81 929 l -206 929 l -206 1024 q -83 1142 -206 1142 l 75 1142 q 197 1024 197 1142 l 197 869 l 297 869 z "},"ु":{"ha":0,"x_min":-468,"x_max":58,"o":"m -67 3 q 58 -121 58 3 l 58 -197 q -67 -321 58 -321 l -217 -321 q -340 -300 -300 -321 q -418 -212 -381 -279 l -468 -128 l -319 -128 l -286 -183 q -211 -224 -261 -224 l -110 -224 q -75 -216 -83 -224 q -67 -181 -67 -208 l -67 -137 q -75 -103 -67 -111 q -110 -94 -83 -94 l -197 -94 l -197 3 l -67 3 z "},"ू":{"ha":0,"x_min":-322,"x_max":242,"o":"m -83 3 q 31 -19 -7 3 q 107 -103 68 -40 l 242 -319 l 93 -319 l -19 -140 q -87 -96 -49 -96 l -153 -96 q -188 -103 -181 -96 q -196 -139 -196 -111 l -196 -181 q -188 -216 -196 -208 q -153 -224 -181 -224 l -79 -224 l -79 -322 l -197 -322 q -322 -197 -322 -322 l -322 -121 q -197 3 -322 3 l -83 3 z "},"ृ":{"ha":0,"x_min":-312,"x_max":-18,"o":"m -72 3 l -72 -96 l -144 -96 q -180 -103 -172 -96 q -187 -139 -187 -111 l -187 -181 q -180 -216 -187 -208 q -144 -224 -172 -224 l -18 -224 l -18 -322 l -187 -322 q -312 -197 -312 -322 l -312 -121 q -187 3 -312 3 l -72 3 z "},"ॄ":{"ha":0,"x_min":-307,"x_max":-12,"o":"m -307 -112 q -186 3 -307 3 l -72 3 l -72 -96 l -142 -96 q -174 -103 -167 -96 q -182 -136 -182 -111 l -182 -183 q -174 -216 -182 -208 q -142 -224 -167 -224 l -75 -224 l -75 -322 l -142 -322 q -174 -330 -167 -322 q -182 -362 -182 -337 l -182 -410 q -174 -442 -182 -435 q -142 -450 -167 -450 l -12 -450 l -12 -547 l -174 -547 q -274 -517 -242 -547 q -307 -424 -307 -487 l -307 -343 q -253 -276 -307 -281 l -253 -272 q -307 -204 -307 -268 l -307 -112 z "},"ॅ":{"ha":0,"x_min":-349,"x_max":79,"o":"m -349 1126 l -237 1126 l -237 1061 q -230 1028 -237 1036 q -196 1019 -222 1019 l -74 1019 q -40 1028 -47 1019 q -32 1061 -32 1036 l -32 1126 l 79 1126 l 79 1049 q -51 933 79 933 l -218 933 q -349 1049 -349 933 l -349 1126 z "},"ॆ":{"ha":0,"x_min":-465,"x_max":-72,"o":"m -465 1140 l -340 1140 l -340 1100 q -332 1064 -340 1072 q -294 1056 -324 1056 l -186 1056 q -72 942 -72 1056 l -72 818 l -197 818 l -197 913 q -206 949 -197 940 q -242 957 -214 957 l -351 957 q -465 1071 -465 957 l -465 1140 z "},"े":{"ha":0,"x_min":-426,"x_max":-78,"o":"m -276 1138 l -78 854 l -201 854 q -335 1011 -251 899 l -426 1138 l -276 1138 z "},"ै":{"ha":0,"x_min":-518,"x_max":-76,"o":"m -518 1138 l -360 1138 l -301 1071 q -149 874 -200 958 l -143 874 q -190 975 -165 915 q -258 1138 -190 975 l -133 1138 l -76 858 l -197 858 q -331 964 -246 886 l -518 1138 z "},"ॉ":{"ha":271,"x_min":-79,"x_max":349,"o":"m 238 1126 l 349 1126 l 349 1049 q 218 933 349 933 l 51 933 q -79 1049 -79 933 l -79 1126 l 32 1126 l 32 1061 q 40 1028 32 1036 q 74 1019 47 1019 l 196 1019 q 230 1028 222 1019 q 238 1061 238 1036 l 238 1126 m -26 772 l -26 869 l 297 869 l 297 772 l 197 772 l 197 0 l 74 0 l 74 772 l -26 772 z "},"ॊ":{"ha":271,"x_min":-196,"x_max":297,"o":"m 297 869 l 297 772 l 197 772 l 197 0 l 74 0 l 74 772 l -26 772 l -26 869 l 72 869 l 72 913 q 64 949 72 940 q 28 957 56 957 l -82 957 q -196 1071 -196 957 l -196 1140 l -71 1140 l -71 1100 q -62 1064 -71 1072 q -25 1056 -54 1056 l 83 1056 q 197 942 197 1056 l 197 869 l 297 869 z "},"ो":{"ha":271,"x_min":-153,"x_max":297,"o":"m 297 869 l 297 772 l 197 772 l 197 0 l 74 0 l 74 772 l -26 772 l -26 869 l 56 869 q -61 1011 11 914 l -153 1138 l -3 1138 l 185 869 l 297 869 z "},"ौ":{"ha":271,"x_min":-244,"x_max":297,"o":"m 297 869 l 297 772 l 197 772 l 197 0 l 74 0 l 74 772 l -26 772 l -26 869 l 58 869 q -57 964 1 911 l -244 1138 l -86 1138 l -28 1071 q 125 874 74 958 l 131 874 q 83 975 108 915 q 15 1138 83 975 l 140 1138 l 194 869 l 297 869 z "},"्":{"ha":0,"x_min":-218,"x_max":61,"o":"m -86 -85 l 61 -271 l -71 -271 l -218 -85 l -86 -85 z "},"ॐ":{"ha":938,"x_min":47,"x_max":872,"o":"m 744 485 q 872 364 872 485 l 872 121 q 744 0 872 0 l 639 0 q 513 121 513 0 l 513 256 l 638 256 l 638 138 q 645 105 638 113 q 678 97 653 97 l 706 97 q 738 105 731 97 q 746 138 746 113 l 746 347 q 738 378 746 371 q 706 386 731 386 l 411 386 q 429 328 429 371 l 429 121 q 301 0 429 0 l 175 0 q 47 121 47 0 l 47 261 l 172 261 l 172 138 q 181 105 172 113 q 214 97 189 97 l 263 97 q 296 105 288 97 q 304 138 304 113 l 304 343 q 294 377 304 368 q 260 386 285 386 l 175 386 l 175 485 l 260 485 q 294 494 285 485 q 304 529 304 503 l 304 732 q 296 765 304 757 q 263 772 288 772 l 214 772 q 181 765 189 772 q 172 732 172 757 l 172 613 l 47 613 l 47 749 q 175 869 47 869 l 301 869 q 429 749 429 869 l 429 690 l 628 690 q 661 698 653 690 q 669 732 669 706 l 669 796 l 789 796 l 789 714 q 663 592 789 592 l 429 592 l 429 544 q 410 485 429 500 l 744 485 m 594 890 l 594 778 l 485 778 l 485 890 l 594 890 z "},"क़":{"ha":761,"x_min":-28,"x_max":789,"o":"m 789 772 l 443 772 l 443 656 q 493 669 458 669 l 581 669 q 706 546 706 669 l 706 226 q 675 138 706 167 q 578 108 644 108 l 499 108 l 499 203 l 539 203 q 572 210 564 203 q 581 243 581 218 l 581 531 q 572 565 581 557 q 539 572 564 572 l 488 572 q 453 563 463 572 q 443 528 443 554 l 443 0 l 318 0 l 318 124 q 267 108 303 108 l 181 108 q 56 232 56 108 l 56 551 q 86 641 56 613 q 183 669 117 669 l 261 669 l 261 575 l 221 575 q 189 567 197 575 q 181 535 181 560 l 181 247 q 189 214 181 222 q 221 206 197 206 l 274 206 q 308 215 299 206 q 318 250 318 225 l 318 772 l -28 772 l -28 869 l 789 869 l 789 772 m 83 -100 l 83 32 l 199 32 l 199 -100 l 83 -100 z "},"ख़":{"ha":913,"x_min":-28,"x_max":940,"o":"m 940 869 l 940 772 l 840 772 l 840 0 l 719 0 l 719 174 q 664 153 706 153 l 589 153 q 464 276 464 153 l 464 536 q 494 626 464 597 q 592 654 525 654 l 675 654 l 675 560 l 625 560 q 592 552 600 560 q 585 519 585 544 l 585 292 q 592 259 585 267 q 625 251 600 251 l 668 251 q 708 263 696 251 q 719 301 719 274 l 719 772 l 392 772 q 403 736 403 761 l 403 457 q 275 338 403 338 l 190 338 l 190 144 q 198 109 190 117 q 233 101 206 101 l 540 101 l 540 0 l 204 0 q 98 29 132 0 q 64 121 64 58 l 64 654 l 190 654 l 190 435 l 233 435 q 269 444 261 435 q 278 479 278 453 l 278 728 q 269 764 278 756 q 233 772 261 772 l -28 772 l -28 869 l 940 869 m 186 -214 l 186 -82 l 301 -82 l 301 -214 l 186 -214 z "},"ग़":{"ha":774,"x_min":-28,"x_max":801,"o":"m 801 869 l 801 772 l 701 772 l 701 0 l 576 0 l 576 772 l 439 772 l 439 232 q 407 138 439 168 q 306 108 375 108 l 181 108 q 79 138 111 108 q 47 232 47 168 l 47 485 q 186 606 47 606 l 314 606 l 314 772 l -28 772 l -28 869 l 801 869 m 213 206 l 272 206 q 306 213 297 206 q 314 247 314 221 l 314 507 l 215 507 q 181 499 189 507 q 172 464 172 492 l 172 247 q 181 214 172 222 q 213 206 189 206 m 181 -131 l 181 1 l 296 1 l 296 -131 l 181 -131 z "},"ज़":{"ha":750,"x_min":-28,"x_max":778,"o":"m 778 869 l 778 772 l 678 772 l 678 0 l 553 0 l 553 572 l 436 572 l 436 232 q 404 138 436 168 q 303 108 372 108 l 194 108 q 93 138 125 108 q 61 232 61 168 l 61 669 l 186 669 l 186 247 q 194 213 186 221 q 228 206 203 206 l 271 206 q 303 214 294 206 q 311 247 311 222 l 311 669 l 553 669 l 553 772 l -28 772 l -28 869 l 778 869 m 189 -129 l 189 3 l 304 3 l 304 -129 l 189 -129 z "},"ड़":{"ha":522,"x_min":-28,"x_max":550,"o":"m 426 575 l 242 575 q 209 567 217 575 q 201 535 201 560 l 201 451 q 209 420 201 428 q 242 413 217 413 l 317 413 q 414 383 383 413 q 444 294 444 354 l 444 118 q 414 29 444 58 q 317 0 383 0 l 189 0 q 92 29 122 0 q 61 118 61 58 l 61 228 l 186 228 l 186 135 q 194 102 186 110 q 225 94 201 94 l 279 94 q 311 102 303 94 q 319 135 319 110 l 319 278 q 311 309 319 301 q 279 317 303 317 l 203 317 q 107 346 138 317 q 76 435 76 375 l 76 551 q 106 641 76 613 q 203 669 136 669 l 301 669 l 301 772 l -28 772 l -28 869 l 550 869 l 550 772 l 426 772 l 426 575 m 192 -210 l 192 -78 l 307 -78 l 307 -210 l 192 -210 z "},"ढ़":{"ha":564,"x_min":-28,"x_max":592,"o":"m 440 572 l 239 572 q 206 565 214 572 q 197 531 197 557 l 197 139 q 206 105 197 113 q 239 97 214 97 l 329 97 q 361 106 353 97 q 369 139 369 114 l 369 261 q 361 294 369 286 q 329 301 353 301 l 271 301 l 271 399 l 361 399 q 464 369 432 399 q 496 275 496 340 l 496 124 q 464 30 496 60 q 361 0 432 0 l 206 0 q 104 30 136 0 q 72 124 72 60 l 72 551 q 103 641 72 613 q 200 669 133 669 l 315 669 l 315 772 l -28 772 l -28 869 l 592 869 l 592 772 l 440 772 l 440 572 m 228 -206 l 228 -74 l 343 -74 l 343 -206 l 228 -206 z "},"फ़":{"ha":769,"x_min":-28,"x_max":797,"o":"m 797 772 l 451 772 l 451 654 q 503 669 467 669 l 589 669 q 714 546 714 669 l 714 226 q 683 138 714 167 q 588 108 653 108 l 508 108 l 508 203 l 549 203 q 581 210 574 203 q 589 243 589 218 l 589 531 q 581 565 589 557 q 549 572 574 572 l 496 572 q 461 563 471 572 q 451 528 451 554 l 451 0 l 326 0 l 326 124 q 276 108 311 108 l 189 108 q 64 232 64 108 l 64 772 l -28 772 l -28 869 l 797 869 l 797 772 m 326 250 l 326 772 l 190 772 l 190 247 q 198 213 190 221 q 231 206 206 206 l 283 206 q 317 215 307 206 q 326 250 326 225 m 132 -132 l 132 0 l 247 0 l 247 -132 l 132 -132 z "},"य़":{"ha":653,"x_min":-50,"x_max":681,"o":"m 681 869 l 681 772 l 581 772 l 581 0 l 456 0 l 456 124 q 406 108 440 108 l 183 108 q 50 232 50 108 l 50 525 l 175 525 q 207 533 199 525 q 215 564 215 540 l 215 726 q 206 765 215 757 q 154 772 196 772 l -50 772 l -50 869 l 681 869 m 456 253 l 456 772 l 325 772 q 338 729 338 758 l 338 547 q 213 426 338 426 l 175 426 l 175 247 q 183 213 175 221 q 217 206 192 206 l 408 206 q 446 215 436 206 q 456 253 456 225 m 233 -125 l 233 7 l 349 7 l 349 -125 l 233 -125 z "},"ॠ":{"ha":981,"x_min":-28,"x_max":1013,"o":"m 506 772 l 506 371 l 619 371 q 600 443 600 392 l 600 547 q 733 669 600 669 l 807 669 q 940 547 940 669 l 940 399 q 909 306 940 336 q 807 275 878 275 l 761 275 q 733 267 740 275 q 725 235 725 258 l 725 188 q 733 155 725 163 q 767 147 742 147 l 826 147 l 826 50 l 767 50 q 733 42 742 50 q 725 8 725 35 l 725 -39 q 733 -72 725 -64 q 767 -79 742 -79 l 890 -79 l 890 -176 l 733 -176 q 633 -147 665 -176 q 600 -53 600 -117 l 600 28 q 654 94 600 90 l 654 99 q 600 167 600 103 l 600 235 q 615 275 600 263 l 506 275 l 506 0 l 381 0 l 381 275 l 349 275 l 161 0 l 19 0 l 249 336 l 168 493 q 124 552 144 536 q 63 568 103 568 l 17 568 l 17 668 l 88 668 q 195 649 161 668 q 260 574 229 629 l 368 371 l 381 371 l 381 772 l -28 772 l -28 869 l 1013 869 l 1013 772 l 506 772 m 725 535 l 725 411 q 733 379 725 388 q 764 371 740 371 l 778 371 q 808 379 801 371 q 815 411 815 388 l 815 535 q 808 567 815 558 q 778 575 801 575 l 764 575 q 733 567 740 575 q 725 535 725 558 z "},"ॡ":{"ha":751,"x_min":-28,"x_max":779,"o":"m 688 233 l 618 233 q 585 226 593 233 q 576 192 576 218 l 576 146 q 585 112 576 119 q 618 104 593 104 l 683 104 l 683 7 l 618 7 q 585 -1 593 7 q 576 -35 576 -8 l 576 -81 q 585 -115 576 -107 q 618 -122 593 -122 l 747 -122 l 747 -219 l 585 -219 q 451 -96 451 -219 l 451 -15 q 506 51 451 47 l 506 56 q 451 124 451 63 l 451 215 q 561 331 451 324 l 561 572 l 478 572 q 444 564 451 572 q 436 531 436 556 l 436 344 l 311 344 l 311 531 q 303 564 311 556 q 271 572 296 572 l 226 572 q 194 564 203 572 q 186 531 186 556 l 186 140 q 194 109 186 117 q 226 101 203 101 l 297 101 l 297 0 l 189 0 q 92 29 122 0 q 61 118 61 58 l 61 546 q 186 669 61 669 l 306 669 q 374 615 369 669 l 378 615 q 444 669 382 669 l 561 669 l 561 772 l -28 772 l -28 869 l 779 869 l 779 772 l 688 772 l 688 233 z "},"।":{"ha":475,"x_min":178,"x_max":297,"o":"m 297 913 l 297 -43 l 178 -43 l 178 913 l 297 913 z "},"॥":{"ha":726,"x_min":178,"x_max":549,"o":"m 549 913 l 549 -43 l 429 -43 l 429 913 l 549 913 m 297 913 l 297 -43 l 178 -43 l 178 913 l 297 913 z "},"०":{"ha":542,"x_min":65,"x_max":476,"o":"m 350 142 l 350 728 q 342 760 350 753 q 308 768 333 768 l 233 768 q 201 760 208 768 q 193 728 193 753 l 193 142 q 201 109 193 117 q 233 101 208 101 l 308 101 q 342 109 333 101 q 350 142 350 117 m 476 747 l 476 122 q 347 0 476 0 l 196 0 q 65 122 65 0 l 65 747 q 196 869 65 869 l 347 869 q 476 747 476 869 z "},"१":{"ha":326,"x_min":28,"x_max":254,"o":"m 254 869 l 254 0 l 128 0 l 128 768 l 28 768 l 28 869 l 254 869 z "},"२":{"ha":456,"x_min":35,"x_max":419,"o":"m 160 728 l 160 586 l 35 586 l 35 747 q 164 869 35 869 l 283 869 q 414 747 414 869 l 414 660 q 365 469 414 563 l 178 101 l 419 101 l 419 0 l 36 0 l 36 97 l 249 497 q 288 664 288 571 l 288 728 q 280 760 288 753 q 246 768 272 768 l 201 768 q 168 760 176 768 q 160 728 160 753 z "},"३":{"ha":493,"x_min":40,"x_max":428,"o":"m 165 728 l 165 597 l 40 597 l 40 747 q 169 869 40 869 l 297 869 q 428 747 428 869 l 428 528 q 372 442 428 454 q 428 361 428 429 l 428 122 q 297 0 428 0 l 169 0 q 40 122 40 0 l 40 271 l 165 271 l 165 142 q 174 109 165 117 q 207 101 182 101 l 261 101 q 294 109 286 101 q 303 142 303 117 l 303 350 q 294 383 303 375 q 261 390 286 390 l 157 390 l 157 490 l 261 490 q 294 498 286 490 q 303 531 303 506 l 303 728 q 294 760 303 753 q 261 768 286 768 l 207 768 q 174 760 182 768 q 165 728 165 753 z "},"४":{"ha":504,"x_min":8,"x_max":504,"o":"m 504 275 l 504 172 l 426 172 l 426 0 l 306 0 l 306 172 l 8 172 l 8 276 l 258 869 l 383 869 l 128 275 l 306 275 l 306 442 l 426 442 l 426 275 l 504 275 z "},"५":{"ha":497,"x_min":56,"x_max":449,"o":"m 183 543 l 318 543 q 449 421 449 543 l 449 122 q 318 0 449 0 l 185 0 q 56 122 56 0 l 56 276 l 182 276 l 182 142 q 190 109 182 117 q 224 101 199 101 l 281 101 q 314 109 306 101 q 322 142 322 117 l 322 401 q 314 435 322 426 q 281 443 306 443 l 58 443 l 58 869 l 446 869 l 446 768 l 183 768 l 183 543 z "},"६":{"ha":531,"x_min":65,"x_max":472,"o":"m 190 500 l 343 500 q 472 376 472 500 l 472 122 q 343 0 472 0 l 196 0 q 65 122 65 0 l 65 747 q 196 869 65 869 l 339 869 q 468 747 468 869 l 468 597 l 344 597 l 344 728 q 336 760 344 753 q 303 768 328 768 l 232 768 q 199 760 207 768 q 190 728 190 753 l 190 500 m 347 142 l 347 360 q 339 392 347 383 q 306 400 331 400 l 190 400 l 190 142 q 199 109 190 117 q 232 101 207 101 l 306 101 q 339 109 331 101 q 347 142 347 117 z "},"७":{"ha":404,"x_min":8,"x_max":397,"o":"m 397 869 l 397 792 l 164 0 l 36 0 l 263 765 l 8 765 l 8 869 l 397 869 z "},"८":{"ha":540,"x_min":65,"x_max":475,"o":"m 475 747 l 475 524 q 421 438 475 450 q 475 356 475 422 l 475 122 q 346 0 475 0 l 194 0 q 65 122 65 0 l 65 356 q 119 438 65 422 q 65 524 65 450 l 65 747 q 194 869 65 869 l 346 869 q 475 747 475 869 m 351 142 l 351 350 q 344 382 351 374 q 311 390 336 390 l 229 390 q 197 382 204 390 q 189 350 189 374 l 189 142 q 197 108 189 117 q 229 100 204 100 l 311 100 q 344 108 336 100 q 351 142 351 117 m 351 526 l 351 729 q 344 761 351 753 q 311 769 336 769 l 229 769 q 197 761 204 769 q 189 729 189 753 l 189 526 q 197 494 189 503 q 229 486 204 486 l 311 486 q 344 494 336 486 q 351 526 351 503 z "},"९":{"ha":525,"x_min":53,"x_max":460,"o":"m 182 869 l 329 869 q 460 747 460 869 l 460 122 q 329 0 460 0 l 186 0 q 56 122 56 0 l 56 271 l 181 271 l 181 142 q 188 109 181 117 q 222 101 196 101 l 293 101 q 326 109 318 101 q 333 142 333 117 l 333 356 l 182 356 q 53 479 53 356 l 53 747 q 182 869 53 869 m 219 454 l 333 454 l 333 728 q 326 760 333 753 q 293 768 318 768 l 219 768 q 186 760 194 768 q 178 728 178 753 l 178 494 q 186 463 178 471 q 219 454 194 454 z "},"॰":{"ha":503,"x_min":81,"x_max":422,"o":"m 251 519 q 217 519 251 519 q 183 428 183 519 q 251 336 183 336 q 319 428 319 336 q 251 519 319 519 m 126 294 q 103 318 126 294 q 81 428 81 342 q 126 562 81 514 q 251 610 172 610 q 376 562 329 610 q 422 428 422 514 q 376 294 422 342 q 251 246 329 246 q 126 294 172 246 z "},"ॲ":{"ha":679,"x_min":47,"x_max":850,"o":"m 739 1126 l 850 1126 l 850 1049 q 719 933 850 933 l 553 933 q 422 1049 422 933 l 422 1126 l 533 1126 l 533 1061 q 541 1028 533 1036 q 575 1019 549 1019 l 697 1019 q 731 1028 724 1019 q 739 1061 739 1036 l 739 1126 m 789 869 l 789 772 l 689 772 l 689 0 l 565 0 l 565 392 l 429 392 l 429 229 q 301 108 429 108 l 175 108 q 47 229 47 108 l 47 358 l 174 358 l 174 246 q 181 213 174 221 q 214 206 189 206 l 264 206 q 296 213 288 206 q 304 246 304 221 l 304 394 q 294 428 304 419 q 260 438 285 438 l 176 438 l 176 536 l 260 536 q 294 545 285 536 q 304 581 304 554 l 304 733 q 296 766 304 758 q 264 774 288 774 l 214 774 q 181 766 189 774 q 174 733 174 758 l 174 624 l 47 624 l 47 750 q 175 871 47 871 l 301 871 q 429 750 429 871 l 429 557 q 375 489 429 496 l 375 488 l 565 488 l 565 869 l 789 869 z "},"​":{"ha":0,"x_min":0,"x_max":0,"o":""},"‌":{"ha":0,"x_min":-32,"x_max":33,"o":"m 33 -319 l -32 -319 l -32 1126 l 33 1126 l 33 -319 z "},"‍":{"ha":0,"x_min":-176,"x_max":179,"o":"m 33 -319 l -32 -319 l -32 882 l -128 781 l -174 826 l -44 956 l -176 1088 l -131 1133 l 1 1001 l 135 1133 l 179 1089 l 46 956 l 179 824 l 133 778 l 33 882 l 33 -319 z "},"–":{"ha":583,"x_min":35,"x_max":517,"o":"m 35 360 l 35 457 l 517 457 l 517 360 l 35 360 z "},"—":{"ha":744,"x_min":14,"x_max":728,"o":"m 14 360 l 14 457 l 728 457 l 728 360 l 14 360 z "},"‘":{"ha":231,"x_min":44,"x_max":185,"o":"m 185 506 l 44 506 l 44 594 l 142 869 l 185 869 l 185 506 z "},"’":{"ha":231,"x_min":44,"x_max":185,"o":"m 44 869 l 185 869 l 185 779 l 88 506 l 44 506 l 44 869 z "},"‚":{"ha":229,"x_min":44,"x_max":185,"o":"m 44 171 l 185 171 l 185 81 l 89 -194 l 44 -194 l 44 171 z "},"“":{"ha":436,"x_min":44,"x_max":392,"o":"m 185 506 l 44 506 l 44 594 l 142 869 l 185 869 l 185 506 m 392 506 l 251 506 l 251 594 l 349 869 l 392 869 l 392 506 z "},"”":{"ha":436,"x_min":44,"x_max":392,"o":"m 251 869 l 392 869 l 392 779 l 294 506 l 251 506 l 251 869 m 44 869 l 185 869 l 185 779 l 88 506 l 44 506 l 44 869 z "},"„":{"ha":436,"x_min":44,"x_max":392,"o":"m 251 171 l 392 171 l 392 81 l 294 -194 l 251 -194 l 251 171 m 44 171 l 185 171 l 185 81 l 88 -194 l 44 -194 l 44 171 z "},"†":{"ha":503,"x_min":8,"x_max":494,"o":"m 494 646 l 494 547 l 314 547 l 314 -153 l 189 -153 l 189 547 l 8 547 l 8 646 l 189 646 l 189 869 l 314 869 l 314 646 l 494 646 z "},"‡":{"ha":533,"x_min":24,"x_max":510,"o":"m 510 547 l 329 547 l 329 110 l 510 110 l 510 13 l 329 13 l 329 -212 l 204 -212 l 204 13 l 24 13 l 24 110 l 204 110 l 204 547 l 24 547 l 24 646 l 204 646 l 204 869 l 329 869 l 329 646 l 510 646 l 510 547 z "},"•":{"ha":550,"x_min":93,"x_max":457,"o":"m 147 317 q 120 344 147 317 q 93 446 93 371 q 147 574 93 521 q 275 628 200 628 q 403 574 350 628 q 457 446 457 521 q 403 317 457 371 q 275 264 350 264 q 147 317 200 264 z "},"…":{"ha":771,"x_min":72,"x_max":764,"o":"m 613 0 l 613 165 l 764 165 l 764 0 l 613 0 m 343 0 l 343 165 l 493 165 l 493 0 l 343 0 m 72 0 l 72 165 l 224 165 l 224 0 l 72 0 z "},"‰":{"ha":1271,"x_min":40,"x_max":1231,"o":"m 1128 122 l 1128 347 q 1121 378 1128 371 q 1090 385 1114 385 l 1061 385 q 1031 378 1038 385 q 1025 347 1025 371 l 1025 122 q 1031 92 1025 99 q 1061 85 1038 85 l 1090 85 q 1121 92 1114 85 q 1128 122 1128 99 m 1231 363 l 1231 107 q 1122 0 1231 0 l 1029 0 q 922 107 922 0 l 922 363 q 1029 469 922 469 l 1122 469 q 1231 363 1231 469 m 596 869 l 700 869 l 294 0 l 192 0 l 596 869 m 747 122 l 747 347 q 741 378 747 371 q 711 385 735 385 l 682 385 q 651 378 658 385 q 644 347 644 371 l 644 122 q 651 92 644 99 q 682 85 658 85 l 711 85 q 741 92 735 85 q 747 122 747 99 m 246 524 l 246 747 q 239 778 246 771 q 210 785 232 785 l 179 785 q 149 778 156 785 q 143 747 143 771 l 143 524 q 149 492 143 499 q 179 485 156 485 l 210 485 q 239 492 232 485 q 246 524 246 500 m 850 363 l 850 107 q 743 0 850 0 l 650 0 q 542 107 542 0 l 542 363 q 650 469 542 469 l 743 469 q 850 363 850 469 m 349 763 l 349 507 q 240 400 349 400 l 149 400 q 40 507 40 400 l 40 763 q 66 843 40 817 q 149 869 92 869 l 240 869 q 323 843 297 869 q 349 763 349 817 z "},"‹":{"ha":403,"x_min":51,"x_max":350,"o":"m 217 144 l 51 360 l 217 575 l 350 575 l 183 358 l 350 144 l 217 144 z "},"›":{"ha":404,"x_min":51,"x_max":350,"o":"m 350 360 l 185 144 l 51 144 l 219 358 l 51 575 l 185 575 l 350 360 z "},"⁄":{"ha":542,"x_min":3,"x_max":499,"o":"m 382 972 l 499 972 l 119 -167 l 3 -167 l 382 972 z "},"€":{"ha":554,"x_min":32,"x_max":503,"o":"m 503 597 l 376 597 l 376 731 q 368 763 376 756 q 335 771 360 771 l 264 771 q 231 763 239 771 q 224 731 224 756 l 224 563 l 344 563 l 344 471 l 224 471 l 224 400 l 344 400 l 344 307 l 224 307 l 224 138 q 231 105 224 113 q 264 97 239 97 l 335 97 q 368 105 360 97 q 376 138 376 113 l 376 269 l 503 269 l 503 122 q 374 -1 503 -1 l 226 -1 q 96 122 96 -1 l 96 307 l 32 307 l 32 400 l 96 400 l 96 471 l 32 471 l 32 563 l 96 563 l 96 747 q 226 869 96 869 l 374 869 q 503 747 503 869 l 503 597 z "},"₹":{"ha":510,"x_min":56,"x_max":443,"o":"m 443 869 l 443 776 l 350 776 q 364 717 364 757 l 364 658 l 443 658 l 443 564 l 364 564 l 364 472 q 331 378 364 408 q 228 349 299 349 l 186 349 l 392 0 l 258 0 l 56 349 l 56 446 l 197 446 q 230 453 222 446 q 238 488 238 461 l 238 564 l 56 564 l 56 658 l 238 658 l 238 736 q 230 768 238 760 q 197 776 222 776 l 56 776 l 56 869 l 443 869 z "},"™":{"ha":869,"x_min":8,"x_max":828,"o":"m 828 869 l 828 419 l 728 419 l 728 710 l 660 496 l 564 496 l 493 710 l 493 419 l 394 419 l 394 869 l 525 869 l 611 613 l 696 869 l 828 869 m 8 778 l 8 869 l 344 869 l 344 778 l 231 778 l 231 419 l 121 419 l 121 778 l 8 778 z "},"Ω":{"ha":561,"x_min":15,"x_max":546,"o":"m 546 101 l 546 0 l 307 0 l 307 101 l 324 101 q 355 110 347 101 q 363 144 363 119 l 363 728 q 354 760 363 753 q 321 768 346 768 l 240 768 q 207 760 215 768 q 199 728 199 753 l 199 144 q 206 110 199 119 q 238 101 214 101 l 254 101 l 254 0 l 15 0 l 15 101 l 107 101 q 74 182 74 122 l 74 747 q 203 869 74 869 l 358 869 q 488 747 488 869 l 488 182 q 454 101 488 122 l 546 101 z "},"∏":{"ha":606,"x_min":11,"x_max":533,"o":"m 532 819 l 533 819 l 533 0 l 407 0 l 407 771 l 219 771 l 219 122 q 89 0 219 0 l 11 0 l 11 107 l 53 107 q 85 115 78 107 q 93 147 93 122 l 93 869 l 532 869 l 532 819 z "},"−":{"ha":611,"x_min":32,"x_max":535,"o":"m 32 383 l 32 486 l 535 486 l 535 383 l 32 383 z "},"∕":{"ha":542,"x_min":3,"x_max":499,"o":"m 382 972 l 499 972 l 119 -167 l 3 -167 l 382 972 z "},"∙":{"ha":229,"x_min":44,"x_max":185,"o":"m 44 350 l 44 521 l 185 521 l 185 350 l 44 350 z "},"∞":{"ha":819,"x_min":51,"x_max":768,"o":"m 575 686 l 640 686 q 768 568 768 686 l 768 400 q 640 281 768 281 l 588 281 q 499 296 528 281 q 433 361 469 311 l 410 396 q 328 300 361 319 q 222 281 296 281 l 178 281 q 51 400 51 281 l 51 568 q 178 686 51 686 l 229 686 q 312 669 285 686 q 376 601 339 651 l 407 558 l 431 594 q 492 669 468 653 q 575 686 515 686 m 200 371 l 243 371 q 311 411 285 371 l 354 476 l 304 549 q 271 585 285 575 q 231 596 257 596 l 200 596 q 165 586 172 596 q 157 549 157 576 l 157 418 q 165 380 157 389 q 200 371 172 371 m 663 418 l 663 550 q 655 588 663 578 q 619 597 647 597 l 561 597 q 535 590 544 597 q 511 561 526 582 l 460 478 l 517 403 q 575 371 540 371 l 619 371 q 655 380 647 371 q 663 418 663 389 z "},"∫":{"ha":407,"x_min":36,"x_max":376,"o":"m 269 860 l 269 -47 q 140 -171 269 -171 l 36 -171 l 36 -64 l 103 -64 q 134 -56 126 -64 q 144 -24 142 -49 l 144 883 q 274 1007 144 1007 l 376 1007 l 376 900 l 311 900 q 278 892 286 900 q 269 860 269 883 z "},"≈":{"ha":682,"x_min":64,"x_max":619,"o":"m 453 278 q 377 294 411 278 q 324 331 343 311 q 219 385 272 385 q 179 338 179 385 l 179 279 l 64 279 l 64 364 q 181 476 64 476 l 232 476 q 318 449 281 476 q 390 396 356 422 q 457 369 425 369 q 496 380 489 369 q 503 417 503 390 l 503 475 l 619 475 l 619 390 q 501 278 619 278 l 453 278 m 453 521 q 377 538 411 521 q 324 575 343 554 q 219 628 272 628 q 188 617 196 628 q 179 581 179 606 l 179 522 l 64 522 l 64 607 q 181 719 64 719 l 232 719 q 355 666 301 719 q 465 613 408 613 q 496 624 489 613 q 503 661 503 635 l 503 718 l 619 718 l 619 633 q 501 521 619 521 l 453 521 z "},"≠":{"ha":675,"x_min":63,"x_max":614,"o":"m 614 443 l 388 443 l 383 435 l 614 435 l 614 333 l 335 333 l 243 144 l 151 144 l 243 333 l 63 333 l 63 435 l 292 435 l 296 443 l 63 443 l 63 544 l 344 544 l 432 726 l 525 726 l 438 544 l 614 544 l 614 443 z "},"≤":{"ha":632,"x_min":51,"x_max":558,"o":"m 558 256 l 558 160 l 51 160 l 51 256 l 558 256 m 558 621 l 175 515 l 558 408 l 558 299 l 51 469 l 51 568 l 558 728 l 558 621 z "},"≥":{"ha":632,"x_min":63,"x_max":569,"o":"m 63 160 l 63 256 l 569 256 l 569 160 l 63 160 m 444 515 l 63 621 l 63 728 l 569 568 l 569 469 l 63 299 l 63 408 l 444 515 z "},"◊":{"ha":693,"x_min":72,"x_max":633,"o":"m 408 869 l 633 436 l 408 0 l 296 0 l 72 436 l 296 869 l 408 869 m 353 114 l 506 436 l 353 757 l 200 436 l 353 114 z "},"◌":{"ha":585,"x_min":99,"x_max":479,"o":"m 243 210 l 335 210 l 335 108 l 243 108 l 243 210 m 243 674 l 335 674 l 335 572 l 243 572 l 243 674 m 388 572 l 388 674 q 479 572 479 674 l 388 572 m 388 519 l 479 519 l 479 418 l 388 418 l 388 519 m 388 364 l 479 364 l 479 263 l 388 263 l 388 364 m 388 210 l 479 210 q 454 138 479 168 q 388 108 429 108 l 388 210 m 190 572 l 99 572 q 124 647 99 619 q 190 674 149 674 l 190 572 m 99 519 l 190 519 l 190 418 l 99 418 l 99 519 m 99 364 l 190 364 l 190 263 l 99 263 l 99 364 m 190 210 l 190 108 q 124 136 150 108 q 99 210 99 164 l 190 210 z "},"":{"ha":585,"x_min":224,"x_max":361,"o":"m 224 -69 l 361 -69 l 361 -137 l 269 -318 l 224 -318 l 224 -69 z "},"ﬁ":{"ha":522,"x_min":8,"x_max":463,"o":"m 338 929 l 463 929 l 463 825 l 338 825 l 338 929 m 463 678 l 463 0 l 338 0 l 338 576 l 200 576 l 200 0 l 76 0 l 76 576 l 8 576 l 8 678 l 76 678 l 76 807 q 206 929 76 929 l 269 929 l 269 825 l 242 825 q 208 817 217 825 q 200 785 200 808 l 200 678 l 463 678 z "},"ﬂ":{"ha":522,"x_min":8,"x_max":463,"o":"m 338 929 l 463 929 l 463 0 l 338 0 l 338 576 l 200 576 l 200 0 l 76 0 l 76 576 l 8 576 l 8 678 l 76 678 l 76 807 q 206 929 76 929 l 269 929 l 269 825 l 242 825 q 208 817 217 825 q 200 785 200 808 l 200 678 l 338 678 l 338 929 z "}}}
